<ttFont>
    <TTGlyph name="A" xMin="6" yMin="-60" xMax="802" yMax="700">
      <contour>
        <pt x="133" y="700" on="1"/>
        <pt x="623" y="700" on="1"/>
        <pt x="673" y="640" on="1"/>
        <pt x="673" y="501" on="1"/>
        <pt x="621" y="501" on="1"/>
        <pt x="658" y="311" on="1"/>
        <pt x="667" y="312" on="0"/>
        <pt x="686" y="312" on="1"/>
        <pt x="736" y="252" on="1"/>
        <pt x="748" y="180" on="1"/>
        <pt x="694" y="180" on="0"/>
        <pt x="694" y="132" on="1"/>
        <pt x="694" y="103" on="0"/>
        <pt x="701" y="103" on="1"/>
        <pt x="718" y="103" on="0"/>
        <pt x="720" y="113" on="1"/>
        <pt x="752" y="94" on="1"/>
        <pt x="802" y="34" on="1"/>
        <pt x="802" y="-14" on="0"/>
        <pt x="755" y="-60" on="0"/>
        <pt x="682" y="-60" on="0"/>
        <pt x="635" y="-35" on="1"/>
        <pt x="598" y="-60" on="0"/>
        <pt x="563" y="-60" on="1"/>
        <pt x="508" y="-60" on="0"/>
        <pt x="411" y="38" on="0"/>
        <pt x="394" y="94" on="1"/>
        <pt x="418" y="113" on="1"/>
        <pt x="426" y="103" on="0"/>
        <pt x="441" y="103" on="1"/>
        <pt x="474" y="103" on="0"/>
        <pt x="474" y="142" on="1"/>
        <pt x="471" y="165" on="1"/>
        <pt x="452" y="175" on="0"/>
        <pt x="397" y="175" on="0"/>
        <pt x="347" y="143" on="0"/>
        <pt x="338" y="113" on="1"/>
        <pt x="362" y="94" on="1"/>
        <pt x="412" y="34" on="1"/>
        <pt x="398" y="-13" on="0"/>
        <pt x="333" y="-60" on="0"/>
        <pt x="260" y="-60" on="0"/>
        <pt x="220" y="-35" on="1"/>
        <pt x="175" y="-60" on="0"/>
        <pt x="137" y="-60" on="1"/>
        <pt x="85" y="-60" on="0"/>
        <pt x="6" y="40" on="0"/>
        <pt x="6" y="94" on="1"/>
        <pt x="37" y="113" on="1"/>
        <pt x="39" y="103" on="0"/>
        <pt x="74" y="103" on="0"/>
        <pt x="107" y="151" on="0"/>
        <pt x="111" y="180" on="1"/>
        <pt x="58" y="240" on="1"/>
        <pt x="70" y="312" on="1"/>
        <pt x="113" y="312" on="0"/>
        <pt x="135" y="306" on="1"/>
        <pt x="175" y="510" on="1"/>
        <pt x="133" y="561" on="1"/>
      </contour>
      <contour>
        <pt x="504" y="278" on="1"/>
        <pt x="513" y="285" on="0"/>
        <pt x="524" y="303" on="1"/>
        <pt x="550" y="303" on="1"/>
        <pt x="566" y="284" on="0"/>
        <pt x="579" y="278" on="1"/>
        <pt x="583" y="285" on="0"/>
        <pt x="595" y="295" on="1"/>
        <pt x="538" y="590" on="1"/>
        <pt x="595" y="590" on="1"/>
        <pt x="595" y="672" on="1"/>
        <pt x="161" y="672" on="1"/>
        <pt x="161" y="590" on="1"/>
        <pt x="218" y="590" on="1"/>
        <pt x="160" y="295" on="1"/>
        <pt x="172" y="286" on="0"/>
        <pt x="178" y="278" on="1"/>
        <pt x="190" y="285" on="0"/>
        <pt x="206" y="303" on="1"/>
        <pt x="232" y="303" on="1"/>
        <pt x="240" y="284" on="0"/>
        <pt x="249" y="278" on="1"/>
        <pt x="287" y="316" on="0"/>
        <pt x="468" y="316" on="0"/>
      </contour>
      <contour>
        <pt x="582" y="61" on="1"/>
        <pt x="626" y="27" on="0"/>
        <pt x="707" y="27" on="0"/>
        <pt x="720" y="79" on="1"/>
        <pt x="715" y="75" on="0"/>
        <pt x="706" y="75" on="1"/>
        <pt x="668" y="75" on="0"/>
        <pt x="615" y="150" on="0"/>
        <pt x="615" y="184" on="1"/>
        <pt x="615" y="255" on="0"/>
        <pt x="670" y="263" on="1"/>
        <pt x="666" y="287" on="1"/>
        <pt x="647" y="287" on="0"/>
        <pt x="628" y="284" on="0"/>
        <pt x="602" y="263" on="0"/>
        <pt x="593" y="241" on="1"/>
        <pt x="570" y="245" on="0"/>
        <pt x="541" y="275" on="1"/>
        <pt x="534" y="262" on="0"/>
        <pt x="515" y="245" on="0"/>
        <pt x="503" y="241" on="1"/>
        <pt x="464" y="289" on="0"/>
        <pt x="290" y="289" on="0"/>
        <pt x="253" y="241" on="1"/>
        <pt x="230" y="245" on="0"/>
        <pt x="214" y="275" on="1"/>
        <pt x="190" y="249" on="0"/>
        <pt x="164" y="241" on="1"/>
        <pt x="155" y="263" on="0"/>
        <pt x="128" y="284" on="0"/>
        <pt x="108" y="287" on="0"/>
        <pt x="90" y="287" on="1"/>
        <pt x="86" y="263" on="1"/>
        <pt x="114" y="259" on="0"/>
        <pt x="141" y="220" on="0"/>
        <pt x="141" y="150" on="0"/>
        <pt x="88" y="75" on="0"/>
        <pt x="51" y="75" on="1"/>
        <pt x="37" y="79" on="1"/>
        <pt x="50" y="27" on="0"/>
        <pt x="129" y="27" on="0"/>
        <pt x="174" y="61" on="1"/>
        <pt x="180" y="61" on="1"/>
        <pt x="214" y="27" on="0"/>
        <pt x="248" y="27" on="1"/>
        <pt x="293" y="27" on="0"/>
        <pt x="326" y="79" on="1"/>
        <pt x="318" y="75" on="0"/>
        <pt x="308" y="75" on="1"/>
        <pt x="252" y="75" on="0"/>
        <pt x="252" y="191" on="0"/>
        <pt x="328" y="258" on="0"/>
        <pt x="428" y="258" on="0"/>
        <pt x="504" y="191" on="0"/>
        <pt x="504" y="75" on="0"/>
        <pt x="448" y="75" on="1"/>
        <pt x="429" y="79" on="1"/>
        <pt x="461" y="27" on="0"/>
        <pt x="508" y="27" on="1"/>
        <pt x="543" y="27" on="0"/>
        <pt x="576" y="61" on="1"/>
      </contour>
      <contour>
        <pt x="287" y="340" on="1"/>
        <pt x="341" y="590" on="1"/>
        <pt x="415" y="590" on="1"/>
        <pt x="471" y="340" on="1"/>
      </contour>
      <contour>
        <pt x="410" y="485" on="1"/>
        <pt x="384" y="366" on="1"/>
        <pt x="437" y="366" on="1"/>
      </contour>
    </TTGlyph>
    <TTGlyph name="AE" xMin="5" yMin="-60" xMax="961" yMax="700">
      <contour>
        <pt x="754" y="-60" on="0"/>
        <pt x="681" y="-60" on="0"/>
        <pt x="634" y="-35" on="1"/>
        <pt x="597" y="-60" on="0"/>
        <pt x="562" y="-60" on="1"/>
        <pt x="507" y="-60" on="0"/>
        <pt x="410" y="38" on="0"/>
        <pt x="393" y="94" on="1"/>
        <pt x="417" y="113" on="1"/>
        <pt x="425" y="103" on="0"/>
        <pt x="440" y="103" on="1"/>
        <pt x="473" y="103" on="0"/>
        <pt x="473" y="142" on="1"/>
        <pt x="470" y="165" on="1"/>
        <pt x="452" y="175" on="0"/>
        <pt x="397" y="175" on="0"/>
        <pt x="346" y="141" on="0"/>
        <pt x="337" y="113" on="1"/>
        <pt x="361" y="94" on="1"/>
        <pt x="411" y="34" on="1"/>
        <pt x="397" y="-13" on="0"/>
        <pt x="332" y="-60" on="0"/>
        <pt x="259" y="-60" on="0"/>
        <pt x="219" y="-35" on="1"/>
        <pt x="174" y="-60" on="0"/>
        <pt x="136" y="-60" on="1"/>
        <pt x="84" y="-60" on="0"/>
        <pt x="5" y="40" on="0"/>
        <pt x="5" y="94" on="1"/>
        <pt x="36" y="113" on="1"/>
        <pt x="38" y="103" on="0"/>
        <pt x="73" y="103" on="0"/>
        <pt x="105" y="151" on="0"/>
        <pt x="107" y="180" on="1"/>
        <pt x="57" y="240" on="1"/>
        <pt x="69" y="312" on="1"/>
        <pt x="112" y="312" on="0"/>
        <pt x="134" y="306" on="1"/>
        <pt x="174" y="510" on="1"/>
        <pt x="132" y="561" on="1"/>
        <pt x="132" y="700" on="1"/>
        <pt x="895" y="700" on="1"/>
        <pt x="945" y="640" on="1"/>
        <pt x="945" y="396" on="1"/>
        <pt x="829" y="396" on="1"/>
        <pt x="779" y="456" on="1"/>
        <pt x="779" y="499" on="1"/>
        <pt x="672" y="499" on="1"/>
        <pt x="672" y="441" on="1"/>
        <pt x="743" y="441" on="1"/>
        <pt x="793" y="381" on="1"/>
        <pt x="793" y="265" on="1"/>
        <pt x="718" y="265" on="1"/>
        <pt x="729" y="252" on="1"/>
        <pt x="729" y="179" on="1"/>
        <pt x="713" y="178" on="0"/>
        <pt x="693" y="175" on="0"/>
        <pt x="671" y="157" on="0"/>
        <pt x="671" y="140" on="1"/>
        <pt x="671" y="136" on="1"/>
        <pt x="686" y="131" on="0"/>
        <pt x="737" y="131" on="0"/>
        <pt x="783" y="163" on="0"/>
        <pt x="783" y="192" on="1"/>
        <pt x="783" y="197" on="0"/>
        <pt x="777" y="221" on="1"/>
        <pt x="777" y="253" on="1"/>
        <pt x="893" y="253" on="1"/>
        <pt x="943" y="193" on="1"/>
        <pt x="943" y="13" on="1"/>
        <pt x="943" y="-22" on="0"/>
        <pt x="961" y="-33" on="1"/>
        <pt x="943" y="-60" on="1"/>
        <pt x="917" y="-60" on="0"/>
        <pt x="860" y="-34" on="0"/>
        <pt x="844" y="-19" on="1"/>
        <pt x="829" y="-34" on="0"/>
      </contour>
      <contour>
        <pt x="503" y="278" on="1"/>
        <pt x="512" y="285" on="0"/>
        <pt x="521" y="303" on="1"/>
        <pt x="545" y="303" on="1"/>
        <pt x="555" y="285" on="0"/>
        <pt x="565" y="279" on="1"/>
        <pt x="576" y="293" on="0"/>
        <pt x="592" y="301" on="1"/>
        <pt x="592" y="353" on="1"/>
        <pt x="715" y="353" on="1"/>
        <pt x="715" y="413" on="1"/>
        <pt x="592" y="413" on="1"/>
        <pt x="592" y="587" on="1"/>
        <pt x="807" y="587" on="1"/>
        <pt x="807" y="484" on="1"/>
        <pt x="867" y="484" on="1"/>
        <pt x="867" y="672" on="1"/>
        <pt x="160" y="672" on="1"/>
        <pt x="160" y="590" on="1"/>
        <pt x="217" y="590" on="1"/>
        <pt x="159" y="295" on="1"/>
        <pt x="171" y="286" on="0"/>
        <pt x="177" y="278" on="1"/>
        <pt x="189" y="285" on="0"/>
        <pt x="205" y="303" on="1"/>
        <pt x="231" y="303" on="1"/>
        <pt x="239" y="284" on="0"/>
        <pt x="248" y="278" on="1"/>
        <pt x="286" y="316" on="0"/>
        <pt x="467" y="316" on="0"/>
      </contour>
      <contour>
        <pt x="664" y="27" on="1"/>
        <pt x="732" y="27" on="0"/>
        <pt x="790" y="73" on="1"/>
        <pt x="794" y="76" on="1"/>
        <pt x="803" y="67" on="0"/>
        <pt x="859" y="34" on="0"/>
        <pt x="875" y="31" on="1"/>
        <pt x="866" y="41" on="0"/>
        <pt x="866" y="83" on="1"/>
        <pt x="866" y="223" on="1"/>
        <pt x="805" y="223" on="1"/>
        <pt x="810" y="206" on="0"/>
        <pt x="810" y="188" on="1"/>
        <pt x="810" y="148" on="0"/>
        <pt x="749" y="102" on="0"/>
        <pt x="661" y="102" on="0"/>
        <pt x="592" y="153" on="0"/>
        <pt x="592" y="205" on="1"/>
        <pt x="592" y="223" on="0"/>
        <pt x="621" y="262" on="0"/>
        <pt x="653" y="262" on="1"/>
        <pt x="653" y="286" on="1"/>
        <pt x="635" y="286" on="0"/>
        <pt x="616" y="283" on="0"/>
        <pt x="586" y="262" on="0"/>
        <pt x="574" y="241" on="1"/>
        <pt x="555" y="245" on="0"/>
        <pt x="535" y="269" on="1"/>
        <pt x="521" y="247" on="0"/>
        <pt x="502" y="241" on="1"/>
        <pt x="463" y="289" on="0"/>
        <pt x="289" y="289" on="0"/>
        <pt x="252" y="241" on="1"/>
        <pt x="229" y="245" on="0"/>
        <pt x="213" y="275" on="1"/>
        <pt x="189" y="249" on="0"/>
        <pt x="163" y="241" on="1"/>
        <pt x="154" y="263" on="0"/>
        <pt x="127" y="284" on="0"/>
        <pt x="107" y="287" on="0"/>
        <pt x="89" y="287" on="1"/>
        <pt x="85" y="263" on="1"/>
        <pt x="113" y="259" on="0"/>
        <pt x="140" y="220" on="0"/>
        <pt x="140" y="150" on="0"/>
        <pt x="87" y="75" on="0"/>
        <pt x="50" y="75" on="1"/>
        <pt x="36" y="79" on="1"/>
        <pt x="49" y="27" on="0"/>
        <pt x="128" y="27" on="0"/>
        <pt x="173" y="61" on="1"/>
        <pt x="179" y="61" on="1"/>
        <pt x="213" y="27" on="0"/>
        <pt x="247" y="27" on="1"/>
        <pt x="292" y="27" on="0"/>
        <pt x="325" y="79" on="1"/>
        <pt x="317" y="75" on="0"/>
        <pt x="307" y="75" on="1"/>
        <pt x="251" y="75" on="0"/>
        <pt x="251" y="191" on="0"/>
        <pt x="327" y="258" on="0"/>
        <pt x="427" y="258" on="0"/>
        <pt x="503" y="191" on="0"/>
        <pt x="503" y="75" on="0"/>
        <pt x="447" y="75" on="1"/>
        <pt x="428" y="79" on="1"/>
        <pt x="460" y="27" on="0"/>
        <pt x="507" y="27" on="1"/>
        <pt x="542" y="27" on="0"/>
        <pt x="575" y="61" on="1"/>
        <pt x="581" y="61" on="1"/>
        <pt x="625" y="27" on="0"/>
      </contour>
      <contour>
        <pt x="466" y="340" on="1"/>
        <pt x="286" y="340" on="1"/>
        <pt x="340" y="587" on="1"/>
        <pt x="466" y="587" on="1"/>
      </contour>
      <contour>
        <pt x="436" y="366" on="1"/>
        <pt x="436" y="499" on="1"/>
        <pt x="412" y="499" on="1"/>
        <pt x="383" y="366" on="1"/>
      </contour>
    </TTGlyph>
    <TTGlyph name="Aacute" xMin="6" yMin="-60" xMax="802" yMax="943">
      <contour>
        <pt x="133" y="700" on="1"/>
        <pt x="623" y="700" on="1"/>
        <pt x="673" y="640" on="1"/>
        <pt x="673" y="501" on="1"/>
        <pt x="621" y="501" on="1"/>
        <pt x="658" y="311" on="1"/>
        <pt x="667" y="312" on="0"/>
        <pt x="686" y="312" on="1"/>
        <pt x="736" y="252" on="1"/>
        <pt x="748" y="180" on="1"/>
        <pt x="694" y="180" on="0"/>
        <pt x="694" y="132" on="1"/>
        <pt x="694" y="103" on="0"/>
        <pt x="701" y="103" on="1"/>
        <pt x="718" y="103" on="0"/>
        <pt x="720" y="113" on="1"/>
        <pt x="752" y="94" on="1"/>
        <pt x="802" y="34" on="1"/>
        <pt x="802" y="-14" on="0"/>
        <pt x="755" y="-60" on="0"/>
        <pt x="682" y="-60" on="0"/>
        <pt x="635" y="-35" on="1"/>
        <pt x="598" y="-60" on="0"/>
        <pt x="563" y="-60" on="1"/>
        <pt x="508" y="-60" on="0"/>
        <pt x="411" y="38" on="0"/>
        <pt x="394" y="94" on="1"/>
        <pt x="418" y="113" on="1"/>
        <pt x="426" y="103" on="0"/>
        <pt x="441" y="103" on="1"/>
        <pt x="474" y="103" on="0"/>
        <pt x="474" y="142" on="1"/>
        <pt x="471" y="165" on="1"/>
        <pt x="452" y="175" on="0"/>
        <pt x="397" y="175" on="0"/>
        <pt x="347" y="143" on="0"/>
        <pt x="338" y="113" on="1"/>
        <pt x="362" y="94" on="1"/>
        <pt x="412" y="34" on="1"/>
        <pt x="398" y="-13" on="0"/>
        <pt x="333" y="-60" on="0"/>
        <pt x="260" y="-60" on="0"/>
        <pt x="220" y="-35" on="1"/>
        <pt x="175" y="-60" on="0"/>
        <pt x="137" y="-60" on="1"/>
        <pt x="85" y="-60" on="0"/>
        <pt x="6" y="40" on="0"/>
        <pt x="6" y="94" on="1"/>
        <pt x="37" y="113" on="1"/>
        <pt x="39" y="103" on="0"/>
        <pt x="74" y="103" on="0"/>
        <pt x="107" y="151" on="0"/>
        <pt x="111" y="180" on="1"/>
        <pt x="58" y="240" on="1"/>
        <pt x="70" y="312" on="1"/>
        <pt x="113" y="312" on="0"/>
        <pt x="135" y="306" on="1"/>
        <pt x="175" y="510" on="1"/>
        <pt x="133" y="561" on="1"/>
      </contour>
      <contour>
        <pt x="504" y="278" on="1"/>
        <pt x="513" y="285" on="0"/>
        <pt x="524" y="303" on="1"/>
        <pt x="550" y="303" on="1"/>
        <pt x="566" y="284" on="0"/>
        <pt x="579" y="278" on="1"/>
        <pt x="583" y="285" on="0"/>
        <pt x="595" y="295" on="1"/>
        <pt x="538" y="590" on="1"/>
        <pt x="595" y="590" on="1"/>
        <pt x="595" y="672" on="1"/>
        <pt x="161" y="672" on="1"/>
        <pt x="161" y="590" on="1"/>
        <pt x="218" y="590" on="1"/>
        <pt x="160" y="295" on="1"/>
        <pt x="172" y="286" on="0"/>
        <pt x="178" y="278" on="1"/>
        <pt x="190" y="285" on="0"/>
        <pt x="206" y="303" on="1"/>
        <pt x="232" y="303" on="1"/>
        <pt x="240" y="284" on="0"/>
        <pt x="249" y="278" on="1"/>
        <pt x="287" y="316" on="0"/>
        <pt x="468" y="316" on="0"/>
      </contour>
      <contour>
        <pt x="582" y="61" on="1"/>
        <pt x="626" y="27" on="0"/>
        <pt x="707" y="27" on="0"/>
        <pt x="720" y="79" on="1"/>
        <pt x="715" y="75" on="0"/>
        <pt x="706" y="75" on="1"/>
        <pt x="668" y="75" on="0"/>
        <pt x="615" y="150" on="0"/>
        <pt x="615" y="184" on="1"/>
        <pt x="615" y="255" on="0"/>
        <pt x="670" y="263" on="1"/>
        <pt x="666" y="287" on="1"/>
        <pt x="647" y="287" on="0"/>
        <pt x="628" y="284" on="0"/>
        <pt x="602" y="263" on="0"/>
        <pt x="593" y="241" on="1"/>
        <pt x="570" y="245" on="0"/>
        <pt x="541" y="275" on="1"/>
        <pt x="534" y="262" on="0"/>
        <pt x="515" y="245" on="0"/>
        <pt x="503" y="241" on="1"/>
        <pt x="464" y="289" on="0"/>
        <pt x="290" y="289" on="0"/>
        <pt x="253" y="241" on="1"/>
        <pt x="230" y="245" on="0"/>
        <pt x="214" y="275" on="1"/>
        <pt x="190" y="249" on="0"/>
        <pt x="164" y="241" on="1"/>
        <pt x="155" y="263" on="0"/>
        <pt x="128" y="284" on="0"/>
        <pt x="108" y="287" on="0"/>
        <pt x="90" y="287" on="1"/>
        <pt x="86" y="263" on="1"/>
        <pt x="114" y="259" on="0"/>
        <pt x="141" y="220" on="0"/>
        <pt x="141" y="150" on="0"/>
        <pt x="88" y="75" on="0"/>
        <pt x="51" y="75" on="1"/>
        <pt x="37" y="79" on="1"/>
        <pt x="50" y="27" on="0"/>
        <pt x="129" y="27" on="0"/>
        <pt x="174" y="61" on="1"/>
        <pt x="180" y="61" on="1"/>
        <pt x="214" y="27" on="0"/>
        <pt x="248" y="27" on="1"/>
        <pt x="293" y="27" on="0"/>
        <pt x="326" y="79" on="1"/>
        <pt x="318" y="75" on="0"/>
        <pt x="308" y="75" on="1"/>
        <pt x="252" y="75" on="0"/>
        <pt x="252" y="191" on="0"/>
        <pt x="328" y="258" on="0"/>
        <pt x="428" y="258" on="0"/>
        <pt x="504" y="191" on="0"/>
        <pt x="504" y="75" on="0"/>
        <pt x="448" y="75" on="1"/>
        <pt x="429" y="79" on="1"/>
        <pt x="461" y="27" on="0"/>
        <pt x="508" y="27" on="1"/>
        <pt x="543" y="27" on="0"/>
        <pt x="576" y="61" on="1"/>
      </contour>
      <contour>
        <pt x="287" y="340" on="1"/>
        <pt x="341" y="590" on="1"/>
        <pt x="415" y="590" on="1"/>
        <pt x="471" y="340" on="1"/>
      </contour>
      <contour>
        <pt x="410" y="485" on="1"/>
        <pt x="384" y="366" on="1"/>
        <pt x="437" y="366" on="1"/>
      </contour>
      <contour>
        <pt x="459" y="723" on="1"/>
        <pt x="341" y="723" on="1"/>
        <pt x="286" y="783" on="1"/>
        <pt x="351" y="943" on="1"/>
        <pt x="469" y="943" on="1"/>
        <pt x="519" y="883" on="1"/>
      </contour>
      <contour>
        <pt x="327" y="808" on="1"/>
        <pt x="388" y="808" on="1"/>
        <pt x="433" y="918" on="1"/>
        <pt x="371" y="918" on="1"/>
      </contour>
    </TTGlyph>
    <TTGlyph name="Acircumflex" xMin="6" yMin="-60" xMax="802" yMax="943">
      <contour>
        <pt x="673" y="501" on="1"/>
        <pt x="621" y="501" on="1"/>
        <pt x="658" y="311" on="1"/>
        <pt x="667" y="312" on="0"/>
        <pt x="686" y="312" on="1"/>
        <pt x="736" y="252" on="1"/>
        <pt x="748" y="180" on="1"/>
        <pt x="694" y="180" on="0"/>
        <pt x="694" y="132" on="1"/>
        <pt x="694" y="103" on="0"/>
        <pt x="701" y="103" on="1"/>
        <pt x="718" y="103" on="0"/>
        <pt x="720" y="113" on="1"/>
        <pt x="752" y="94" on="1"/>
        <pt x="802" y="34" on="1"/>
        <pt x="802" y="-14" on="0"/>
        <pt x="755" y="-60" on="0"/>
        <pt x="682" y="-60" on="0"/>
        <pt x="635" y="-35" on="1"/>
        <pt x="598" y="-60" on="0"/>
        <pt x="563" y="-60" on="1"/>
        <pt x="508" y="-60" on="0"/>
        <pt x="411" y="38" on="0"/>
        <pt x="394" y="94" on="1"/>
        <pt x="418" y="113" on="1"/>
        <pt x="426" y="103" on="0"/>
        <pt x="441" y="103" on="1"/>
        <pt x="474" y="103" on="0"/>
        <pt x="474" y="142" on="1"/>
        <pt x="471" y="165" on="1"/>
        <pt x="452" y="175" on="0"/>
        <pt x="397" y="175" on="0"/>
        <pt x="347" y="143" on="0"/>
        <pt x="338" y="113" on="1"/>
        <pt x="362" y="94" on="1"/>
        <pt x="412" y="34" on="1"/>
        <pt x="398" y="-13" on="0"/>
        <pt x="333" y="-60" on="0"/>
        <pt x="260" y="-60" on="0"/>
        <pt x="220" y="-35" on="1"/>
        <pt x="175" y="-60" on="0"/>
        <pt x="137" y="-60" on="1"/>
        <pt x="85" y="-60" on="0"/>
        <pt x="6" y="40" on="0"/>
        <pt x="6" y="94" on="1"/>
        <pt x="37" y="113" on="1"/>
        <pt x="39" y="103" on="0"/>
        <pt x="74" y="103" on="0"/>
        <pt x="107" y="151" on="0"/>
        <pt x="111" y="180" on="1"/>
        <pt x="58" y="240" on="1"/>
        <pt x="70" y="312" on="1"/>
        <pt x="113" y="312" on="0"/>
        <pt x="135" y="306" on="1"/>
        <pt x="175" y="510" on="1"/>
        <pt x="133" y="561" on="1"/>
        <pt x="133" y="700" on="1"/>
        <pt x="243" y="700" on="1"/>
        <pt x="196" y="757" on="1"/>
        <pt x="316" y="943" on="1"/>
        <pt x="440" y="943" on="1"/>
        <pt x="490" y="883" on="1"/>
        <pt x="608" y="700" on="1"/>
        <pt x="623" y="700" on="1"/>
        <pt x="673" y="640" on="1"/>
      </contour>
      <contour>
        <pt x="504" y="278" on="1"/>
        <pt x="513" y="285" on="0"/>
        <pt x="524" y="303" on="1"/>
        <pt x="550" y="303" on="1"/>
        <pt x="566" y="284" on="0"/>
        <pt x="579" y="278" on="1"/>
        <pt x="583" y="285" on="0"/>
        <pt x="595" y="295" on="1"/>
        <pt x="538" y="590" on="1"/>
        <pt x="595" y="590" on="1"/>
        <pt x="595" y="672" on="1"/>
        <pt x="161" y="672" on="1"/>
        <pt x="161" y="590" on="1"/>
        <pt x="218" y="590" on="1"/>
        <pt x="160" y="295" on="1"/>
        <pt x="172" y="286" on="0"/>
        <pt x="178" y="278" on="1"/>
        <pt x="190" y="285" on="0"/>
        <pt x="206" y="303" on="1"/>
        <pt x="232" y="303" on="1"/>
        <pt x="240" y="284" on="0"/>
        <pt x="249" y="278" on="1"/>
        <pt x="287" y="316" on="0"/>
        <pt x="468" y="316" on="0"/>
      </contour>
      <contour>
        <pt x="582" y="61" on="1"/>
        <pt x="626" y="27" on="0"/>
        <pt x="707" y="27" on="0"/>
        <pt x="720" y="79" on="1"/>
        <pt x="715" y="75" on="0"/>
        <pt x="706" y="75" on="1"/>
        <pt x="668" y="75" on="0"/>
        <pt x="615" y="150" on="0"/>
        <pt x="615" y="184" on="1"/>
        <pt x="615" y="255" on="0"/>
        <pt x="670" y="263" on="1"/>
        <pt x="666" y="287" on="1"/>
        <pt x="647" y="287" on="0"/>
        <pt x="628" y="284" on="0"/>
        <pt x="602" y="263" on="0"/>
        <pt x="593" y="241" on="1"/>
        <pt x="570" y="245" on="0"/>
        <pt x="541" y="275" on="1"/>
        <pt x="534" y="262" on="0"/>
        <pt x="515" y="245" on="0"/>
        <pt x="503" y="241" on="1"/>
        <pt x="464" y="289" on="0"/>
        <pt x="290" y="289" on="0"/>
        <pt x="253" y="241" on="1"/>
        <pt x="230" y="245" on="0"/>
        <pt x="214" y="275" on="1"/>
        <pt x="190" y="249" on="0"/>
        <pt x="164" y="241" on="1"/>
        <pt x="155" y="263" on="0"/>
        <pt x="128" y="284" on="0"/>
        <pt x="108" y="287" on="0"/>
        <pt x="90" y="287" on="1"/>
        <pt x="86" y="263" on="1"/>
        <pt x="114" y="259" on="0"/>
        <pt x="141" y="220" on="0"/>
        <pt x="141" y="150" on="0"/>
        <pt x="88" y="75" on="0"/>
        <pt x="51" y="75" on="1"/>
        <pt x="37" y="79" on="1"/>
        <pt x="50" y="27" on="0"/>
        <pt x="129" y="27" on="0"/>
        <pt x="174" y="61" on="1"/>
        <pt x="180" y="61" on="1"/>
        <pt x="214" y="27" on="0"/>
        <pt x="248" y="27" on="1"/>
        <pt x="293" y="27" on="0"/>
        <pt x="326" y="79" on="1"/>
        <pt x="318" y="75" on="0"/>
        <pt x="308" y="75" on="1"/>
        <pt x="252" y="75" on="0"/>
        <pt x="252" y="191" on="0"/>
        <pt x="328" y="258" on="0"/>
        <pt x="428" y="258" on="0"/>
        <pt x="504" y="191" on="0"/>
        <pt x="504" y="75" on="0"/>
        <pt x="448" y="75" on="1"/>
        <pt x="429" y="79" on="1"/>
        <pt x="461" y="27" on="0"/>
        <pt x="508" y="27" on="1"/>
        <pt x="543" y="27" on="0"/>
        <pt x="576" y="61" on="1"/>
      </contour>
      <contour>
        <pt x="287" y="340" on="1"/>
        <pt x="341" y="590" on="1"/>
        <pt x="415" y="590" on="1"/>
        <pt x="471" y="340" on="1"/>
      </contour>
      <contour>
        <pt x="337" y="916" on="1"/>
        <pt x="246" y="784" on="1"/>
        <pt x="288" y="784" on="1"/>
        <pt x="369" y="854" on="1"/>
        <pt x="387" y="854" on="1"/>
        <pt x="468" y="784" on="1"/>
        <pt x="510" y="784" on="1"/>
        <pt x="419" y="916" on="1"/>
      </contour>
      <contour>
        <pt x="428" y="767" on="1"/>
        <pt x="353" y="700" on="1"/>
        <pt x="502" y="700" on="1"/>
      </contour>
      <contour>
        <pt x="410" y="485" on="1"/>
        <pt x="384" y="366" on="1"/>
        <pt x="437" y="366" on="1"/>
      </contour>
    </TTGlyph>
    <TTGlyph name="Adieresis" xMin="6" yMin="-60" xMax="802" yMax="943">
      <contour>
        <pt x="133" y="700" on="1"/>
        <pt x="623" y="700" on="1"/>
        <pt x="673" y="640" on="1"/>
        <pt x="673" y="501" on="1"/>
        <pt x="621" y="501" on="1"/>
        <pt x="658" y="311" on="1"/>
        <pt x="667" y="312" on="0"/>
        <pt x="686" y="312" on="1"/>
        <pt x="736" y="252" on="1"/>
        <pt x="748" y="180" on="1"/>
        <pt x="694" y="180" on="0"/>
        <pt x="694" y="132" on="1"/>
        <pt x="694" y="103" on="0"/>
        <pt x="701" y="103" on="1"/>
        <pt x="718" y="103" on="0"/>
        <pt x="720" y="113" on="1"/>
        <pt x="752" y="94" on="1"/>
        <pt x="802" y="34" on="1"/>
        <pt x="802" y="-14" on="0"/>
        <pt x="755" y="-60" on="0"/>
        <pt x="682" y="-60" on="0"/>
        <pt x="635" y="-35" on="1"/>
        <pt x="598" y="-60" on="0"/>
        <pt x="563" y="-60" on="1"/>
        <pt x="508" y="-60" on="0"/>
        <pt x="411" y="38" on="0"/>
        <pt x="394" y="94" on="1"/>
        <pt x="418" y="113" on="1"/>
        <pt x="426" y="103" on="0"/>
        <pt x="441" y="103" on="1"/>
        <pt x="474" y="103" on="0"/>
        <pt x="474" y="142" on="1"/>
        <pt x="471" y="165" on="1"/>
        <pt x="452" y="175" on="0"/>
        <pt x="397" y="175" on="0"/>
        <pt x="347" y="143" on="0"/>
        <pt x="338" y="113" on="1"/>
        <pt x="362" y="94" on="1"/>
        <pt x="412" y="34" on="1"/>
        <pt x="398" y="-13" on="0"/>
        <pt x="333" y="-60" on="0"/>
        <pt x="260" y="-60" on="0"/>
        <pt x="220" y="-35" on="1"/>
        <pt x="175" y="-60" on="0"/>
        <pt x="137" y="-60" on="1"/>
        <pt x="85" y="-60" on="0"/>
        <pt x="6" y="40" on="0"/>
        <pt x="6" y="94" on="1"/>
        <pt x="37" y="113" on="1"/>
        <pt x="39" y="103" on="0"/>
        <pt x="74" y="103" on="0"/>
        <pt x="107" y="151" on="0"/>
        <pt x="111" y="180" on="1"/>
        <pt x="58" y="240" on="1"/>
        <pt x="70" y="312" on="1"/>
        <pt x="113" y="312" on="0"/>
        <pt x="135" y="306" on="1"/>
        <pt x="175" y="510" on="1"/>
        <pt x="133" y="561" on="1"/>
      </contour>
      <contour>
        <pt x="504" y="278" on="1"/>
        <pt x="513" y="285" on="0"/>
        <pt x="524" y="303" on="1"/>
        <pt x="550" y="303" on="1"/>
        <pt x="566" y="284" on="0"/>
        <pt x="579" y="278" on="1"/>
        <pt x="583" y="285" on="0"/>
        <pt x="595" y="295" on="1"/>
        <pt x="538" y="590" on="1"/>
        <pt x="595" y="590" on="1"/>
        <pt x="595" y="672" on="1"/>
        <pt x="161" y="672" on="1"/>
        <pt x="161" y="590" on="1"/>
        <pt x="218" y="590" on="1"/>
        <pt x="160" y="295" on="1"/>
        <pt x="172" y="286" on="0"/>
        <pt x="178" y="278" on="1"/>
        <pt x="190" y="285" on="0"/>
        <pt x="206" y="303" on="1"/>
        <pt x="232" y="303" on="1"/>
        <pt x="240" y="284" on="0"/>
        <pt x="249" y="278" on="1"/>
        <pt x="287" y="316" on="0"/>
        <pt x="468" y="316" on="0"/>
      </contour>
      <contour>
        <pt x="582" y="61" on="1"/>
        <pt x="626" y="27" on="0"/>
        <pt x="707" y="27" on="0"/>
        <pt x="720" y="79" on="1"/>
        <pt x="715" y="75" on="0"/>
        <pt x="706" y="75" on="1"/>
        <pt x="668" y="75" on="0"/>
        <pt x="615" y="150" on="0"/>
        <pt x="615" y="184" on="1"/>
        <pt x="615" y="255" on="0"/>
        <pt x="670" y="263" on="1"/>
        <pt x="666" y="287" on="1"/>
        <pt x="647" y="287" on="0"/>
        <pt x="628" y="284" on="0"/>
        <pt x="602" y="263" on="0"/>
        <pt x="593" y="241" on="1"/>
        <pt x="570" y="245" on="0"/>
        <pt x="541" y="275" on="1"/>
        <pt x="534" y="262" on="0"/>
        <pt x="515" y="245" on="0"/>
        <pt x="503" y="241" on="1"/>
        <pt x="464" y="289" on="0"/>
        <pt x="290" y="289" on="0"/>
        <pt x="253" y="241" on="1"/>
        <pt x="230" y="245" on="0"/>
        <pt x="214" y="275" on="1"/>
        <pt x="190" y="249" on="0"/>
        <pt x="164" y="241" on="1"/>
        <pt x="155" y="263" on="0"/>
        <pt x="128" y="284" on="0"/>
        <pt x="108" y="287" on="0"/>
        <pt x="90" y="287" on="1"/>
        <pt x="86" y="263" on="1"/>
        <pt x="114" y="259" on="0"/>
        <pt x="141" y="220" on="0"/>
        <pt x="141" y="150" on="0"/>
        <pt x="88" y="75" on="0"/>
        <pt x="51" y="75" on="1"/>
        <pt x="37" y="79" on="1"/>
        <pt x="50" y="27" on="0"/>
        <pt x="129" y="27" on="0"/>
        <pt x="174" y="61" on="1"/>
        <pt x="180" y="61" on="1"/>
        <pt x="214" y="27" on="0"/>
        <pt x="248" y="27" on="1"/>
        <pt x="293" y="27" on="0"/>
        <pt x="326" y="79" on="1"/>
        <pt x="318" y="75" on="0"/>
        <pt x="308" y="75" on="1"/>
        <pt x="252" y="75" on="0"/>
        <pt x="252" y="191" on="0"/>
        <pt x="328" y="258" on="0"/>
        <pt x="428" y="258" on="0"/>
        <pt x="504" y="191" on="0"/>
        <pt x="504" y="75" on="0"/>
        <pt x="448" y="75" on="1"/>
        <pt x="429" y="79" on="1"/>
        <pt x="461" y="27" on="0"/>
        <pt x="508" y="27" on="1"/>
        <pt x="543" y="27" on="0"/>
        <pt x="576" y="61" on="1"/>
      </contour>
      <contour>
        <pt x="287" y="340" on="1"/>
        <pt x="341" y="590" on="1"/>
        <pt x="415" y="590" on="1"/>
        <pt x="471" y="340" on="1"/>
      </contour>
      <contour>
        <pt x="410" y="485" on="1"/>
        <pt x="384" y="366" on="1"/>
        <pt x="437" y="366" on="1"/>
      </contour>
      <contour>
        <pt x="393" y="825" on="1"/>
        <pt x="393" y="783" on="1"/>
        <pt x="393" y="754" on="0"/>
        <pt x="341" y="725" on="0"/>
        <pt x="310" y="725" on="1"/>
        <pt x="265" y="725" on="0"/>
        <pt x="187" y="808" on="0"/>
        <pt x="187" y="843" on="1"/>
        <pt x="187" y="885" on="1"/>
        <pt x="187" y="914" on="0"/>
        <pt x="239" y="943" on="0"/>
        <pt x="270" y="943" on="1"/>
        <pt x="318" y="943" on="0"/>
        <pt x="393" y="872" on="0"/>
      </contour>
      <contour>
        <pt x="214" y="812" on="0"/>
        <pt x="326" y="812" on="0"/>
        <pt x="326" y="857" on="1"/>
        <pt x="326" y="871" on="1"/>
        <pt x="326" y="916" on="0"/>
        <pt x="214" y="916" on="0"/>
        <pt x="214" y="871" on="1"/>
        <pt x="214" y="857" on="1"/>
      </contour>
      <contour>
        <pt x="619" y="825" on="1"/>
        <pt x="619" y="783" on="1"/>
        <pt x="619" y="754" on="0"/>
        <pt x="567" y="725" on="0"/>
        <pt x="536" y="725" on="1"/>
        <pt x="491" y="725" on="0"/>
        <pt x="413" y="808" on="0"/>
        <pt x="413" y="843" on="1"/>
        <pt x="413" y="885" on="1"/>
        <pt x="413" y="914" on="0"/>
        <pt x="465" y="943" on="0"/>
        <pt x="496" y="943" on="1"/>
        <pt x="544" y="943" on="0"/>
        <pt x="619" y="872" on="0"/>
      </contour>
      <contour>
        <pt x="440" y="812" on="0"/>
        <pt x="552" y="812" on="0"/>
        <pt x="552" y="857" on="1"/>
        <pt x="552" y="871" on="1"/>
        <pt x="552" y="916" on="0"/>
        <pt x="440" y="916" on="0"/>
        <pt x="440" y="871" on="1"/>
        <pt x="440" y="857" on="1"/>
      </contour>
    </TTGlyph>
    <TTGlyph name="Agrave" xMin="6" yMin="-60" xMax="802" yMax="943">
      <contour>
        <pt x="133" y="700" on="1"/>
        <pt x="623" y="700" on="1"/>
        <pt x="673" y="640" on="1"/>
        <pt x="673" y="501" on="1"/>
        <pt x="621" y="501" on="1"/>
        <pt x="658" y="311" on="1"/>
        <pt x="667" y="312" on="0"/>
        <pt x="686" y="312" on="1"/>
        <pt x="736" y="252" on="1"/>
        <pt x="748" y="180" on="1"/>
        <pt x="694" y="180" on="0"/>
        <pt x="694" y="132" on="1"/>
        <pt x="694" y="103" on="0"/>
        <pt x="701" y="103" on="1"/>
        <pt x="718" y="103" on="0"/>
        <pt x="720" y="113" on="1"/>
        <pt x="752" y="94" on="1"/>
        <pt x="802" y="34" on="1"/>
        <pt x="802" y="-14" on="0"/>
        <pt x="755" y="-60" on="0"/>
        <pt x="682" y="-60" on="0"/>
        <pt x="635" y="-35" on="1"/>
        <pt x="598" y="-60" on="0"/>
        <pt x="563" y="-60" on="1"/>
        <pt x="508" y="-60" on="0"/>
        <pt x="411" y="38" on="0"/>
        <pt x="394" y="94" on="1"/>
        <pt x="418" y="113" on="1"/>
        <pt x="426" y="103" on="0"/>
        <pt x="441" y="103" on="1"/>
        <pt x="474" y="103" on="0"/>
        <pt x="474" y="142" on="1"/>
        <pt x="471" y="165" on="1"/>
        <pt x="452" y="175" on="0"/>
        <pt x="397" y="175" on="0"/>
        <pt x="347" y="143" on="0"/>
        <pt x="338" y="113" on="1"/>
        <pt x="362" y="94" on="1"/>
        <pt x="412" y="34" on="1"/>
        <pt x="398" y="-13" on="0"/>
        <pt x="333" y="-60" on="0"/>
        <pt x="260" y="-60" on="0"/>
        <pt x="220" y="-35" on="1"/>
        <pt x="175" y="-60" on="0"/>
        <pt x="137" y="-60" on="1"/>
        <pt x="85" y="-60" on="0"/>
        <pt x="6" y="40" on="0"/>
        <pt x="6" y="94" on="1"/>
        <pt x="37" y="113" on="1"/>
        <pt x="39" y="103" on="0"/>
        <pt x="74" y="103" on="0"/>
        <pt x="107" y="151" on="0"/>
        <pt x="111" y="180" on="1"/>
        <pt x="58" y="240" on="1"/>
        <pt x="70" y="312" on="1"/>
        <pt x="113" y="312" on="0"/>
        <pt x="135" y="306" on="1"/>
        <pt x="175" y="510" on="1"/>
        <pt x="133" y="561" on="1"/>
      </contour>
      <contour>
        <pt x="504" y="278" on="1"/>
        <pt x="513" y="285" on="0"/>
        <pt x="524" y="303" on="1"/>
        <pt x="550" y="303" on="1"/>
        <pt x="566" y="284" on="0"/>
        <pt x="579" y="278" on="1"/>
        <pt x="583" y="285" on="0"/>
        <pt x="595" y="295" on="1"/>
        <pt x="538" y="590" on="1"/>
        <pt x="595" y="590" on="1"/>
        <pt x="595" y="672" on="1"/>
        <pt x="161" y="672" on="1"/>
        <pt x="161" y="590" on="1"/>
        <pt x="218" y="590" on="1"/>
        <pt x="160" y="295" on="1"/>
        <pt x="172" y="286" on="0"/>
        <pt x="178" y="278" on="1"/>
        <pt x="190" y="285" on="0"/>
        <pt x="206" y="303" on="1"/>
        <pt x="232" y="303" on="1"/>
        <pt x="240" y="284" on="0"/>
        <pt x="249" y="278" on="1"/>
        <pt x="287" y="316" on="0"/>
        <pt x="468" y="316" on="0"/>
      </contour>
      <contour>
        <pt x="582" y="61" on="1"/>
        <pt x="626" y="27" on="0"/>
        <pt x="707" y="27" on="0"/>
        <pt x="720" y="79" on="1"/>
        <pt x="715" y="75" on="0"/>
        <pt x="706" y="75" on="1"/>
        <pt x="668" y="75" on="0"/>
        <pt x="615" y="150" on="0"/>
        <pt x="615" y="184" on="1"/>
        <pt x="615" y="255" on="0"/>
        <pt x="670" y="263" on="1"/>
        <pt x="666" y="287" on="1"/>
        <pt x="647" y="287" on="0"/>
        <pt x="628" y="284" on="0"/>
        <pt x="602" y="263" on="0"/>
        <pt x="593" y="241" on="1"/>
        <pt x="570" y="245" on="0"/>
        <pt x="541" y="275" on="1"/>
        <pt x="534" y="262" on="0"/>
        <pt x="515" y="245" on="0"/>
        <pt x="503" y="241" on="1"/>
        <pt x="464" y="289" on="0"/>
        <pt x="290" y="289" on="0"/>
        <pt x="253" y="241" on="1"/>
        <pt x="230" y="245" on="0"/>
        <pt x="214" y="275" on="1"/>
        <pt x="190" y="249" on="0"/>
        <pt x="164" y="241" on="1"/>
        <pt x="155" y="263" on="0"/>
        <pt x="128" y="284" on="0"/>
        <pt x="108" y="287" on="0"/>
        <pt x="90" y="287" on="1"/>
        <pt x="86" y="263" on="1"/>
        <pt x="114" y="259" on="0"/>
        <pt x="141" y="220" on="0"/>
        <pt x="141" y="150" on="0"/>
        <pt x="88" y="75" on="0"/>
        <pt x="51" y="75" on="1"/>
        <pt x="37" y="79" on="1"/>
        <pt x="50" y="27" on="0"/>
        <pt x="129" y="27" on="0"/>
        <pt x="174" y="61" on="1"/>
        <pt x="180" y="61" on="1"/>
        <pt x="214" y="27" on="0"/>
        <pt x="248" y="27" on="1"/>
        <pt x="293" y="27" on="0"/>
        <pt x="326" y="79" on="1"/>
        <pt x="318" y="75" on="0"/>
        <pt x="308" y="75" on="1"/>
        <pt x="252" y="75" on="0"/>
        <pt x="252" y="191" on="0"/>
        <pt x="328" y="258" on="0"/>
        <pt x="428" y="258" on="0"/>
        <pt x="504" y="191" on="0"/>
        <pt x="504" y="75" on="0"/>
        <pt x="448" y="75" on="1"/>
        <pt x="429" y="79" on="1"/>
        <pt x="461" y="27" on="0"/>
        <pt x="508" y="27" on="1"/>
        <pt x="543" y="27" on="0"/>
        <pt x="576" y="61" on="1"/>
      </contour>
      <contour>
        <pt x="287" y="340" on="1"/>
        <pt x="341" y="590" on="1"/>
        <pt x="415" y="590" on="1"/>
        <pt x="471" y="340" on="1"/>
      </contour>
      <contour>
        <pt x="410" y="485" on="1"/>
        <pt x="384" y="366" on="1"/>
        <pt x="437" y="366" on="1"/>
      </contour>
      <contour>
        <pt x="501" y="723" on="1"/>
        <pt x="415" y="723" on="1"/>
        <pt x="365" y="783" on="1"/>
        <pt x="305" y="943" on="1"/>
        <pt x="441" y="943" on="1"/>
        <pt x="491" y="883" on="1"/>
      </contour>
      <contour>
        <pt x="386" y="809" on="1"/>
        <pt x="422" y="809" on="1"/>
        <pt x="412" y="918" on="1"/>
        <pt x="344" y="918" on="1"/>
      </contour>
    </TTGlyph>
    <TTGlyph name="Aring" xMin="6" yMin="-60" xMax="802" yMax="943">
      <contour>
        <pt x="370" y="704" on="0"/>
        <pt x="281" y="809" on="0"/>
        <pt x="281" y="891" on="0"/>
        <pt x="333" y="943" on="0"/>
        <pt x="417" y="943" on="0"/>
        <pt x="510" y="839" on="0"/>
        <pt x="510" y="756" on="0"/>
        <pt x="458" y="704" on="0"/>
        <pt x="420" y="704" on="1"/>
      </contour>
      <contour>
        <pt x="336" y="839" on="0"/>
        <pt x="336" y="867" on="0"/>
        <pt x="356" y="887" on="0"/>
        <pt x="384" y="887" on="0"/>
        <pt x="404" y="867" on="0"/>
        <pt x="404" y="839" on="0"/>
        <pt x="384" y="819" on="0"/>
        <pt x="356" y="819" on="0"/>
      </contour>
      <contour>
        <pt x="344" y="918" on="0"/>
        <pt x="307" y="880" on="0"/>
        <pt x="307" y="828" on="0"/>
        <pt x="344" y="790" on="0"/>
        <pt x="397" y="790" on="0"/>
        <pt x="435" y="827" on="0"/>
        <pt x="435" y="880" on="0"/>
        <pt x="397" y="918" on="0"/>
      </contour>
      <contour>
        <pt x="133" y="700" on="1"/>
        <pt x="623" y="700" on="1"/>
        <pt x="673" y="640" on="1"/>
        <pt x="673" y="501" on="1"/>
        <pt x="621" y="501" on="1"/>
        <pt x="658" y="311" on="1"/>
        <pt x="667" y="312" on="0"/>
        <pt x="686" y="312" on="1"/>
        <pt x="736" y="252" on="1"/>
        <pt x="748" y="180" on="1"/>
        <pt x="694" y="180" on="0"/>
        <pt x="694" y="132" on="1"/>
        <pt x="694" y="103" on="0"/>
        <pt x="701" y="103" on="1"/>
        <pt x="718" y="103" on="0"/>
        <pt x="720" y="113" on="1"/>
        <pt x="752" y="94" on="1"/>
        <pt x="802" y="34" on="1"/>
        <pt x="802" y="-14" on="0"/>
        <pt x="755" y="-60" on="0"/>
        <pt x="682" y="-60" on="0"/>
        <pt x="635" y="-35" on="1"/>
        <pt x="598" y="-60" on="0"/>
        <pt x="563" y="-60" on="1"/>
        <pt x="508" y="-60" on="0"/>
        <pt x="411" y="38" on="0"/>
        <pt x="394" y="94" on="1"/>
        <pt x="418" y="113" on="1"/>
        <pt x="426" y="103" on="0"/>
        <pt x="441" y="103" on="1"/>
        <pt x="474" y="103" on="0"/>
        <pt x="474" y="142" on="1"/>
        <pt x="471" y="165" on="1"/>
        <pt x="452" y="175" on="0"/>
        <pt x="397" y="175" on="0"/>
        <pt x="347" y="143" on="0"/>
        <pt x="338" y="113" on="1"/>
        <pt x="362" y="94" on="1"/>
        <pt x="412" y="34" on="1"/>
        <pt x="398" y="-13" on="0"/>
        <pt x="333" y="-60" on="0"/>
        <pt x="260" y="-60" on="0"/>
        <pt x="220" y="-35" on="1"/>
        <pt x="175" y="-60" on="0"/>
        <pt x="137" y="-60" on="1"/>
        <pt x="85" y="-60" on="0"/>
        <pt x="6" y="40" on="0"/>
        <pt x="6" y="94" on="1"/>
        <pt x="37" y="113" on="1"/>
        <pt x="39" y="103" on="0"/>
        <pt x="74" y="103" on="0"/>
        <pt x="107" y="151" on="0"/>
        <pt x="111" y="180" on="1"/>
        <pt x="58" y="240" on="1"/>
        <pt x="70" y="312" on="1"/>
        <pt x="113" y="312" on="0"/>
        <pt x="135" y="306" on="1"/>
        <pt x="175" y="510" on="1"/>
        <pt x="133" y="561" on="1"/>
      </contour>
      <contour>
        <pt x="504" y="278" on="1"/>
        <pt x="513" y="285" on="0"/>
        <pt x="524" y="303" on="1"/>
        <pt x="550" y="303" on="1"/>
        <pt x="566" y="284" on="0"/>
        <pt x="579" y="278" on="1"/>
        <pt x="583" y="285" on="0"/>
        <pt x="595" y="295" on="1"/>
        <pt x="538" y="590" on="1"/>
        <pt x="595" y="590" on="1"/>
        <pt x="595" y="672" on="1"/>
        <pt x="161" y="672" on="1"/>
        <pt x="161" y="590" on="1"/>
        <pt x="218" y="590" on="1"/>
        <pt x="160" y="295" on="1"/>
        <pt x="172" y="286" on="0"/>
        <pt x="178" y="278" on="1"/>
        <pt x="190" y="285" on="0"/>
        <pt x="206" y="303" on="1"/>
        <pt x="232" y="303" on="1"/>
        <pt x="240" y="284" on="0"/>
        <pt x="249" y="278" on="1"/>
        <pt x="287" y="316" on="0"/>
        <pt x="468" y="316" on="0"/>
      </contour>
      <contour>
        <pt x="582" y="61" on="1"/>
        <pt x="626" y="27" on="0"/>
        <pt x="707" y="27" on="0"/>
        <pt x="720" y="79" on="1"/>
        <pt x="715" y="75" on="0"/>
        <pt x="706" y="75" on="1"/>
        <pt x="668" y="75" on="0"/>
        <pt x="615" y="150" on="0"/>
        <pt x="615" y="184" on="1"/>
        <pt x="615" y="255" on="0"/>
        <pt x="670" y="263" on="1"/>
        <pt x="666" y="287" on="1"/>
        <pt x="647" y="287" on="0"/>
        <pt x="628" y="284" on="0"/>
        <pt x="602" y="263" on="0"/>
        <pt x="593" y="241" on="1"/>
        <pt x="570" y="245" on="0"/>
        <pt x="541" y="275" on="1"/>
        <pt x="534" y="262" on="0"/>
        <pt x="515" y="245" on="0"/>
        <pt x="503" y="241" on="1"/>
        <pt x="464" y="289" on="0"/>
        <pt x="290" y="289" on="0"/>
        <pt x="253" y="241" on="1"/>
        <pt x="230" y="245" on="0"/>
        <pt x="214" y="275" on="1"/>
        <pt x="190" y="249" on="0"/>
        <pt x="164" y="241" on="1"/>
        <pt x="155" y="263" on="0"/>
        <pt x="128" y="284" on="0"/>
        <pt x="108" y="287" on="0"/>
        <pt x="90" y="287" on="1"/>
        <pt x="86" y="263" on="1"/>
        <pt x="114" y="259" on="0"/>
        <pt x="141" y="220" on="0"/>
        <pt x="141" y="150" on="0"/>
        <pt x="88" y="75" on="0"/>
        <pt x="51" y="75" on="1"/>
        <pt x="37" y="79" on="1"/>
        <pt x="50" y="27" on="0"/>
        <pt x="129" y="27" on="0"/>
        <pt x="174" y="61" on="1"/>
        <pt x="180" y="61" on="1"/>
        <pt x="214" y="27" on="0"/>
        <pt x="248" y="27" on="1"/>
        <pt x="293" y="27" on="0"/>
        <pt x="326" y="79" on="1"/>
        <pt x="318" y="75" on="0"/>
        <pt x="308" y="75" on="1"/>
        <pt x="252" y="75" on="0"/>
        <pt x="252" y="191" on="0"/>
        <pt x="328" y="258" on="0"/>
        <pt x="428" y="258" on="0"/>
        <pt x="504" y="191" on="0"/>
        <pt x="504" y="75" on="0"/>
        <pt x="448" y="75" on="1"/>
        <pt x="429" y="79" on="1"/>
        <pt x="461" y="27" on="0"/>
        <pt x="508" y="27" on="1"/>
        <pt x="543" y="27" on="0"/>
        <pt x="576" y="61" on="1"/>
      </contour>
      <contour>
        <pt x="287" y="340" on="1"/>
        <pt x="341" y="590" on="1"/>
        <pt x="415" y="590" on="1"/>
        <pt x="471" y="340" on="1"/>
      </contour>
      <contour>
        <pt x="410" y="485" on="1"/>
        <pt x="384" y="366" on="1"/>
        <pt x="437" y="366" on="1"/>
      </contour>
    </TTGlyph>
    <TTGlyph name="Atilde" xMin="6" yMin="-60" xMax="802" yMax="944">
      <contour>
        <pt x="133" y="700" on="1"/>
        <pt x="254" y="700" on="1"/>
        <pt x="207" y="766" on="1"/>
        <pt x="207" y="900" on="1"/>
        <pt x="260" y="944" on="0"/>
        <pt x="306" y="944" on="1"/>
        <pt x="330" y="944" on="0"/>
        <pt x="404" y="900" on="0"/>
        <pt x="430" y="900" on="1"/>
        <pt x="472" y="900" on="0"/>
        <pt x="529" y="933" on="1"/>
        <pt x="548" y="944" on="1"/>
        <pt x="598" y="884" on="1"/>
        <pt x="598" y="740" on="1"/>
        <pt x="556" y="711" on="0"/>
        <pt x="515" y="700" on="1"/>
        <pt x="623" y="700" on="1"/>
        <pt x="673" y="640" on="1"/>
        <pt x="673" y="501" on="1"/>
        <pt x="621" y="501" on="1"/>
        <pt x="658" y="311" on="1"/>
        <pt x="667" y="312" on="0"/>
        <pt x="686" y="312" on="1"/>
        <pt x="736" y="252" on="1"/>
        <pt x="748" y="180" on="1"/>
        <pt x="694" y="180" on="0"/>
        <pt x="694" y="132" on="1"/>
        <pt x="694" y="103" on="0"/>
        <pt x="701" y="103" on="1"/>
        <pt x="718" y="103" on="0"/>
        <pt x="720" y="113" on="1"/>
        <pt x="752" y="94" on="1"/>
        <pt x="802" y="34" on="1"/>
        <pt x="802" y="-14" on="0"/>
        <pt x="755" y="-60" on="0"/>
        <pt x="682" y="-60" on="0"/>
        <pt x="635" y="-35" on="1"/>
        <pt x="598" y="-60" on="0"/>
        <pt x="563" y="-60" on="1"/>
        <pt x="508" y="-60" on="0"/>
        <pt x="411" y="38" on="0"/>
        <pt x="394" y="94" on="1"/>
        <pt x="418" y="113" on="1"/>
        <pt x="426" y="103" on="0"/>
        <pt x="441" y="103" on="1"/>
        <pt x="474" y="103" on="0"/>
        <pt x="474" y="142" on="1"/>
        <pt x="471" y="165" on="1"/>
        <pt x="452" y="175" on="0"/>
        <pt x="397" y="175" on="0"/>
        <pt x="347" y="143" on="0"/>
        <pt x="338" y="113" on="1"/>
        <pt x="362" y="94" on="1"/>
        <pt x="412" y="34" on="1"/>
        <pt x="398" y="-13" on="0"/>
        <pt x="333" y="-60" on="0"/>
        <pt x="260" y="-60" on="0"/>
        <pt x="220" y="-35" on="1"/>
        <pt x="175" y="-60" on="0"/>
        <pt x="137" y="-60" on="1"/>
        <pt x="85" y="-60" on="0"/>
        <pt x="6" y="40" on="0"/>
        <pt x="6" y="94" on="1"/>
        <pt x="37" y="113" on="1"/>
        <pt x="39" y="103" on="0"/>
        <pt x="74" y="103" on="0"/>
        <pt x="107" y="151" on="0"/>
        <pt x="111" y="180" on="1"/>
        <pt x="58" y="240" on="1"/>
        <pt x="70" y="312" on="1"/>
        <pt x="113" y="312" on="0"/>
        <pt x="135" y="306" on="1"/>
        <pt x="175" y="510" on="1"/>
        <pt x="133" y="561" on="1"/>
      </contour>
      <contour>
        <pt x="504" y="278" on="1"/>
        <pt x="513" y="285" on="0"/>
        <pt x="524" y="303" on="1"/>
        <pt x="550" y="303" on="1"/>
        <pt x="566" y="284" on="0"/>
        <pt x="579" y="278" on="1"/>
        <pt x="583" y="285" on="0"/>
        <pt x="595" y="295" on="1"/>
        <pt x="538" y="590" on="1"/>
        <pt x="595" y="590" on="1"/>
        <pt x="595" y="672" on="1"/>
        <pt x="161" y="672" on="1"/>
        <pt x="161" y="590" on="1"/>
        <pt x="218" y="590" on="1"/>
        <pt x="160" y="295" on="1"/>
        <pt x="172" y="286" on="0"/>
        <pt x="178" y="278" on="1"/>
        <pt x="190" y="285" on="0"/>
        <pt x="206" y="303" on="1"/>
        <pt x="232" y="303" on="1"/>
        <pt x="240" y="284" on="0"/>
        <pt x="249" y="278" on="1"/>
        <pt x="287" y="316" on="0"/>
        <pt x="468" y="316" on="0"/>
      </contour>
      <contour>
        <pt x="582" y="61" on="1"/>
        <pt x="626" y="27" on="0"/>
        <pt x="707" y="27" on="0"/>
        <pt x="720" y="79" on="1"/>
        <pt x="715" y="75" on="0"/>
        <pt x="706" y="75" on="1"/>
        <pt x="668" y="75" on="0"/>
        <pt x="615" y="150" on="0"/>
        <pt x="615" y="184" on="1"/>
        <pt x="615" y="255" on="0"/>
        <pt x="670" y="263" on="1"/>
        <pt x="666" y="287" on="1"/>
        <pt x="647" y="287" on="0"/>
        <pt x="628" y="284" on="0"/>
        <pt x="602" y="263" on="0"/>
        <pt x="593" y="241" on="1"/>
        <pt x="570" y="245" on="0"/>
        <pt x="541" y="275" on="1"/>
        <pt x="534" y="262" on="0"/>
        <pt x="515" y="245" on="0"/>
        <pt x="503" y="241" on="1"/>
        <pt x="464" y="289" on="0"/>
        <pt x="290" y="289" on="0"/>
        <pt x="253" y="241" on="1"/>
        <pt x="230" y="245" on="0"/>
        <pt x="214" y="275" on="1"/>
        <pt x="190" y="249" on="0"/>
        <pt x="164" y="241" on="1"/>
        <pt x="155" y="263" on="0"/>
        <pt x="128" y="284" on="0"/>
        <pt x="108" y="287" on="0"/>
        <pt x="90" y="287" on="1"/>
        <pt x="86" y="263" on="1"/>
        <pt x="114" y="259" on="0"/>
        <pt x="141" y="220" on="0"/>
        <pt x="141" y="150" on="0"/>
        <pt x="88" y="75" on="0"/>
        <pt x="51" y="75" on="1"/>
        <pt x="37" y="79" on="1"/>
        <pt x="50" y="27" on="0"/>
        <pt x="129" y="27" on="0"/>
        <pt x="174" y="61" on="1"/>
        <pt x="180" y="61" on="1"/>
        <pt x="214" y="27" on="0"/>
        <pt x="248" y="27" on="1"/>
        <pt x="293" y="27" on="0"/>
        <pt x="326" y="79" on="1"/>
        <pt x="318" y="75" on="0"/>
        <pt x="308" y="75" on="1"/>
        <pt x="252" y="75" on="0"/>
        <pt x="252" y="191" on="0"/>
        <pt x="328" y="258" on="0"/>
        <pt x="428" y="258" on="0"/>
        <pt x="504" y="191" on="0"/>
        <pt x="504" y="75" on="0"/>
        <pt x="448" y="75" on="1"/>
        <pt x="429" y="79" on="1"/>
        <pt x="461" y="27" on="0"/>
        <pt x="508" y="27" on="1"/>
        <pt x="543" y="27" on="0"/>
        <pt x="576" y="61" on="1"/>
      </contour>
      <contour>
        <pt x="287" y="340" on="1"/>
        <pt x="341" y="590" on="1"/>
        <pt x="415" y="590" on="1"/>
        <pt x="471" y="340" on="1"/>
      </contour>
      <contour>
        <pt x="232" y="800" on="1"/>
        <pt x="275" y="828" on="0"/>
        <pt x="323" y="828" on="0"/>
        <pt x="401" y="784" on="0"/>
        <pt x="472" y="784" on="0"/>
        <pt x="523" y="813" on="1"/>
        <pt x="523" y="902" on="1"/>
        <pt x="472" y="872" on="0"/>
        <pt x="404" y="872" on="0"/>
        <pt x="330" y="916" on="0"/>
        <pt x="269" y="916" on="0"/>
        <pt x="232" y="888" on="1"/>
      </contour>
      <contour>
        <pt x="356" y="740" on="1"/>
        <pt x="322" y="740" on="0"/>
        <pt x="262" y="700" on="1"/>
        <pt x="454" y="700" on="1"/>
        <pt x="434" y="705" on="0"/>
        <pt x="373" y="740" on="0"/>
      </contour>
      <contour>
        <pt x="410" y="485" on="1"/>
        <pt x="384" y="366" on="1"/>
        <pt x="437" y="366" on="1"/>
      </contour>
    </TTGlyph>
    <TTGlyph name="B" xMin="12" yMin="-60" xMax="752" yMax="700">
      <contour>
        <pt x="752" y="179" on="1"/>
        <pt x="712" y="179" on="0"/>
        <pt x="690" y="147" on="0"/>
        <pt x="690" y="108" on="1"/>
        <pt x="690" y="-60" on="0"/>
        <pt x="420" y="-60" on="1"/>
        <pt x="347" y="-60" on="0"/>
        <pt x="279" y="-42" on="0"/>
        <pt x="250" y="-21" on="1"/>
        <pt x="213" y="-60" on="0"/>
        <pt x="168" y="-60" on="1"/>
        <pt x="109" y="-60" on="0"/>
        <pt x="20" y="40" on="0"/>
        <pt x="12" y="95" on="1"/>
        <pt x="39" y="113" on="1"/>
        <pt x="45" y="105" on="0"/>
        <pt x="77" y="105" on="0"/>
        <pt x="97" y="130" on="0"/>
        <pt x="101" y="157" on="0"/>
        <pt x="101" y="179" on="1"/>
        <pt x="89" y="179" on="1"/>
        <pt x="39" y="239" on="1"/>
        <pt x="39" y="312" on="1"/>
        <pt x="83" y="312" on="0"/>
        <pt x="101" y="309" on="1"/>
        <pt x="101" y="499" on="1"/>
        <pt x="90" y="499" on="1"/>
        <pt x="40" y="559" on="1"/>
        <pt x="40" y="700" on="1"/>
        <pt x="402" y="700" on="1"/>
        <pt x="518" y="700" on="0"/>
        <pt x="657" y="577" on="0"/>
        <pt x="657" y="458" on="1"/>
        <pt x="657" y="391" on="0"/>
        <pt x="620" y="340" on="1"/>
        <pt x="632" y="327" on="0"/>
        <pt x="645" y="310" on="1"/>
        <pt x="661" y="312" on="0"/>
        <pt x="702" y="312" on="1"/>
        <pt x="752" y="252" on="1"/>
      </contour>
      <contour>
        <pt x="153" y="279" on="1"/>
        <pt x="161" y="284" on="0"/>
        <pt x="176" y="303" on="1"/>
        <pt x="202" y="303" on="1"/>
        <pt x="215" y="285" on="0"/>
        <pt x="225" y="279" on="1"/>
        <pt x="239" y="296" on="0"/>
        <pt x="256" y="303" on="1"/>
        <pt x="256" y="355" on="1"/>
        <pt x="375" y="355" on="1"/>
        <pt x="447" y="355" on="0"/>
        <pt x="470" y="307" on="1"/>
        <pt x="497" y="301" on="0"/>
        <pt x="515" y="279" on="1"/>
        <pt x="525" y="287" on="0"/>
        <pt x="538" y="303" on="1"/>
        <pt x="565" y="303" on="1"/>
        <pt x="576" y="285" on="0"/>
        <pt x="588" y="279" on="1"/>
        <pt x="595" y="289" on="0"/>
        <pt x="607" y="297" on="1"/>
        <pt x="586" y="349" on="0"/>
        <pt x="523" y="388" on="1"/>
        <pt x="579" y="439" on="0"/>
        <pt x="579" y="517" on="1"/>
        <pt x="579" y="672" on="0"/>
        <pt x="392" y="672" on="1"/>
        <pt x="68" y="672" on="1"/>
        <pt x="68" y="587" on="1"/>
        <pt x="131" y="587" on="1"/>
        <pt x="131" y="298" on="1"/>
        <pt x="141" y="293" on="0"/>
      </contour>
      <contour>
        <pt x="486" y="205" on="1"/>
        <pt x="486" y="102" on="0"/>
        <pt x="253" y="102" on="0"/>
        <pt x="253" y="205" on="1"/>
        <pt x="253" y="223" on="0"/>
        <pt x="282" y="262" on="0"/>
        <pt x="315" y="262" on="1"/>
        <pt x="315" y="286" on="1"/>
        <pt x="297" y="286" on="0"/>
        <pt x="277" y="283" on="0"/>
        <pt x="247" y="262" on="0"/>
        <pt x="234" y="241" on="1"/>
        <pt x="210" y="246" on="0"/>
        <pt x="189" y="275" on="1"/>
        <pt x="169" y="249" on="0"/>
        <pt x="145" y="241" on="1"/>
        <pt x="132" y="262" on="0"/>
        <pt x="102" y="283" on="0"/>
        <pt x="82" y="286" on="0"/>
        <pt x="64" y="286" on="1"/>
        <pt x="64" y="262" on="1"/>
        <pt x="128" y="262" on="0"/>
        <pt x="128" y="179" on="1"/>
        <pt x="128" y="147" on="0"/>
        <pt x="121" y="109" on="0"/>
        <pt x="90" y="77" on="0"/>
        <pt x="60" y="77" on="1"/>
        <pt x="43" y="79" on="1"/>
        <pt x="67" y="27" on="0"/>
        <pt x="116" y="27" on="1"/>
        <pt x="139" y="27" on="0"/>
        <pt x="174" y="49" on="0"/>
        <pt x="196" y="73" on="1"/>
        <pt x="204" y="73" on="1"/>
        <pt x="231" y="49" on="0"/>
        <pt x="298" y="29" on="0"/>
        <pt x="370" y="29" on="1"/>
        <pt x="612" y="29" on="0"/>
        <pt x="612" y="169" on="1"/>
        <pt x="612" y="262" on="0"/>
        <pt x="676" y="262" on="1"/>
        <pt x="676" y="286" on="1"/>
        <pt x="658" y="286" on="0"/>
        <pt x="639" y="283" on="0"/>
        <pt x="609" y="262" on="0"/>
        <pt x="596" y="241" on="1"/>
        <pt x="573" y="246" on="0"/>
        <pt x="552" y="275" on="1"/>
        <pt x="532" y="249" on="0"/>
        <pt x="505" y="241" on="1"/>
        <pt x="492" y="262" on="0"/>
        <pt x="463" y="283" on="0"/>
        <pt x="444" y="286" on="0"/>
        <pt x="425" y="286" on="1"/>
        <pt x="425" y="262" on="1"/>
        <pt x="458" y="262" on="0"/>
        <pt x="486" y="224" on="0"/>
      </contour>
      <contour>
        <pt x="333" y="407" on="1"/>
        <pt x="256" y="407" on="1"/>
        <pt x="256" y="587" on="1"/>
        <pt x="333" y="587" on="1"/>
        <pt x="400" y="587" on="0"/>
        <pt x="447" y="549" on="0"/>
        <pt x="447" y="499" on="1"/>
        <pt x="447" y="407" on="0"/>
      </contour>
      <contour>
        <pt x="399" y="268" on="1"/>
        <pt x="377" y="268" on="1"/>
        <pt x="391" y="252" on="1"/>
        <pt x="391" y="179" on="1"/>
        <pt x="332" y="177" on="0"/>
        <pt x="332" y="140" on="1"/>
        <pt x="332" y="135" on="1"/>
        <pt x="348" y="131" on="0"/>
        <pt x="370" y="131" on="1"/>
        <pt x="443" y="131" on="0"/>
        <pt x="456" y="179" on="1"/>
        <pt x="449" y="179" on="1"/>
        <pt x="399" y="239" on="1"/>
      </contour>
      <contour>
        <pt x="334" y="500" on="1"/>
        <pt x="334" y="434" on="1"/>
        <pt x="395" y="434" on="0"/>
        <pt x="409" y="458" on="1"/>
        <pt x="419" y="475" on="0"/>
        <pt x="419" y="498" on="1"/>
        <pt x="418" y="500" on="0"/>
        <pt x="383" y="500" on="1"/>
      </contour>
    </TTGlyph>
    <TTGlyph name="C" xMin="10" yMin="-72" xMax="722" yMax="712">
      <contour>
        <pt x="484" y="278" on="1"/>
        <pt x="495" y="285" on="0"/>
        <pt x="508" y="303" on="1"/>
        <pt x="534" y="303" on="1"/>
        <pt x="547" y="284" on="0"/>
        <pt x="558" y="278" on="1"/>
        <pt x="576" y="301" on="0"/>
        <pt x="623" y="312" on="0"/>
        <pt x="672" y="312" on="1"/>
        <pt x="722" y="252" on="1"/>
        <pt x="722" y="180" on="1"/>
        <pt x="683" y="180" on="0"/>
        <pt x="661" y="150" on="0"/>
        <pt x="661" y="118" on="1"/>
        <pt x="661" y="108" on="1"/>
        <pt x="661" y="56" on="0"/>
        <pt x="612" y="-18" on="0"/>
        <pt x="570" y="-37" on="1"/>
        <pt x="493" y="-72" on="0"/>
        <pt x="391" y="-72" on="1"/>
        <pt x="266" y="-72" on="0"/>
        <pt x="175" y="-18" on="1"/>
        <pt x="128" y="9" on="0"/>
        <pt x="71" y="105" on="0"/>
        <pt x="71" y="168" on="1"/>
        <pt x="71" y="180" on="1"/>
        <pt x="60" y="180" on="1"/>
        <pt x="10" y="240" on="1"/>
        <pt x="10" y="312" on="1"/>
        <pt x="53" y="312" on="0"/>
        <pt x="71" y="309" on="1"/>
        <pt x="71" y="531" on="1"/>
        <pt x="71" y="648" on="0"/>
        <pt x="193" y="690" on="1"/>
        <pt x="255" y="712" on="0"/>
        <pt x="403" y="712" on="0"/>
        <pt x="513" y="685" on="0"/>
        <pt x="606" y="630" on="0"/>
        <pt x="660" y="534" on="0"/>
        <pt x="660" y="471" on="1"/>
        <pt x="660" y="370" on="1"/>
        <pt x="466" y="370" on="1"/>
        <pt x="416" y="430" on="1"/>
        <pt x="416" y="502" on="1"/>
        <pt x="415" y="518" on="1"/>
        <pt x="406" y="521" on="0"/>
        <pt x="389" y="521" on="1"/>
        <pt x="315" y="521" on="0"/>
        <pt x="315" y="442" on="1"/>
        <pt x="315" y="308" on="1"/>
        <pt x="362" y="252" on="1"/>
        <pt x="362" y="180" on="1"/>
        <pt x="303" y="178" on="0"/>
        <pt x="303" y="140" on="1"/>
        <pt x="303" y="132" on="1"/>
        <pt x="319" y="127" on="0"/>
        <pt x="341" y="127" on="1"/>
        <pt x="415" y="127" on="0"/>
        <pt x="427" y="180" on="1"/>
        <pt x="420" y="180" on="1"/>
        <pt x="370" y="240" on="1"/>
        <pt x="370" y="312" on="1"/>
        <pt x="404" y="312" on="0"/>
        <pt x="420" y="311" on="1"/>
        <pt x="459" y="308" on="0"/>
      </contour>
      <contour>
        <pt x="124" y="278" on="1"/>
        <pt x="134" y="286" on="0"/>
        <pt x="148" y="303" on="1"/>
        <pt x="174" y="303" on="1"/>
        <pt x="186" y="284" on="0"/>
        <pt x="198" y="278" on="1"/>
        <pt x="213" y="297" on="0"/>
        <pt x="237" y="305" on="1"/>
        <pt x="237" y="503" on="1"/>
        <pt x="237" y="555" on="0"/>
        <pt x="291" y="611" on="0"/>
        <pt x="389" y="611" on="0"/>
        <pt x="445" y="556" on="0"/>
        <pt x="445" y="503" on="1"/>
        <pt x="445" y="458" on="1"/>
        <pt x="582" y="458" on="1"/>
        <pt x="582" y="529" on="1"/>
        <pt x="582" y="584" on="0"/>
        <pt x="507" y="656" on="0"/>
        <pt x="403" y="683" on="0"/>
        <pt x="293" y="683" on="0"/>
        <pt x="212" y="667" on="0"/>
        <pt x="141" y="633" on="0"/>
        <pt x="99" y="571" on="0"/>
        <pt x="99" y="529" on="1"/>
        <pt x="99" y="299" on="1"/>
        <pt x="112" y="292" on="0"/>
      </contour>
      <contour>
        <pt x="582" y="169" on="1"/>
        <pt x="582" y="178" on="1"/>
        <pt x="582" y="263" on="0"/>
        <pt x="647" y="263" on="1"/>
        <pt x="647" y="287" on="1"/>
        <pt x="606" y="287" on="0"/>
        <pt x="586" y="267" on="1"/>
        <pt x="576" y="257" on="0"/>
        <pt x="566" y="241" on="1"/>
        <pt x="545" y="245" on="0"/>
        <pt x="522" y="275" on="1"/>
        <pt x="504" y="249" on="0"/>
        <pt x="477" y="241" on="1"/>
        <pt x="464" y="262" on="0"/>
        <pt x="433" y="284" on="0"/>
        <pt x="414" y="287" on="0"/>
        <pt x="397" y="287" on="1"/>
        <pt x="397" y="263" on="1"/>
        <pt x="428" y="263" on="0"/>
        <pt x="456" y="223" on="0"/>
        <pt x="456" y="205" on="1"/>
        <pt x="456" y="99" on="0"/>
        <pt x="226" y="99" on="0"/>
        <pt x="226" y="205" on="1"/>
        <pt x="226" y="224" on="0"/>
        <pt x="254" y="263" on="0"/>
        <pt x="285" y="263" on="1"/>
        <pt x="285" y="287" on="1"/>
        <pt x="267" y="287" on="0"/>
        <pt x="248" y="284" on="0"/>
        <pt x="218" y="263" on="0"/>
        <pt x="205" y="241" on="1"/>
        <pt x="181" y="245" on="0"/>
        <pt x="160" y="275" on="1"/>
        <pt x="140" y="249" on="0"/>
        <pt x="116" y="241" on="1"/>
        <pt x="103" y="262" on="0"/>
        <pt x="73" y="284" on="0"/>
        <pt x="53" y="287" on="0"/>
        <pt x="35" y="287" on="1"/>
        <pt x="35" y="263" on="1"/>
        <pt x="100" y="263" on="0"/>
        <pt x="100" y="178" on="1"/>
        <pt x="100" y="169" on="1"/>
        <pt x="100" y="114" on="0"/>
        <pt x="176" y="42" on="0"/>
        <pt x="279" y="15" on="0"/>
        <pt x="403" y="15" on="0"/>
        <pt x="506" y="42" on="0"/>
        <pt x="582" y="114" on="0"/>
      </contour>
    </TTGlyph>
    <TTGlyph name="Ccaron" xMin="10" yMin="-72" xMax="722" yMax="943">
      <contour>
        <pt x="484" y="278" on="1"/>
        <pt x="495" y="285" on="0"/>
        <pt x="508" y="303" on="1"/>
        <pt x="534" y="303" on="1"/>
        <pt x="547" y="284" on="0"/>
        <pt x="558" y="278" on="1"/>
        <pt x="576" y="301" on="0"/>
        <pt x="623" y="312" on="0"/>
        <pt x="672" y="312" on="1"/>
        <pt x="722" y="252" on="1"/>
        <pt x="722" y="180" on="1"/>
        <pt x="683" y="180" on="0"/>
        <pt x="661" y="150" on="0"/>
        <pt x="661" y="118" on="1"/>
        <pt x="661" y="108" on="1"/>
        <pt x="661" y="56" on="0"/>
        <pt x="612" y="-18" on="0"/>
        <pt x="570" y="-37" on="1"/>
        <pt x="493" y="-72" on="0"/>
        <pt x="391" y="-72" on="1"/>
        <pt x="266" y="-72" on="0"/>
        <pt x="175" y="-18" on="1"/>
        <pt x="128" y="9" on="0"/>
        <pt x="71" y="105" on="0"/>
        <pt x="71" y="168" on="1"/>
        <pt x="71" y="180" on="1"/>
        <pt x="60" y="180" on="1"/>
        <pt x="10" y="240" on="1"/>
        <pt x="10" y="312" on="1"/>
        <pt x="53" y="312" on="0"/>
        <pt x="71" y="309" on="1"/>
        <pt x="71" y="531" on="1"/>
        <pt x="71" y="580" on="0"/>
        <pt x="114" y="652" on="0"/>
        <pt x="151" y="672" on="1"/>
        <pt x="218" y="707" on="0"/>
        <pt x="316" y="711" on="1"/>
        <pt x="278" y="757" on="1"/>
        <pt x="158" y="943" on="1"/>
        <pt x="262" y="943" on="1"/>
        <pt x="340" y="873" on="1"/>
        <pt x="418" y="943" on="1"/>
        <pt x="522" y="943" on="1"/>
        <pt x="572" y="883" on="1"/>
        <pt x="454" y="700" on="1"/>
        <pt x="547" y="679" on="0"/>
        <pt x="660" y="565" on="0"/>
        <pt x="660" y="471" on="1"/>
        <pt x="660" y="370" on="1"/>
        <pt x="466" y="370" on="1"/>
        <pt x="416" y="430" on="1"/>
        <pt x="416" y="502" on="1"/>
        <pt x="415" y="518" on="1"/>
        <pt x="406" y="521" on="0"/>
        <pt x="389" y="521" on="1"/>
        <pt x="315" y="521" on="0"/>
        <pt x="315" y="442" on="1"/>
        <pt x="315" y="308" on="1"/>
        <pt x="362" y="252" on="1"/>
        <pt x="362" y="180" on="1"/>
        <pt x="303" y="178" on="0"/>
        <pt x="303" y="140" on="1"/>
        <pt x="303" y="132" on="1"/>
        <pt x="319" y="127" on="0"/>
        <pt x="341" y="127" on="1"/>
        <pt x="415" y="127" on="0"/>
        <pt x="427" y="180" on="1"/>
        <pt x="420" y="180" on="1"/>
        <pt x="370" y="240" on="1"/>
        <pt x="370" y="312" on="1"/>
        <pt x="404" y="312" on="0"/>
        <pt x="420" y="311" on="1"/>
        <pt x="459" y="308" on="0"/>
      </contour>
      <contour>
        <pt x="124" y="278" on="1"/>
        <pt x="134" y="286" on="0"/>
        <pt x="148" y="303" on="1"/>
        <pt x="174" y="303" on="1"/>
        <pt x="186" y="284" on="0"/>
        <pt x="198" y="278" on="1"/>
        <pt x="213" y="297" on="0"/>
        <pt x="237" y="305" on="1"/>
        <pt x="237" y="503" on="1"/>
        <pt x="237" y="555" on="0"/>
        <pt x="291" y="611" on="0"/>
        <pt x="389" y="611" on="0"/>
        <pt x="445" y="556" on="0"/>
        <pt x="445" y="503" on="1"/>
        <pt x="445" y="458" on="1"/>
        <pt x="582" y="458" on="1"/>
        <pt x="582" y="529" on="1"/>
        <pt x="582" y="584" on="0"/>
        <pt x="507" y="656" on="0"/>
        <pt x="403" y="683" on="0"/>
        <pt x="293" y="683" on="0"/>
        <pt x="212" y="667" on="0"/>
        <pt x="141" y="633" on="0"/>
        <pt x="99" y="571" on="0"/>
        <pt x="99" y="529" on="1"/>
        <pt x="99" y="299" on="1"/>
        <pt x="112" y="292" on="0"/>
      </contour>
      <contour>
        <pt x="582" y="169" on="1"/>
        <pt x="582" y="178" on="1"/>
        <pt x="582" y="263" on="0"/>
        <pt x="647" y="263" on="1"/>
        <pt x="647" y="287" on="1"/>
        <pt x="606" y="287" on="0"/>
        <pt x="586" y="267" on="1"/>
        <pt x="576" y="257" on="0"/>
        <pt x="566" y="241" on="1"/>
        <pt x="545" y="245" on="0"/>
        <pt x="522" y="275" on="1"/>
        <pt x="504" y="249" on="0"/>
        <pt x="477" y="241" on="1"/>
        <pt x="464" y="262" on="0"/>
        <pt x="433" y="284" on="0"/>
        <pt x="414" y="287" on="0"/>
        <pt x="397" y="287" on="1"/>
        <pt x="397" y="263" on="1"/>
        <pt x="428" y="263" on="0"/>
        <pt x="456" y="223" on="0"/>
        <pt x="456" y="205" on="1"/>
        <pt x="456" y="99" on="0"/>
        <pt x="226" y="99" on="0"/>
        <pt x="226" y="205" on="1"/>
        <pt x="226" y="224" on="0"/>
        <pt x="254" y="263" on="0"/>
        <pt x="285" y="263" on="1"/>
        <pt x="285" y="287" on="1"/>
        <pt x="267" y="287" on="0"/>
        <pt x="248" y="284" on="0"/>
        <pt x="218" y="263" on="0"/>
        <pt x="205" y="241" on="1"/>
        <pt x="181" y="245" on="0"/>
        <pt x="160" y="275" on="1"/>
        <pt x="140" y="249" on="0"/>
        <pt x="116" y="241" on="1"/>
        <pt x="103" y="262" on="0"/>
        <pt x="73" y="284" on="0"/>
        <pt x="53" y="287" on="0"/>
        <pt x="35" y="287" on="1"/>
        <pt x="35" y="263" on="1"/>
        <pt x="100" y="263" on="0"/>
        <pt x="100" y="178" on="1"/>
        <pt x="100" y="169" on="1"/>
        <pt x="100" y="114" on="0"/>
        <pt x="176" y="42" on="0"/>
        <pt x="279" y="15" on="0"/>
        <pt x="403" y="15" on="0"/>
        <pt x="506" y="42" on="0"/>
        <pt x="582" y="114" on="0"/>
      </contour>
      <contour>
        <pt x="381" y="784" on="1"/>
        <pt x="472" y="916" on="1"/>
        <pt x="430" y="916" on="1"/>
        <pt x="349" y="846" on="1"/>
        <pt x="331" y="846" on="1"/>
        <pt x="250" y="916" on="1"/>
        <pt x="208" y="916" on="1"/>
        <pt x="299" y="784" on="1"/>
      </contour>
    </TTGlyph>
    <TTGlyph name="Ccedilla" xMin="10" yMin="-299" xMax="722" yMax="712">
      <contour>
        <pt x="439" y="-70" on="1"/>
        <pt x="469" y="-100" on="0"/>
        <pt x="469" y="-137" on="1"/>
        <pt x="469" y="-156" on="1"/>
        <pt x="469" y="-299" on="0"/>
        <pt x="346" y="-299" on="1"/>
        <pt x="298" y="-299" on="1"/>
        <pt x="248" y="-239" on="1"/>
        <pt x="248" y="-166" on="1"/>
        <pt x="258" y="-166" on="1"/>
        <pt x="276" y="-166" on="0"/>
        <pt x="288" y="-160" on="1"/>
        <pt x="253" y="-119" on="1"/>
        <pt x="253" y="-75" on="1"/>
        <pt x="253" y="-60" on="0"/>
        <pt x="254" y="-53" on="1"/>
        <pt x="172" y="-29" on="0"/>
        <pt x="71" y="81" on="0"/>
        <pt x="71" y="168" on="1"/>
        <pt x="71" y="180" on="1"/>
        <pt x="60" y="180" on="1"/>
        <pt x="10" y="240" on="1"/>
        <pt x="10" y="312" on="1"/>
        <pt x="53" y="312" on="0"/>
        <pt x="71" y="309" on="1"/>
        <pt x="71" y="531" on="1"/>
        <pt x="71" y="648" on="0"/>
        <pt x="193" y="690" on="1"/>
        <pt x="255" y="712" on="0"/>
        <pt x="403" y="712" on="0"/>
        <pt x="513" y="685" on="0"/>
        <pt x="606" y="630" on="0"/>
        <pt x="660" y="534" on="0"/>
        <pt x="660" y="471" on="1"/>
        <pt x="660" y="370" on="1"/>
        <pt x="466" y="370" on="1"/>
        <pt x="416" y="430" on="1"/>
        <pt x="416" y="502" on="1"/>
        <pt x="415" y="518" on="1"/>
        <pt x="406" y="521" on="0"/>
        <pt x="389" y="521" on="1"/>
        <pt x="315" y="521" on="0"/>
        <pt x="315" y="442" on="1"/>
        <pt x="315" y="308" on="1"/>
        <pt x="362" y="252" on="1"/>
        <pt x="362" y="180" on="1"/>
        <pt x="303" y="178" on="0"/>
        <pt x="303" y="140" on="1"/>
        <pt x="303" y="132" on="1"/>
        <pt x="319" y="127" on="0"/>
        <pt x="341" y="127" on="1"/>
        <pt x="415" y="127" on="0"/>
        <pt x="427" y="180" on="1"/>
        <pt x="420" y="180" on="1"/>
        <pt x="370" y="240" on="1"/>
        <pt x="370" y="312" on="1"/>
        <pt x="404" y="312" on="0"/>
        <pt x="420" y="311" on="1"/>
        <pt x="459" y="308" on="0"/>
        <pt x="484" y="278" on="1"/>
        <pt x="495" y="285" on="0"/>
        <pt x="508" y="303" on="1"/>
        <pt x="534" y="303" on="1"/>
        <pt x="547" y="284" on="0"/>
        <pt x="558" y="278" on="1"/>
        <pt x="576" y="301" on="0"/>
        <pt x="623" y="312" on="0"/>
        <pt x="672" y="312" on="1"/>
        <pt x="722" y="252" on="1"/>
        <pt x="722" y="180" on="1"/>
        <pt x="683" y="180" on="0"/>
        <pt x="661" y="150" on="0"/>
        <pt x="661" y="118" on="1"/>
        <pt x="661" y="108" on="1"/>
        <pt x="661" y="16" on="0"/>
        <pt x="590" y="-26" on="1"/>
        <pt x="528" y="-62" on="0"/>
      </contour>
      <contour>
        <pt x="279" y="-75" on="1"/>
        <pt x="279" y="-94" on="1"/>
        <pt x="339" y="-94" on="1"/>
        <pt x="339" y="-119" on="1"/>
        <pt x="339" y="-147" on="0"/>
        <pt x="305" y="-190" on="0"/>
        <pt x="273" y="-190" on="1"/>
        <pt x="273" y="-215" on="1"/>
        <pt x="281" y="-215" on="1"/>
        <pt x="304" y="-215" on="0"/>
        <pt x="332" y="-210" on="0"/>
        <pt x="352" y="-200" on="1"/>
        <pt x="392" y="-180" on="0"/>
        <pt x="392" y="-97" on="1"/>
        <pt x="392" y="-91" on="1"/>
        <pt x="392" y="-66" on="0"/>
        <pt x="374" y="-54" on="0"/>
        <pt x="348" y="-54" on="1"/>
        <pt x="319" y="-54" on="1"/>
        <pt x="324" y="17" on="0"/>
        <pt x="385" y="17" on="1"/>
        <pt x="475" y="27" on="0"/>
        <pt x="582" y="101" on="0"/>
        <pt x="582" y="169" on="1"/>
        <pt x="582" y="178" on="1"/>
        <pt x="582" y="263" on="0"/>
        <pt x="647" y="263" on="1"/>
        <pt x="647" y="287" on="1"/>
        <pt x="606" y="287" on="0"/>
        <pt x="586" y="267" on="1"/>
        <pt x="576" y="257" on="0"/>
        <pt x="566" y="241" on="1"/>
        <pt x="545" y="245" on="0"/>
        <pt x="522" y="275" on="1"/>
        <pt x="504" y="249" on="0"/>
        <pt x="477" y="241" on="1"/>
        <pt x="464" y="262" on="0"/>
        <pt x="433" y="284" on="0"/>
        <pt x="414" y="287" on="0"/>
        <pt x="397" y="287" on="1"/>
        <pt x="397" y="263" on="1"/>
        <pt x="428" y="263" on="0"/>
        <pt x="456" y="223" on="0"/>
        <pt x="456" y="205" on="1"/>
        <pt x="456" y="99" on="0"/>
        <pt x="226" y="99" on="0"/>
        <pt x="226" y="205" on="1"/>
        <pt x="226" y="224" on="0"/>
        <pt x="254" y="263" on="0"/>
        <pt x="285" y="263" on="1"/>
        <pt x="285" y="287" on="1"/>
        <pt x="267" y="287" on="0"/>
        <pt x="248" y="284" on="0"/>
        <pt x="218" y="263" on="0"/>
        <pt x="205" y="241" on="1"/>
        <pt x="181" y="245" on="0"/>
        <pt x="160" y="275" on="1"/>
        <pt x="140" y="249" on="0"/>
        <pt x="116" y="241" on="1"/>
        <pt x="103" y="262" on="0"/>
        <pt x="73" y="284" on="0"/>
        <pt x="53" y="287" on="0"/>
        <pt x="35" y="287" on="1"/>
        <pt x="35" y="263" on="1"/>
        <pt x="100" y="263" on="0"/>
        <pt x="100" y="178" on="1"/>
        <pt x="100" y="169" on="1"/>
        <pt x="100" y="100" on="0"/>
        <pt x="208" y="26" on="0"/>
        <pt x="291" y="18" on="1"/>
        <pt x="311" y="16" on="1"/>
        <pt x="279" y="-13" on="0"/>
      </contour>
      <contour>
        <pt x="124" y="278" on="1"/>
        <pt x="134" y="286" on="0"/>
        <pt x="148" y="303" on="1"/>
        <pt x="174" y="303" on="1"/>
        <pt x="186" y="284" on="0"/>
        <pt x="198" y="278" on="1"/>
        <pt x="213" y="297" on="0"/>
        <pt x="237" y="305" on="1"/>
        <pt x="237" y="503" on="1"/>
        <pt x="237" y="555" on="0"/>
        <pt x="291" y="611" on="0"/>
        <pt x="389" y="611" on="0"/>
        <pt x="445" y="556" on="0"/>
        <pt x="445" y="503" on="1"/>
        <pt x="445" y="458" on="1"/>
        <pt x="582" y="458" on="1"/>
        <pt x="582" y="529" on="1"/>
        <pt x="582" y="584" on="0"/>
        <pt x="507" y="656" on="0"/>
        <pt x="403" y="683" on="0"/>
        <pt x="293" y="683" on="0"/>
        <pt x="212" y="667" on="0"/>
        <pt x="141" y="633" on="0"/>
        <pt x="99" y="571" on="0"/>
        <pt x="99" y="529" on="1"/>
        <pt x="99" y="299" on="1"/>
        <pt x="112" y="292" on="0"/>
      </contour>
    </TTGlyph>
    <TTGlyph name="D" xMin="15" yMin="-60" xMax="755" yMax="700">
      <contour>
        <pt x="692" y="458" on="1"/>
        <pt x="692" y="312" on="1"/>
        <pt x="705" y="312" on="1"/>
        <pt x="755" y="252" on="1"/>
        <pt x="755" y="179" on="1"/>
        <pt x="715" y="179" on="0"/>
        <pt x="693" y="147" on="0"/>
        <pt x="693" y="108" on="1"/>
        <pt x="693" y="-60" on="0"/>
        <pt x="423" y="-60" on="1"/>
        <pt x="350" y="-60" on="0"/>
        <pt x="282" y="-42" on="0"/>
        <pt x="253" y="-21" on="1"/>
        <pt x="216" y="-60" on="0"/>
        <pt x="171" y="-60" on="1"/>
        <pt x="112" y="-60" on="0"/>
        <pt x="23" y="40" on="0"/>
        <pt x="15" y="95" on="1"/>
        <pt x="42" y="113" on="1"/>
        <pt x="48" y="105" on="0"/>
        <pt x="80" y="105" on="0"/>
        <pt x="100" y="130" on="0"/>
        <pt x="104" y="157" on="0"/>
        <pt x="104" y="179" on="1"/>
        <pt x="92" y="179" on="1"/>
        <pt x="42" y="239" on="1"/>
        <pt x="42" y="312" on="1"/>
        <pt x="86" y="312" on="0"/>
        <pt x="104" y="309" on="1"/>
        <pt x="104" y="499" on="1"/>
        <pt x="96" y="499" on="1"/>
        <pt x="46" y="559" on="1"/>
        <pt x="46" y="700" on="1"/>
        <pt x="390" y="700" on="1"/>
        <pt x="510" y="700" on="0"/>
        <pt x="597" y="646" on="1"/>
        <pt x="641" y="618" on="0"/>
        <pt x="692" y="521" on="0"/>
      </contour>
      <contour>
        <pt x="518" y="279" on="1"/>
        <pt x="528" y="287" on="0"/>
        <pt x="541" y="303" on="1"/>
        <pt x="568" y="303" on="1"/>
        <pt x="579" y="285" on="0"/>
        <pt x="591" y="279" on="1"/>
        <pt x="601" y="292" on="0"/>
        <pt x="614" y="299" on="1"/>
        <pt x="614" y="517" on="1"/>
        <pt x="614" y="597" on="0"/>
        <pt x="486" y="672" on="0"/>
        <pt x="390" y="672" on="1"/>
        <pt x="74" y="672" on="1"/>
        <pt x="74" y="587" on="1"/>
        <pt x="134" y="587" on="1"/>
        <pt x="134" y="298" on="1"/>
        <pt x="144" y="293" on="0"/>
        <pt x="156" y="279" on="1"/>
        <pt x="164" y="284" on="0"/>
        <pt x="179" y="303" on="1"/>
        <pt x="205" y="303" on="1"/>
        <pt x="218" y="285" on="0"/>
        <pt x="228" y="279" on="1"/>
        <pt x="243" y="297" on="0"/>
        <pt x="262" y="304" on="1"/>
        <pt x="262" y="587" on="1"/>
        <pt x="372" y="587" on="1"/>
        <pt x="422" y="587" on="0"/>
        <pt x="482" y="535" on="0"/>
        <pt x="482" y="486" on="1"/>
        <pt x="482" y="305" on="1"/>
        <pt x="503" y="297" on="0"/>
      </contour>
      <contour>
        <pt x="489" y="205" on="1"/>
        <pt x="489" y="102" on="0"/>
        <pt x="256" y="102" on="0"/>
        <pt x="256" y="205" on="1"/>
        <pt x="256" y="223" on="0"/>
        <pt x="285" y="262" on="0"/>
        <pt x="318" y="262" on="1"/>
        <pt x="318" y="286" on="1"/>
        <pt x="300" y="286" on="0"/>
        <pt x="280" y="283" on="0"/>
        <pt x="250" y="262" on="0"/>
        <pt x="237" y="241" on="1"/>
        <pt x="213" y="246" on="0"/>
        <pt x="192" y="275" on="1"/>
        <pt x="172" y="249" on="0"/>
        <pt x="148" y="241" on="1"/>
        <pt x="135" y="262" on="0"/>
        <pt x="105" y="283" on="0"/>
        <pt x="85" y="286" on="0"/>
        <pt x="67" y="286" on="1"/>
        <pt x="67" y="262" on="1"/>
        <pt x="131" y="262" on="0"/>
        <pt x="131" y="179" on="1"/>
        <pt x="131" y="147" on="0"/>
        <pt x="124" y="109" on="0"/>
        <pt x="93" y="77" on="0"/>
        <pt x="63" y="77" on="1"/>
        <pt x="46" y="79" on="1"/>
        <pt x="70" y="27" on="0"/>
        <pt x="119" y="27" on="1"/>
        <pt x="142" y="27" on="0"/>
        <pt x="177" y="49" on="0"/>
        <pt x="199" y="73" on="1"/>
        <pt x="207" y="73" on="1"/>
        <pt x="234" y="49" on="0"/>
        <pt x="301" y="29" on="0"/>
        <pt x="373" y="29" on="1"/>
        <pt x="615" y="29" on="0"/>
        <pt x="615" y="169" on="1"/>
        <pt x="615" y="262" on="0"/>
        <pt x="679" y="262" on="1"/>
        <pt x="679" y="286" on="1"/>
        <pt x="661" y="286" on="0"/>
        <pt x="642" y="283" on="0"/>
        <pt x="612" y="262" on="0"/>
        <pt x="599" y="241" on="1"/>
        <pt x="576" y="246" on="0"/>
        <pt x="555" y="275" on="1"/>
        <pt x="535" y="249" on="0"/>
        <pt x="508" y="241" on="1"/>
        <pt x="495" y="262" on="0"/>
        <pt x="466" y="283" on="0"/>
        <pt x="447" y="286" on="0"/>
        <pt x="428" y="286" on="1"/>
        <pt x="428" y="262" on="1"/>
        <pt x="461" y="262" on="0"/>
        <pt x="489" y="224" on="0"/>
      </contour>
      <contour>
        <pt x="402" y="312" on="1"/>
        <pt x="439" y="312" on="0"/>
        <pt x="454" y="310" on="1"/>
        <pt x="454" y="482" on="1"/>
        <pt x="453" y="495" on="1"/>
        <pt x="441" y="499" on="0"/>
        <pt x="422" y="499" on="1"/>
        <pt x="340" y="499" on="1"/>
        <pt x="340" y="312" on="1"/>
        <pt x="344" y="312" on="1"/>
        <pt x="394" y="252" on="1"/>
        <pt x="394" y="179" on="1"/>
        <pt x="335" y="177" on="0"/>
        <pt x="335" y="140" on="1"/>
        <pt x="335" y="135" on="1"/>
        <pt x="351" y="131" on="0"/>
        <pt x="373" y="131" on="1"/>
        <pt x="446" y="131" on="0"/>
        <pt x="459" y="179" on="1"/>
        <pt x="452" y="179" on="1"/>
        <pt x="402" y="239" on="1"/>
      </contour>
    </TTGlyph>
    <TTGlyph name="E" xMin="23" yMin="-60" xMax="635" yMax="700">
      <contour>
        <pt x="617" y="13" on="1"/>
        <pt x="617" y="-22" on="0"/>
        <pt x="635" y="-33" on="1"/>
        <pt x="617" y="-60" on="1"/>
        <pt x="591" y="-60" on="0"/>
        <pt x="534" y="-34" on="0"/>
        <pt x="518" y="-19" on="1"/>
        <pt x="501" y="-34" on="0"/>
        <pt x="420" y="-60" on="0"/>
        <pt x="384" y="-60" on="1"/>
        <pt x="311" y="-60" on="0"/>
        <pt x="265" y="-21" on="1"/>
        <pt x="224" y="-60" on="0"/>
        <pt x="119" y="-60" on="0"/>
        <pt x="30" y="41" on="0"/>
        <pt x="23" y="95" on="1"/>
        <pt x="51" y="113" on="1"/>
        <pt x="56" y="105" on="0"/>
        <pt x="71" y="105" on="1"/>
        <pt x="111" y="105" on="0"/>
        <pt x="111" y="179" on="1"/>
        <pt x="101" y="179" on="1"/>
        <pt x="51" y="239" on="1"/>
        <pt x="51" y="312" on="1"/>
        <pt x="93" y="312" on="0"/>
        <pt x="110" y="309" on="1"/>
        <pt x="110" y="499" on="1"/>
        <pt x="82" y="499" on="1"/>
        <pt x="32" y="559" on="1"/>
        <pt x="32" y="700" on="1"/>
        <pt x="569" y="700" on="1"/>
        <pt x="619" y="640" on="1"/>
        <pt x="619" y="396" on="1"/>
        <pt x="503" y="396" on="1"/>
        <pt x="453" y="456" on="1"/>
        <pt x="453" y="499" on="1"/>
        <pt x="346" y="499" on="1"/>
        <pt x="346" y="441" on="1"/>
        <pt x="417" y="441" on="1"/>
        <pt x="467" y="381" on="1"/>
        <pt x="467" y="265" on="1"/>
        <pt x="392" y="265" on="1"/>
        <pt x="403" y="252" on="1"/>
        <pt x="403" y="179" on="1"/>
        <pt x="387" y="178" on="0"/>
        <pt x="367" y="175" on="0"/>
        <pt x="345" y="157" on="0"/>
        <pt x="345" y="140" on="1"/>
        <pt x="345" y="136" on="1"/>
        <pt x="359" y="131" on="0"/>
        <pt x="411" y="131" on="0"/>
        <pt x="457" y="163" on="0"/>
        <pt x="457" y="192" on="1"/>
        <pt x="457" y="197" on="0"/>
        <pt x="451" y="221" on="1"/>
        <pt x="451" y="253" on="1"/>
        <pt x="567" y="253" on="1"/>
        <pt x="617" y="193" on="1"/>
      </contour>
      <contour>
        <pt x="165" y="279" on="1"/>
        <pt x="175" y="285" on="0"/>
        <pt x="189" y="303" on="1"/>
        <pt x="216" y="303" on="1"/>
        <pt x="229" y="285" on="0"/>
        <pt x="239" y="279" on="1"/>
        <pt x="250" y="293" on="0"/>
        <pt x="266" y="301" on="1"/>
        <pt x="266" y="353" on="1"/>
        <pt x="389" y="353" on="1"/>
        <pt x="389" y="413" on="1"/>
        <pt x="266" y="413" on="1"/>
        <pt x="266" y="587" on="1"/>
        <pt x="481" y="587" on="1"/>
        <pt x="481" y="484" on="1"/>
        <pt x="541" y="484" on="1"/>
        <pt x="541" y="672" on="1"/>
        <pt x="60" y="672" on="1"/>
        <pt x="60" y="587" on="1"/>
        <pt x="140" y="587" on="1"/>
        <pt x="140" y="300" on="1"/>
        <pt x="153" y="293" on="0"/>
      </contour>
      <contour>
        <pt x="484" y="188" on="1"/>
        <pt x="484" y="148" on="0"/>
        <pt x="423" y="102" on="0"/>
        <pt x="335" y="102" on="0"/>
        <pt x="266" y="153" on="0"/>
        <pt x="266" y="205" on="1"/>
        <pt x="266" y="223" on="0"/>
        <pt x="295" y="262" on="0"/>
        <pt x="327" y="262" on="1"/>
        <pt x="327" y="286" on="1"/>
        <pt x="309" y="286" on="0"/>
        <pt x="290" y="283" on="0"/>
        <pt x="260" y="262" on="0"/>
        <pt x="248" y="241" on="1"/>
        <pt x="224" y="246" on="0"/>
        <pt x="202" y="275" on="1"/>
        <pt x="184" y="249" on="0"/>
        <pt x="157" y="241" on="1"/>
        <pt x="144" y="262" on="0"/>
        <pt x="114" y="283" on="0"/>
        <pt x="95" y="286" on="0"/>
        <pt x="77" y="286" on="1"/>
        <pt x="77" y="262" on="1"/>
        <pt x="111" y="262" on="0"/>
        <pt x="142" y="215" on="0"/>
        <pt x="142" y="131" on="0"/>
        <pt x="115" y="77" on="0"/>
        <pt x="72" y="77" on="1"/>
        <pt x="58" y="79" on="1"/>
        <pt x="76" y="28" on="0"/>
        <pt x="166" y="28" on="0"/>
        <pt x="209" y="73" on="1"/>
        <pt x="218" y="73" on="1"/>
        <pt x="222" y="69" on="1"/>
        <pt x="270" y="29" on="0"/>
        <pt x="407" y="29" on="0"/>
        <pt x="468" y="76" on="1"/>
        <pt x="477" y="67" on="0"/>
        <pt x="533" y="34" on="0"/>
        <pt x="549" y="31" on="1"/>
        <pt x="540" y="41" on="0"/>
        <pt x="540" y="83" on="1"/>
        <pt x="540" y="223" on="1"/>
        <pt x="479" y="223" on="1"/>
        <pt x="484" y="206" on="0"/>
      </contour>
    </TTGlyph>
    <TTGlyph name="Eacute" xMin="23" yMin="-60" xMax="635" yMax="943">
      <contour>
        <pt x="617" y="13" on="1"/>
        <pt x="617" y="-22" on="0"/>
        <pt x="635" y="-33" on="1"/>
        <pt x="617" y="-60" on="1"/>
        <pt x="591" y="-60" on="0"/>
        <pt x="534" y="-34" on="0"/>
        <pt x="518" y="-19" on="1"/>
        <pt x="501" y="-34" on="0"/>
        <pt x="420" y="-60" on="0"/>
        <pt x="384" y="-60" on="1"/>
        <pt x="311" y="-60" on="0"/>
        <pt x="265" y="-21" on="1"/>
        <pt x="224" y="-60" on="0"/>
        <pt x="119" y="-60" on="0"/>
        <pt x="30" y="41" on="0"/>
        <pt x="23" y="95" on="1"/>
        <pt x="51" y="113" on="1"/>
        <pt x="56" y="105" on="0"/>
        <pt x="71" y="105" on="1"/>
        <pt x="111" y="105" on="0"/>
        <pt x="111" y="179" on="1"/>
        <pt x="101" y="179" on="1"/>
        <pt x="51" y="239" on="1"/>
        <pt x="51" y="312" on="1"/>
        <pt x="93" y="312" on="0"/>
        <pt x="110" y="309" on="1"/>
        <pt x="110" y="499" on="1"/>
        <pt x="82" y="499" on="1"/>
        <pt x="32" y="559" on="1"/>
        <pt x="32" y="700" on="1"/>
        <pt x="569" y="700" on="1"/>
        <pt x="619" y="640" on="1"/>
        <pt x="619" y="396" on="1"/>
        <pt x="503" y="396" on="1"/>
        <pt x="453" y="456" on="1"/>
        <pt x="453" y="499" on="1"/>
        <pt x="346" y="499" on="1"/>
        <pt x="346" y="441" on="1"/>
        <pt x="417" y="441" on="1"/>
        <pt x="467" y="381" on="1"/>
        <pt x="467" y="265" on="1"/>
        <pt x="392" y="265" on="1"/>
        <pt x="403" y="252" on="1"/>
        <pt x="403" y="179" on="1"/>
        <pt x="387" y="178" on="0"/>
        <pt x="367" y="175" on="0"/>
        <pt x="345" y="157" on="0"/>
        <pt x="345" y="140" on="1"/>
        <pt x="345" y="136" on="1"/>
        <pt x="359" y="131" on="0"/>
        <pt x="411" y="131" on="0"/>
        <pt x="457" y="163" on="0"/>
        <pt x="457" y="192" on="1"/>
        <pt x="457" y="197" on="0"/>
        <pt x="451" y="221" on="1"/>
        <pt x="451" y="253" on="1"/>
        <pt x="567" y="253" on="1"/>
        <pt x="617" y="193" on="1"/>
      </contour>
      <contour>
        <pt x="165" y="279" on="1"/>
        <pt x="175" y="285" on="0"/>
        <pt x="189" y="303" on="1"/>
        <pt x="216" y="303" on="1"/>
        <pt x="229" y="285" on="0"/>
        <pt x="239" y="279" on="1"/>
        <pt x="250" y="293" on="0"/>
        <pt x="266" y="301" on="1"/>
        <pt x="266" y="353" on="1"/>
        <pt x="389" y="353" on="1"/>
        <pt x="389" y="413" on="1"/>
        <pt x="266" y="413" on="1"/>
        <pt x="266" y="587" on="1"/>
        <pt x="481" y="587" on="1"/>
        <pt x="481" y="484" on="1"/>
        <pt x="541" y="484" on="1"/>
        <pt x="541" y="672" on="1"/>
        <pt x="60" y="672" on="1"/>
        <pt x="60" y="587" on="1"/>
        <pt x="140" y="587" on="1"/>
        <pt x="140" y="300" on="1"/>
        <pt x="153" y="293" on="0"/>
      </contour>
      <contour>
        <pt x="484" y="188" on="1"/>
        <pt x="484" y="148" on="0"/>
        <pt x="423" y="102" on="0"/>
        <pt x="335" y="102" on="0"/>
        <pt x="266" y="153" on="0"/>
        <pt x="266" y="205" on="1"/>
        <pt x="266" y="223" on="0"/>
        <pt x="295" y="262" on="0"/>
        <pt x="327" y="262" on="1"/>
        <pt x="327" y="286" on="1"/>
        <pt x="309" y="286" on="0"/>
        <pt x="290" y="283" on="0"/>
        <pt x="260" y="262" on="0"/>
        <pt x="248" y="241" on="1"/>
        <pt x="224" y="246" on="0"/>
        <pt x="202" y="275" on="1"/>
        <pt x="184" y="249" on="0"/>
        <pt x="157" y="241" on="1"/>
        <pt x="144" y="262" on="0"/>
        <pt x="114" y="283" on="0"/>
        <pt x="95" y="286" on="0"/>
        <pt x="77" y="286" on="1"/>
        <pt x="77" y="262" on="1"/>
        <pt x="111" y="262" on="0"/>
        <pt x="142" y="215" on="0"/>
        <pt x="142" y="131" on="0"/>
        <pt x="115" y="77" on="0"/>
        <pt x="72" y="77" on="1"/>
        <pt x="58" y="79" on="1"/>
        <pt x="76" y="28" on="0"/>
        <pt x="166" y="28" on="0"/>
        <pt x="209" y="73" on="1"/>
        <pt x="218" y="73" on="1"/>
        <pt x="222" y="69" on="1"/>
        <pt x="270" y="29" on="0"/>
        <pt x="407" y="29" on="0"/>
        <pt x="468" y="76" on="1"/>
        <pt x="477" y="67" on="0"/>
        <pt x="533" y="34" on="0"/>
        <pt x="549" y="31" on="1"/>
        <pt x="540" y="41" on="0"/>
        <pt x="540" y="83" on="1"/>
        <pt x="540" y="223" on="1"/>
        <pt x="479" y="223" on="1"/>
        <pt x="484" y="206" on="0"/>
      </contour>
      <contour>
        <pt x="394" y="723" on="1"/>
        <pt x="276" y="723" on="1"/>
        <pt x="221" y="783" on="1"/>
        <pt x="286" y="943" on="1"/>
        <pt x="404" y="943" on="1"/>
        <pt x="454" y="883" on="1"/>
      </contour>
      <contour>
        <pt x="262" y="808" on="1"/>
        <pt x="323" y="808" on="1"/>
        <pt x="368" y="918" on="1"/>
        <pt x="306" y="918" on="1"/>
      </contour>
    </TTGlyph>
    <TTGlyph name="Ecircumflex" xMin="23" yMin="-60" xMax="635" yMax="943">
      <contour>
        <pt x="619" y="396" on="1"/>
        <pt x="503" y="396" on="1"/>
        <pt x="453" y="456" on="1"/>
        <pt x="453" y="499" on="1"/>
        <pt x="346" y="499" on="1"/>
        <pt x="346" y="441" on="1"/>
        <pt x="417" y="441" on="1"/>
        <pt x="467" y="381" on="1"/>
        <pt x="467" y="265" on="1"/>
        <pt x="392" y="265" on="1"/>
        <pt x="403" y="252" on="1"/>
        <pt x="403" y="179" on="1"/>
        <pt x="387" y="178" on="0"/>
        <pt x="367" y="175" on="0"/>
        <pt x="345" y="157" on="0"/>
        <pt x="345" y="140" on="1"/>
        <pt x="345" y="136" on="1"/>
        <pt x="359" y="131" on="0"/>
        <pt x="411" y="131" on="0"/>
        <pt x="457" y="163" on="0"/>
        <pt x="457" y="192" on="1"/>
        <pt x="457" y="197" on="0"/>
        <pt x="451" y="221" on="1"/>
        <pt x="451" y="253" on="1"/>
        <pt x="567" y="253" on="1"/>
        <pt x="617" y="193" on="1"/>
        <pt x="617" y="13" on="1"/>
        <pt x="617" y="-22" on="0"/>
        <pt x="635" y="-33" on="1"/>
        <pt x="617" y="-60" on="1"/>
        <pt x="591" y="-60" on="0"/>
        <pt x="534" y="-34" on="0"/>
        <pt x="518" y="-19" on="1"/>
        <pt x="501" y="-34" on="0"/>
        <pt x="420" y="-60" on="0"/>
        <pt x="384" y="-60" on="1"/>
        <pt x="311" y="-60" on="0"/>
        <pt x="265" y="-21" on="1"/>
        <pt x="224" y="-60" on="0"/>
        <pt x="119" y="-60" on="0"/>
        <pt x="30" y="41" on="0"/>
        <pt x="23" y="95" on="1"/>
        <pt x="51" y="113" on="1"/>
        <pt x="56" y="105" on="0"/>
        <pt x="71" y="105" on="1"/>
        <pt x="111" y="105" on="0"/>
        <pt x="111" y="179" on="1"/>
        <pt x="101" y="179" on="1"/>
        <pt x="51" y="239" on="1"/>
        <pt x="51" y="312" on="1"/>
        <pt x="93" y="312" on="0"/>
        <pt x="110" y="309" on="1"/>
        <pt x="110" y="499" on="1"/>
        <pt x="82" y="499" on="1"/>
        <pt x="32" y="559" on="1"/>
        <pt x="32" y="700" on="1"/>
        <pt x="168" y="700" on="1"/>
        <pt x="121" y="757" on="1"/>
        <pt x="241" y="943" on="1"/>
        <pt x="365" y="943" on="1"/>
        <pt x="415" y="883" on="1"/>
        <pt x="533" y="700" on="1"/>
        <pt x="569" y="700" on="1"/>
        <pt x="619" y="640" on="1"/>
      </contour>
      <contour>
        <pt x="165" y="279" on="1"/>
        <pt x="175" y="285" on="0"/>
        <pt x="189" y="303" on="1"/>
        <pt x="216" y="303" on="1"/>
        <pt x="229" y="285" on="0"/>
        <pt x="239" y="279" on="1"/>
        <pt x="250" y="293" on="0"/>
        <pt x="266" y="301" on="1"/>
        <pt x="266" y="353" on="1"/>
        <pt x="389" y="353" on="1"/>
        <pt x="389" y="413" on="1"/>
        <pt x="266" y="413" on="1"/>
        <pt x="266" y="587" on="1"/>
        <pt x="481" y="587" on="1"/>
        <pt x="481" y="484" on="1"/>
        <pt x="541" y="484" on="1"/>
        <pt x="541" y="672" on="1"/>
        <pt x="60" y="672" on="1"/>
        <pt x="60" y="587" on="1"/>
        <pt x="140" y="587" on="1"/>
        <pt x="140" y="300" on="1"/>
        <pt x="153" y="293" on="0"/>
      </contour>
      <contour>
        <pt x="484" y="188" on="1"/>
        <pt x="484" y="148" on="0"/>
        <pt x="423" y="102" on="0"/>
        <pt x="335" y="102" on="0"/>
        <pt x="266" y="153" on="0"/>
        <pt x="266" y="205" on="1"/>
        <pt x="266" y="223" on="0"/>
        <pt x="295" y="262" on="0"/>
        <pt x="327" y="262" on="1"/>
        <pt x="327" y="286" on="1"/>
        <pt x="309" y="286" on="0"/>
        <pt x="290" y="283" on="0"/>
        <pt x="260" y="262" on="0"/>
        <pt x="248" y="241" on="1"/>
        <pt x="224" y="246" on="0"/>
        <pt x="202" y="275" on="1"/>
        <pt x="184" y="249" on="0"/>
        <pt x="157" y="241" on="1"/>
        <pt x="144" y="262" on="0"/>
        <pt x="114" y="283" on="0"/>
        <pt x="95" y="286" on="0"/>
        <pt x="77" y="286" on="1"/>
        <pt x="77" y="262" on="1"/>
        <pt x="111" y="262" on="0"/>
        <pt x="142" y="215" on="0"/>
        <pt x="142" y="131" on="0"/>
        <pt x="115" y="77" on="0"/>
        <pt x="72" y="77" on="1"/>
        <pt x="58" y="79" on="1"/>
        <pt x="76" y="28" on="0"/>
        <pt x="166" y="28" on="0"/>
        <pt x="209" y="73" on="1"/>
        <pt x="218" y="73" on="1"/>
        <pt x="222" y="69" on="1"/>
        <pt x="270" y="29" on="0"/>
        <pt x="407" y="29" on="0"/>
        <pt x="468" y="76" on="1"/>
        <pt x="477" y="67" on="0"/>
        <pt x="533" y="34" on="0"/>
        <pt x="549" y="31" on="1"/>
        <pt x="540" y="41" on="0"/>
        <pt x="540" y="83" on="1"/>
        <pt x="540" y="223" on="1"/>
        <pt x="479" y="223" on="1"/>
        <pt x="484" y="206" on="0"/>
      </contour>
      <contour>
        <pt x="262" y="916" on="1"/>
        <pt x="171" y="784" on="1"/>
        <pt x="213" y="784" on="1"/>
        <pt x="294" y="854" on="1"/>
        <pt x="312" y="854" on="1"/>
        <pt x="393" y="784" on="1"/>
        <pt x="435" y="784" on="1"/>
        <pt x="344" y="916" on="1"/>
      </contour>
      <contour>
        <pt x="353" y="767" on="1"/>
        <pt x="278" y="700" on="1"/>
        <pt x="427" y="700" on="1"/>
      </contour>
    </TTGlyph>
    <TTGlyph name="Edieresis" xMin="23" yMin="-60" xMax="635" yMax="943">
      <contour>
        <pt x="617" y="13" on="1"/>
        <pt x="617" y="-22" on="0"/>
        <pt x="635" y="-33" on="1"/>
        <pt x="617" y="-60" on="1"/>
        <pt x="591" y="-60" on="0"/>
        <pt x="534" y="-34" on="0"/>
        <pt x="518" y="-19" on="1"/>
        <pt x="501" y="-34" on="0"/>
        <pt x="420" y="-60" on="0"/>
        <pt x="384" y="-60" on="1"/>
        <pt x="311" y="-60" on="0"/>
        <pt x="265" y="-21" on="1"/>
        <pt x="224" y="-60" on="0"/>
        <pt x="119" y="-60" on="0"/>
        <pt x="30" y="41" on="0"/>
        <pt x="23" y="95" on="1"/>
        <pt x="51" y="113" on="1"/>
        <pt x="56" y="105" on="0"/>
        <pt x="71" y="105" on="1"/>
        <pt x="111" y="105" on="0"/>
        <pt x="111" y="179" on="1"/>
        <pt x="101" y="179" on="1"/>
        <pt x="51" y="239" on="1"/>
        <pt x="51" y="312" on="1"/>
        <pt x="93" y="312" on="0"/>
        <pt x="110" y="309" on="1"/>
        <pt x="110" y="499" on="1"/>
        <pt x="82" y="499" on="1"/>
        <pt x="32" y="559" on="1"/>
        <pt x="32" y="700" on="1"/>
        <pt x="569" y="700" on="1"/>
        <pt x="619" y="640" on="1"/>
        <pt x="619" y="396" on="1"/>
        <pt x="503" y="396" on="1"/>
        <pt x="453" y="456" on="1"/>
        <pt x="453" y="499" on="1"/>
        <pt x="346" y="499" on="1"/>
        <pt x="346" y="441" on="1"/>
        <pt x="417" y="441" on="1"/>
        <pt x="467" y="381" on="1"/>
        <pt x="467" y="265" on="1"/>
        <pt x="392" y="265" on="1"/>
        <pt x="403" y="252" on="1"/>
        <pt x="403" y="179" on="1"/>
        <pt x="387" y="178" on="0"/>
        <pt x="367" y="175" on="0"/>
        <pt x="345" y="157" on="0"/>
        <pt x="345" y="140" on="1"/>
        <pt x="345" y="136" on="1"/>
        <pt x="359" y="131" on="0"/>
        <pt x="411" y="131" on="0"/>
        <pt x="457" y="163" on="0"/>
        <pt x="457" y="192" on="1"/>
        <pt x="457" y="197" on="0"/>
        <pt x="451" y="221" on="1"/>
        <pt x="451" y="253" on="1"/>
        <pt x="567" y="253" on="1"/>
        <pt x="617" y="193" on="1"/>
      </contour>
      <contour>
        <pt x="165" y="279" on="1"/>
        <pt x="175" y="285" on="0"/>
        <pt x="189" y="303" on="1"/>
        <pt x="216" y="303" on="1"/>
        <pt x="229" y="285" on="0"/>
        <pt x="239" y="279" on="1"/>
        <pt x="250" y="293" on="0"/>
        <pt x="266" y="301" on="1"/>
        <pt x="266" y="353" on="1"/>
        <pt x="389" y="353" on="1"/>
        <pt x="389" y="413" on="1"/>
        <pt x="266" y="413" on="1"/>
        <pt x="266" y="587" on="1"/>
        <pt x="481" y="587" on="1"/>
        <pt x="481" y="484" on="1"/>
        <pt x="541" y="484" on="1"/>
        <pt x="541" y="672" on="1"/>
        <pt x="60" y="672" on="1"/>
        <pt x="60" y="587" on="1"/>
        <pt x="140" y="587" on="1"/>
        <pt x="140" y="300" on="1"/>
        <pt x="153" y="293" on="0"/>
      </contour>
      <contour>
        <pt x="484" y="188" on="1"/>
        <pt x="484" y="148" on="0"/>
        <pt x="423" y="102" on="0"/>
        <pt x="335" y="102" on="0"/>
        <pt x="266" y="153" on="0"/>
        <pt x="266" y="205" on="1"/>
        <pt x="266" y="223" on="0"/>
        <pt x="295" y="262" on="0"/>
        <pt x="327" y="262" on="1"/>
        <pt x="327" y="286" on="1"/>
        <pt x="309" y="286" on="0"/>
        <pt x="290" y="283" on="0"/>
        <pt x="260" y="262" on="0"/>
        <pt x="248" y="241" on="1"/>
        <pt x="224" y="246" on="0"/>
        <pt x="202" y="275" on="1"/>
        <pt x="184" y="249" on="0"/>
        <pt x="157" y="241" on="1"/>
        <pt x="144" y="262" on="0"/>
        <pt x="114" y="283" on="0"/>
        <pt x="95" y="286" on="0"/>
        <pt x="77" y="286" on="1"/>
        <pt x="77" y="262" on="1"/>
        <pt x="111" y="262" on="0"/>
        <pt x="142" y="215" on="0"/>
        <pt x="142" y="131" on="0"/>
        <pt x="115" y="77" on="0"/>
        <pt x="72" y="77" on="1"/>
        <pt x="58" y="79" on="1"/>
        <pt x="76" y="28" on="0"/>
        <pt x="166" y="28" on="0"/>
        <pt x="209" y="73" on="1"/>
        <pt x="218" y="73" on="1"/>
        <pt x="222" y="69" on="1"/>
        <pt x="270" y="29" on="0"/>
        <pt x="407" y="29" on="0"/>
        <pt x="468" y="76" on="1"/>
        <pt x="477" y="67" on="0"/>
        <pt x="533" y="34" on="0"/>
        <pt x="549" y="31" on="1"/>
        <pt x="540" y="41" on="0"/>
        <pt x="540" y="83" on="1"/>
        <pt x="540" y="223" on="1"/>
        <pt x="479" y="223" on="1"/>
        <pt x="484" y="206" on="0"/>
      </contour>
      <contour>
        <pt x="318" y="825" on="1"/>
        <pt x="318" y="783" on="1"/>
        <pt x="318" y="754" on="0"/>
        <pt x="266" y="725" on="0"/>
        <pt x="235" y="725" on="1"/>
        <pt x="190" y="725" on="0"/>
        <pt x="112" y="808" on="0"/>
        <pt x="112" y="843" on="1"/>
        <pt x="112" y="885" on="1"/>
        <pt x="112" y="914" on="0"/>
        <pt x="164" y="943" on="0"/>
        <pt x="195" y="943" on="1"/>
        <pt x="243" y="943" on="0"/>
        <pt x="318" y="872" on="0"/>
      </contour>
      <contour>
        <pt x="139" y="812" on="0"/>
        <pt x="251" y="812" on="0"/>
        <pt x="251" y="857" on="1"/>
        <pt x="251" y="871" on="1"/>
        <pt x="251" y="916" on="0"/>
        <pt x="139" y="916" on="0"/>
        <pt x="139" y="871" on="1"/>
        <pt x="139" y="857" on="1"/>
      </contour>
      <contour>
        <pt x="544" y="825" on="1"/>
        <pt x="544" y="783" on="1"/>
        <pt x="544" y="754" on="0"/>
        <pt x="492" y="725" on="0"/>
        <pt x="461" y="725" on="1"/>
        <pt x="416" y="725" on="0"/>
        <pt x="338" y="808" on="0"/>
        <pt x="338" y="843" on="1"/>
        <pt x="338" y="885" on="1"/>
        <pt x="338" y="914" on="0"/>
        <pt x="390" y="943" on="0"/>
        <pt x="421" y="943" on="1"/>
        <pt x="469" y="943" on="0"/>
        <pt x="544" y="872" on="0"/>
      </contour>
      <contour>
        <pt x="365" y="812" on="0"/>
        <pt x="477" y="812" on="0"/>
        <pt x="477" y="857" on="1"/>
        <pt x="477" y="871" on="1"/>
        <pt x="477" y="916" on="0"/>
        <pt x="365" y="916" on="0"/>
        <pt x="365" y="871" on="1"/>
        <pt x="365" y="857" on="1"/>
      </contour>
    </TTGlyph>
    <TTGlyph name="Egrave" xMin="23" yMin="-60" xMax="635" yMax="943">
      <contour>
        <pt x="617" y="13" on="1"/>
        <pt x="617" y="-22" on="0"/>
        <pt x="635" y="-33" on="1"/>
        <pt x="617" y="-60" on="1"/>
        <pt x="591" y="-60" on="0"/>
        <pt x="534" y="-34" on="0"/>
        <pt x="518" y="-19" on="1"/>
        <pt x="501" y="-34" on="0"/>
        <pt x="420" y="-60" on="0"/>
        <pt x="384" y="-60" on="1"/>
        <pt x="311" y="-60" on="0"/>
        <pt x="265" y="-21" on="1"/>
        <pt x="224" y="-60" on="0"/>
        <pt x="119" y="-60" on="0"/>
        <pt x="30" y="41" on="0"/>
        <pt x="23" y="95" on="1"/>
        <pt x="51" y="113" on="1"/>
        <pt x="56" y="105" on="0"/>
        <pt x="71" y="105" on="1"/>
        <pt x="111" y="105" on="0"/>
        <pt x="111" y="179" on="1"/>
        <pt x="101" y="179" on="1"/>
        <pt x="51" y="239" on="1"/>
        <pt x="51" y="312" on="1"/>
        <pt x="93" y="312" on="0"/>
        <pt x="110" y="309" on="1"/>
        <pt x="110" y="499" on="1"/>
        <pt x="82" y="499" on="1"/>
        <pt x="32" y="559" on="1"/>
        <pt x="32" y="700" on="1"/>
        <pt x="569" y="700" on="1"/>
        <pt x="619" y="640" on="1"/>
        <pt x="619" y="396" on="1"/>
        <pt x="503" y="396" on="1"/>
        <pt x="453" y="456" on="1"/>
        <pt x="453" y="499" on="1"/>
        <pt x="346" y="499" on="1"/>
        <pt x="346" y="441" on="1"/>
        <pt x="417" y="441" on="1"/>
        <pt x="467" y="381" on="1"/>
        <pt x="467" y="265" on="1"/>
        <pt x="392" y="265" on="1"/>
        <pt x="403" y="252" on="1"/>
        <pt x="403" y="179" on="1"/>
        <pt x="387" y="178" on="0"/>
        <pt x="367" y="175" on="0"/>
        <pt x="345" y="157" on="0"/>
        <pt x="345" y="140" on="1"/>
        <pt x="345" y="136" on="1"/>
        <pt x="359" y="131" on="0"/>
        <pt x="411" y="131" on="0"/>
        <pt x="457" y="163" on="0"/>
        <pt x="457" y="192" on="1"/>
        <pt x="457" y="197" on="0"/>
        <pt x="451" y="221" on="1"/>
        <pt x="451" y="253" on="1"/>
        <pt x="567" y="253" on="1"/>
        <pt x="617" y="193" on="1"/>
      </contour>
      <contour>
        <pt x="165" y="279" on="1"/>
        <pt x="175" y="285" on="0"/>
        <pt x="189" y="303" on="1"/>
        <pt x="216" y="303" on="1"/>
        <pt x="229" y="285" on="0"/>
        <pt x="239" y="279" on="1"/>
        <pt x="250" y="293" on="0"/>
        <pt x="266" y="301" on="1"/>
        <pt x="266" y="353" on="1"/>
        <pt x="389" y="353" on="1"/>
        <pt x="389" y="413" on="1"/>
        <pt x="266" y="413" on="1"/>
        <pt x="266" y="587" on="1"/>
        <pt x="481" y="587" on="1"/>
        <pt x="481" y="484" on="1"/>
        <pt x="541" y="484" on="1"/>
        <pt x="541" y="672" on="1"/>
        <pt x="60" y="672" on="1"/>
        <pt x="60" y="587" on="1"/>
        <pt x="140" y="587" on="1"/>
        <pt x="140" y="300" on="1"/>
        <pt x="153" y="293" on="0"/>
      </contour>
      <contour>
        <pt x="484" y="188" on="1"/>
        <pt x="484" y="148" on="0"/>
        <pt x="423" y="102" on="0"/>
        <pt x="335" y="102" on="0"/>
        <pt x="266" y="153" on="0"/>
        <pt x="266" y="205" on="1"/>
        <pt x="266" y="223" on="0"/>
        <pt x="295" y="262" on="0"/>
        <pt x="327" y="262" on="1"/>
        <pt x="327" y="286" on="1"/>
        <pt x="309" y="286" on="0"/>
        <pt x="290" y="283" on="0"/>
        <pt x="260" y="262" on="0"/>
        <pt x="248" y="241" on="1"/>
        <pt x="224" y="246" on="0"/>
        <pt x="202" y="275" on="1"/>
        <pt x="184" y="249" on="0"/>
        <pt x="157" y="241" on="1"/>
        <pt x="144" y="262" on="0"/>
        <pt x="114" y="283" on="0"/>
        <pt x="95" y="286" on="0"/>
        <pt x="77" y="286" on="1"/>
        <pt x="77" y="262" on="1"/>
        <pt x="111" y="262" on="0"/>
        <pt x="142" y="215" on="0"/>
        <pt x="142" y="131" on="0"/>
        <pt x="115" y="77" on="0"/>
        <pt x="72" y="77" on="1"/>
        <pt x="58" y="79" on="1"/>
        <pt x="76" y="28" on="0"/>
        <pt x="166" y="28" on="0"/>
        <pt x="209" y="73" on="1"/>
        <pt x="218" y="73" on="1"/>
        <pt x="222" y="69" on="1"/>
        <pt x="270" y="29" on="0"/>
        <pt x="407" y="29" on="0"/>
        <pt x="468" y="76" on="1"/>
        <pt x="477" y="67" on="0"/>
        <pt x="533" y="34" on="0"/>
        <pt x="549" y="31" on="1"/>
        <pt x="540" y="41" on="0"/>
        <pt x="540" y="83" on="1"/>
        <pt x="540" y="223" on="1"/>
        <pt x="479" y="223" on="1"/>
        <pt x="484" y="206" on="0"/>
      </contour>
      <contour>
        <pt x="426" y="723" on="1"/>
        <pt x="340" y="723" on="1"/>
        <pt x="290" y="783" on="1"/>
        <pt x="230" y="943" on="1"/>
        <pt x="366" y="943" on="1"/>
        <pt x="416" y="883" on="1"/>
      </contour>
      <contour>
        <pt x="311" y="809" on="1"/>
        <pt x="347" y="809" on="1"/>
        <pt x="337" y="918" on="1"/>
        <pt x="269" y="918" on="1"/>
      </contour>
    </TTGlyph>
    <TTGlyph name="Eth" xMin="13" yMin="-60" xMax="757" yMax="700">
      <contour>
        <pt x="13" y="413" on="1"/>
        <pt x="106" y="413" on="1"/>
        <pt x="106" y="499" on="1"/>
        <pt x="98" y="499" on="1"/>
        <pt x="48" y="559" on="1"/>
        <pt x="48" y="700" on="1"/>
        <pt x="392" y="700" on="1"/>
        <pt x="512" y="700" on="0"/>
        <pt x="599" y="646" on="1"/>
        <pt x="643" y="618" on="0"/>
        <pt x="694" y="521" on="0"/>
        <pt x="694" y="458" on="1"/>
        <pt x="694" y="312" on="1"/>
        <pt x="707" y="312" on="1"/>
        <pt x="757" y="252" on="1"/>
        <pt x="757" y="179" on="1"/>
        <pt x="717" y="179" on="0"/>
        <pt x="695" y="147" on="0"/>
        <pt x="695" y="108" on="1"/>
        <pt x="695" y="-60" on="0"/>
        <pt x="425" y="-60" on="1"/>
        <pt x="352" y="-60" on="0"/>
        <pt x="284" y="-42" on="0"/>
        <pt x="255" y="-21" on="1"/>
        <pt x="218" y="-60" on="0"/>
        <pt x="173" y="-60" on="1"/>
        <pt x="114" y="-60" on="0"/>
        <pt x="25" y="40" on="0"/>
        <pt x="17" y="95" on="1"/>
        <pt x="44" y="113" on="1"/>
        <pt x="50" y="105" on="0"/>
        <pt x="82" y="105" on="0"/>
        <pt x="102" y="130" on="0"/>
        <pt x="106" y="157" on="0"/>
        <pt x="106" y="179" on="1"/>
        <pt x="94" y="179" on="1"/>
        <pt x="44" y="239" on="1"/>
        <pt x="44" y="262" on="1"/>
        <pt x="13" y="299" on="1"/>
      </contour>
      <contour>
        <pt x="158" y="279" on="1"/>
        <pt x="166" y="284" on="0"/>
        <pt x="181" y="303" on="1"/>
        <pt x="207" y="303" on="1"/>
        <pt x="220" y="285" on="0"/>
        <pt x="230" y="279" on="1"/>
        <pt x="245" y="297" on="0"/>
        <pt x="264" y="304" on="1"/>
        <pt x="264" y="326" on="1"/>
        <pt x="376" y="326" on="1"/>
        <pt x="376" y="386" on="1"/>
        <pt x="264" y="386" on="1"/>
        <pt x="264" y="587" on="1"/>
        <pt x="374" y="587" on="1"/>
        <pt x="424" y="587" on="0"/>
        <pt x="484" y="535" on="0"/>
        <pt x="484" y="486" on="1"/>
        <pt x="484" y="305" on="1"/>
        <pt x="505" y="297" on="0"/>
        <pt x="520" y="279" on="1"/>
        <pt x="530" y="287" on="0"/>
        <pt x="543" y="303" on="1"/>
        <pt x="570" y="303" on="1"/>
        <pt x="581" y="285" on="0"/>
        <pt x="593" y="279" on="1"/>
        <pt x="603" y="292" on="0"/>
        <pt x="616" y="299" on="1"/>
        <pt x="616" y="517" on="1"/>
        <pt x="616" y="597" on="0"/>
        <pt x="488" y="672" on="0"/>
        <pt x="392" y="672" on="1"/>
        <pt x="76" y="672" on="1"/>
        <pt x="76" y="587" on="1"/>
        <pt x="136" y="587" on="1"/>
        <pt x="136" y="386" on="1"/>
        <pt x="43" y="386" on="1"/>
        <pt x="43" y="326" on="1"/>
        <pt x="136" y="326" on="1"/>
        <pt x="136" y="298" on="1"/>
        <pt x="146" y="293" on="0"/>
      </contour>
      <contour>
        <pt x="491" y="205" on="1"/>
        <pt x="491" y="102" on="0"/>
        <pt x="258" y="102" on="0"/>
        <pt x="258" y="205" on="1"/>
        <pt x="258" y="223" on="0"/>
        <pt x="287" y="262" on="0"/>
        <pt x="320" y="262" on="1"/>
        <pt x="320" y="286" on="1"/>
        <pt x="302" y="286" on="0"/>
        <pt x="282" y="283" on="0"/>
        <pt x="252" y="262" on="0"/>
        <pt x="239" y="241" on="1"/>
        <pt x="215" y="246" on="0"/>
        <pt x="194" y="275" on="1"/>
        <pt x="174" y="249" on="0"/>
        <pt x="150" y="241" on="1"/>
        <pt x="137" y="262" on="0"/>
        <pt x="107" y="283" on="0"/>
        <pt x="87" y="286" on="0"/>
        <pt x="69" y="286" on="1"/>
        <pt x="69" y="262" on="1"/>
        <pt x="133" y="262" on="0"/>
        <pt x="133" y="179" on="1"/>
        <pt x="133" y="147" on="0"/>
        <pt x="126" y="109" on="0"/>
        <pt x="95" y="77" on="0"/>
        <pt x="65" y="77" on="1"/>
        <pt x="48" y="79" on="1"/>
        <pt x="72" y="27" on="0"/>
        <pt x="121" y="27" on="1"/>
        <pt x="144" y="27" on="0"/>
        <pt x="179" y="49" on="0"/>
        <pt x="201" y="73" on="1"/>
        <pt x="209" y="73" on="1"/>
        <pt x="236" y="49" on="0"/>
        <pt x="303" y="29" on="0"/>
        <pt x="375" y="29" on="1"/>
        <pt x="617" y="29" on="0"/>
        <pt x="617" y="169" on="1"/>
        <pt x="617" y="262" on="0"/>
        <pt x="681" y="262" on="1"/>
        <pt x="681" y="286" on="1"/>
        <pt x="663" y="286" on="0"/>
        <pt x="644" y="283" on="0"/>
        <pt x="614" y="262" on="0"/>
        <pt x="601" y="241" on="1"/>
        <pt x="578" y="246" on="0"/>
        <pt x="557" y="275" on="1"/>
        <pt x="537" y="249" on="0"/>
        <pt x="510" y="241" on="1"/>
        <pt x="497" y="262" on="0"/>
        <pt x="468" y="283" on="0"/>
        <pt x="449" y="286" on="0"/>
        <pt x="430" y="286" on="1"/>
        <pt x="430" y="262" on="1"/>
        <pt x="463" y="262" on="0"/>
        <pt x="491" y="224" on="0"/>
      </contour>
      <contour>
        <pt x="342" y="499" on="1"/>
        <pt x="342" y="413" on="1"/>
        <pt x="406" y="413" on="1"/>
        <pt x="456" y="353" on="1"/>
        <pt x="456" y="482" on="1"/>
        <pt x="455" y="495" on="1"/>
        <pt x="443" y="499" on="0"/>
        <pt x="424" y="499" on="1"/>
      </contour>
      <contour>
        <pt x="396" y="239" on="1"/>
        <pt x="396" y="179" on="1"/>
        <pt x="337" y="177" on="0"/>
        <pt x="337" y="140" on="1"/>
        <pt x="337" y="135" on="1"/>
        <pt x="353" y="131" on="0"/>
        <pt x="375" y="131" on="1"/>
        <pt x="448" y="131" on="0"/>
        <pt x="461" y="179" on="1"/>
        <pt x="454" y="179" on="1"/>
        <pt x="404" y="239" on="1"/>
      </contour>
    </TTGlyph>
    <TTGlyph name="F" xMin="25" yMin="-60" xMax="620" yMax="700">
      <contour>
        <pt x="468" y="265" on="1"/>
        <pt x="394" y="265" on="1"/>
        <pt x="405" y="252" on="1"/>
        <pt x="405" y="179" on="1"/>
        <pt x="366" y="179" on="0"/>
        <pt x="343" y="151" on="0"/>
        <pt x="343" y="120" on="1"/>
        <pt x="343" y="105" on="1"/>
        <pt x="350" y="105" on="0"/>
        <pt x="355" y="113" on="1"/>
        <pt x="383" y="95" on="1"/>
        <pt x="433" y="35" on="1"/>
        <pt x="427" y="-12" on="0"/>
        <pt x="371" y="-60" on="0"/>
        <pt x="292" y="-60" on="0"/>
        <pt x="254" y="-33" on="1"/>
        <pt x="216" y="-60" on="0"/>
        <pt x="135" y="-60" on="0"/>
        <pt x="31" y="36" on="0"/>
        <pt x="25" y="95" on="1"/>
        <pt x="53" y="113" on="1"/>
        <pt x="57" y="104" on="0"/>
        <pt x="72" y="104" on="1"/>
        <pt x="115" y="104" on="0"/>
        <pt x="115" y="179" on="1"/>
        <pt x="103" y="179" on="1"/>
        <pt x="53" y="239" on="1"/>
        <pt x="53" y="312" on="1"/>
        <pt x="94" y="312" on="0"/>
        <pt x="111" y="309" on="1"/>
        <pt x="111" y="499" on="1"/>
        <pt x="83" y="499" on="1"/>
        <pt x="33" y="559" on="1"/>
        <pt x="33" y="700" on="1"/>
        <pt x="570" y="700" on="1"/>
        <pt x="620" y="640" on="1"/>
        <pt x="620" y="396" on="1"/>
        <pt x="504" y="396" on="1"/>
        <pt x="454" y="456" on="1"/>
        <pt x="454" y="499" on="1"/>
        <pt x="347" y="499" on="1"/>
        <pt x="347" y="441" on="1"/>
        <pt x="418" y="441" on="1"/>
        <pt x="468" y="381" on="1"/>
      </contour>
      <contour>
        <pt x="167" y="279" on="1"/>
        <pt x="177" y="285" on="0"/>
        <pt x="191" y="303" on="1"/>
        <pt x="217" y="303" on="1"/>
        <pt x="230" y="285" on="0"/>
        <pt x="241" y="279" on="1"/>
        <pt x="251" y="293" on="0"/>
        <pt x="267" y="301" on="1"/>
        <pt x="267" y="353" on="1"/>
        <pt x="390" y="353" on="1"/>
        <pt x="390" y="413" on="1"/>
        <pt x="267" y="413" on="1"/>
        <pt x="267" y="587" on="1"/>
        <pt x="482" y="587" on="1"/>
        <pt x="482" y="484" on="1"/>
        <pt x="542" y="484" on="1"/>
        <pt x="542" y="672" on="1"/>
        <pt x="61" y="672" on="1"/>
        <pt x="61" y="587" on="1"/>
        <pt x="141" y="587" on="1"/>
        <pt x="141" y="301" on="1"/>
        <pt x="155" y="294" on="0"/>
      </contour>
      <contour>
        <pt x="207" y="61" on="1"/>
        <pt x="243" y="30" on="0"/>
        <pt x="330" y="30" on="0"/>
        <pt x="350" y="80" on="1"/>
        <pt x="343" y="76" on="0"/>
        <pt x="334" y="76" on="1"/>
        <pt x="264" y="76" on="0"/>
        <pt x="264" y="179" on="1"/>
        <pt x="264" y="263" on="0"/>
        <pt x="330" y="263" on="1"/>
        <pt x="330" y="288" on="1"/>
        <pt x="311" y="288" on="0"/>
        <pt x="291" y="285" on="0"/>
        <pt x="261" y="263" on="0"/>
        <pt x="249" y="241" on="1"/>
        <pt x="225" y="246" on="0"/>
        <pt x="204" y="276" on="1"/>
        <pt x="183" y="249" on="0"/>
        <pt x="159" y="241" on="1"/>
        <pt x="146" y="263" on="0"/>
        <pt x="116" y="285" on="0"/>
        <pt x="96" y="288" on="0"/>
        <pt x="78" y="288" on="1"/>
        <pt x="78" y="263" on="1"/>
        <pt x="144" y="263" on="0"/>
        <pt x="144" y="179" on="1"/>
        <pt x="144" y="103" on="0"/>
        <pt x="112" y="84" on="1"/>
        <pt x="97" y="76" on="0"/>
        <pt x="74" y="76" on="1"/>
        <pt x="58" y="80" on="1"/>
        <pt x="78" y="30" on="0"/>
        <pt x="165" y="30" on="0"/>
        <pt x="201" y="61" on="1"/>
      </contour>
    </TTGlyph>
    <TTGlyph name="G" xMin="4" yMin="-72" xMax="744" yMax="712">
      <contour>
        <pt x="481" y="279" on="1"/>
        <pt x="491" y="287" on="0"/>
        <pt x="504" y="303" on="1"/>
        <pt x="530" y="303" on="1"/>
        <pt x="542" y="285" on="0"/>
        <pt x="553" y="279" on="1"/>
        <pt x="571" y="301" on="0"/>
        <pt x="618" y="312" on="0"/>
        <pt x="667" y="312" on="1"/>
        <pt x="717" y="252" on="1"/>
        <pt x="717" y="179" on="1"/>
        <pt x="679" y="179" on="0"/>
        <pt x="655" y="151" on="0"/>
        <pt x="655" y="122" on="1"/>
        <pt x="655" y="106" on="1"/>
        <pt x="662" y="107" on="0"/>
        <pt x="667" y="113" on="1"/>
        <pt x="694" y="95" on="1"/>
        <pt x="744" y="35" on="1"/>
        <pt x="737" y="-12" on="0"/>
        <pt x="681" y="-60" on="0"/>
        <pt x="593" y="-60" on="0"/>
        <pt x="556" y="-21" on="1"/>
        <pt x="532" y="-39" on="0"/>
        <pt x="505" y="-55" on="0"/>
        <pt x="435" y="-72" on="0"/>
        <pt x="301" y="-72" on="0"/>
        <pt x="162" y="-27" on="0"/>
        <pt x="66" y="85" on="0"/>
        <pt x="66" y="168" on="1"/>
        <pt x="66" y="179" on="1"/>
        <pt x="54" y="179" on="1"/>
        <pt x="4" y="239" on="1"/>
        <pt x="4" y="312" on="1"/>
        <pt x="48" y="312" on="0"/>
        <pt x="66" y="309" on="1"/>
        <pt x="66" y="531" on="1"/>
        <pt x="66" y="648" on="0"/>
        <pt x="188" y="690" on="1"/>
        <pt x="250" y="712" on="0"/>
        <pt x="398" y="712" on="0"/>
        <pt x="508" y="685" on="0"/>
        <pt x="601" y="630" on="0"/>
        <pt x="655" y="534" on="0"/>
        <pt x="655" y="471" on="1"/>
        <pt x="655" y="370" on="1"/>
        <pt x="461" y="370" on="1"/>
        <pt x="411" y="430" on="1"/>
        <pt x="411" y="502" on="1"/>
        <pt x="410" y="518" on="1"/>
        <pt x="401" y="521" on="0"/>
        <pt x="384" y="521" on="1"/>
        <pt x="310" y="521" on="0"/>
        <pt x="310" y="442" on="1"/>
        <pt x="310" y="308" on="1"/>
        <pt x="357" y="252" on="1"/>
        <pt x="357" y="179" on="1"/>
        <pt x="340" y="178" on="0"/>
        <pt x="319" y="175" on="0"/>
        <pt x="297" y="157" on="0"/>
        <pt x="297" y="140" on="1"/>
        <pt x="298" y="125" on="1"/>
        <pt x="314" y="119" on="0"/>
        <pt x="371" y="119" on="0"/>
        <pt x="416" y="151" on="0"/>
        <pt x="422" y="179" on="1"/>
        <pt x="415" y="179" on="1"/>
        <pt x="365" y="239" on="1"/>
        <pt x="365" y="312" on="1"/>
        <pt x="399" y="312" on="0"/>
        <pt x="415" y="311" on="1"/>
        <pt x="459" y="308" on="0"/>
      </contour>
      <contour>
        <pt x="118" y="279" on="1"/>
        <pt x="130" y="286" on="0"/>
        <pt x="141" y="303" on="1"/>
        <pt x="168" y="303" on="1"/>
        <pt x="181" y="285" on="0"/>
        <pt x="191" y="279" on="1"/>
        <pt x="209" y="300" on="0"/>
        <pt x="232" y="306" on="1"/>
        <pt x="232" y="503" on="1"/>
        <pt x="232" y="555" on="0"/>
        <pt x="286" y="611" on="0"/>
        <pt x="384" y="611" on="0"/>
        <pt x="440" y="556" on="0"/>
        <pt x="440" y="503" on="1"/>
        <pt x="440" y="458" on="1"/>
        <pt x="577" y="458" on="1"/>
        <pt x="577" y="529" on="1"/>
        <pt x="577" y="584" on="0"/>
        <pt x="502" y="656" on="0"/>
        <pt x="398" y="683" on="0"/>
        <pt x="288" y="683" on="0"/>
        <pt x="207" y="667" on="0"/>
        <pt x="136" y="633" on="0"/>
        <pt x="94" y="571" on="0"/>
        <pt x="94" y="529" on="1"/>
        <pt x="94" y="300" on="1"/>
        <pt x="108" y="292" on="0"/>
      </contour>
      <contour>
        <pt x="389" y="90" on="0"/>
        <pt x="283" y="90" on="0"/>
        <pt x="220" y="150" on="0"/>
        <pt x="220" y="205" on="1"/>
        <pt x="220" y="224" on="0"/>
        <pt x="248" y="262" on="0"/>
        <pt x="281" y="262" on="1"/>
        <pt x="281" y="286" on="1"/>
        <pt x="262" y="286" on="0"/>
        <pt x="243" y="283" on="0"/>
        <pt x="214" y="262" on="0"/>
        <pt x="201" y="241" on="1"/>
        <pt x="176" y="246" on="0"/>
        <pt x="154" y="275" on="1"/>
        <pt x="136" y="249" on="0"/>
        <pt x="110" y="241" on="1"/>
        <pt x="97" y="262" on="0"/>
        <pt x="67" y="283" on="0"/>
        <pt x="48" y="286" on="0"/>
        <pt x="30" y="286" on="1"/>
        <pt x="30" y="262" on="1"/>
        <pt x="94" y="262" on="0"/>
        <pt x="94" y="169" on="1"/>
        <pt x="94" y="115" on="0"/>
        <pt x="132" y="80" on="1"/>
        <pt x="199" y="17" on="0"/>
        <pt x="336" y="17" on="1"/>
        <pt x="384" y="17" on="0"/>
        <pt x="453" y="36" on="0"/>
        <pt x="480" y="54" on="0"/>
        <pt x="502" y="73" on="1"/>
        <pt x="510" y="73" on="1"/>
        <pt x="532" y="49" on="0"/>
        <pt x="567" y="27" on="0"/>
        <pt x="590" y="27" on="1"/>
        <pt x="639" y="27" on="0"/>
        <pt x="663" y="79" on="1"/>
        <pt x="657" y="77" on="0"/>
        <pt x="646" y="77" on="1"/>
        <pt x="616" y="77" on="0"/>
        <pt x="585" y="109" on="0"/>
        <pt x="578" y="147" on="0"/>
        <pt x="578" y="179" on="1"/>
        <pt x="578" y="262" on="0"/>
        <pt x="642" y="262" on="1"/>
        <pt x="642" y="286" on="1"/>
        <pt x="624" y="286" on="0"/>
        <pt x="604" y="283" on="0"/>
        <pt x="574" y="262" on="0"/>
        <pt x="561" y="241" on="1"/>
        <pt x="539" y="246" on="0"/>
        <pt x="517" y="275" on="1"/>
        <pt x="499" y="249" on="0"/>
        <pt x="472" y="241" on="1"/>
        <pt x="459" y="262" on="0"/>
        <pt x="429" y="283" on="0"/>
        <pt x="409" y="286" on="0"/>
        <pt x="391" y="286" on="1"/>
        <pt x="391" y="262" on="1"/>
        <pt x="424" y="262" on="0"/>
        <pt x="453" y="223" on="0"/>
        <pt x="453" y="205" on="1"/>
        <pt x="453" y="150" on="0"/>
      </contour>
    </TTGlyph>
    <TTGlyph name="H" xMin="26" yMin="-60" xMax="828" yMax="700">
      <contour>
        <pt x="54" y="312" on="1"/>
        <pt x="95" y="312" on="0"/>
        <pt x="112" y="309" on="1"/>
        <pt x="112" y="499" on="1"/>
        <pt x="104" y="499" on="1"/>
        <pt x="54" y="559" on="1"/>
        <pt x="54" y="700" on="1"/>
        <pt x="358" y="700" on="1"/>
        <pt x="408" y="640" on="1"/>
        <pt x="408" y="499" on="1"/>
        <pt x="348" y="499" on="1"/>
        <pt x="348" y="439" on="1"/>
        <pt x="506" y="439" on="1"/>
        <pt x="506" y="499" on="1"/>
        <pt x="498" y="499" on="1"/>
        <pt x="448" y="559" on="1"/>
        <pt x="448" y="700" on="1"/>
        <pt x="752" y="700" on="1"/>
        <pt x="802" y="640" on="1"/>
        <pt x="802" y="499" on="1"/>
        <pt x="742" y="499" on="1"/>
        <pt x="742" y="312" on="1"/>
        <pt x="750" y="312" on="1"/>
        <pt x="800" y="252" on="1"/>
        <pt x="800" y="179" on="1"/>
        <pt x="761" y="179" on="0"/>
        <pt x="738" y="151" on="0"/>
        <pt x="738" y="120" on="1"/>
        <pt x="738" y="105" on="1"/>
        <pt x="745" y="105" on="0"/>
        <pt x="750" y="113" on="1"/>
        <pt x="778" y="95" on="1"/>
        <pt x="828" y="35" on="1"/>
        <pt x="822" y="-12" on="0"/>
        <pt x="766" y="-60" on="0"/>
        <pt x="687" y="-60" on="0"/>
        <pt x="649" y="-33" on="1"/>
        <pt x="611" y="-60" on="0"/>
        <pt x="530" y="-60" on="0"/>
        <pt x="426" y="36" on="0"/>
        <pt x="420" y="95" on="1"/>
        <pt x="448" y="113" on="1"/>
        <pt x="452" y="104" on="0"/>
        <pt x="467" y="104" on="1"/>
        <pt x="510" y="104" on="0"/>
        <pt x="510" y="179" on="1"/>
        <pt x="498" y="179" on="1"/>
        <pt x="448" y="239" on="1"/>
        <pt x="448" y="265" on="1"/>
        <pt x="395" y="265" on="1"/>
        <pt x="406" y="252" on="1"/>
        <pt x="406" y="179" on="1"/>
        <pt x="367" y="179" on="0"/>
        <pt x="344" y="151" on="0"/>
        <pt x="344" y="120" on="1"/>
        <pt x="344" y="105" on="1"/>
        <pt x="351" y="105" on="0"/>
        <pt x="356" y="113" on="1"/>
        <pt x="384" y="95" on="1"/>
        <pt x="434" y="35" on="1"/>
        <pt x="428" y="-12" on="0"/>
        <pt x="372" y="-60" on="0"/>
        <pt x="293" y="-60" on="0"/>
        <pt x="255" y="-33" on="1"/>
        <pt x="217" y="-60" on="0"/>
        <pt x="136" y="-60" on="0"/>
        <pt x="32" y="36" on="0"/>
        <pt x="26" y="95" on="1"/>
        <pt x="54" y="113" on="1"/>
        <pt x="58" y="104" on="0"/>
        <pt x="73" y="104" on="1"/>
        <pt x="116" y="104" on="0"/>
        <pt x="116" y="179" on="1"/>
        <pt x="104" y="179" on="1"/>
        <pt x="54" y="239" on="1"/>
      </contour>
      <contour>
        <pt x="168" y="279" on="1"/>
        <pt x="178" y="285" on="0"/>
        <pt x="192" y="303" on="1"/>
        <pt x="218" y="303" on="1"/>
        <pt x="231" y="285" on="0"/>
        <pt x="242" y="279" on="1"/>
        <pt x="252" y="293" on="0"/>
        <pt x="268" y="301" on="1"/>
        <pt x="268" y="352" on="1"/>
        <pt x="536" y="352" on="1"/>
        <pt x="536" y="301" on="1"/>
        <pt x="550" y="294" on="0"/>
        <pt x="562" y="279" on="1"/>
        <pt x="572" y="285" on="0"/>
        <pt x="586" y="303" on="1"/>
        <pt x="612" y="303" on="1"/>
        <pt x="625" y="285" on="0"/>
        <pt x="636" y="279" on="1"/>
        <pt x="646" y="293" on="0"/>
        <pt x="662" y="301" on="1"/>
        <pt x="662" y="587" on="1"/>
        <pt x="724" y="587" on="1"/>
        <pt x="724" y="672" on="1"/>
        <pt x="476" y="672" on="1"/>
        <pt x="476" y="587" on="1"/>
        <pt x="536" y="587" on="1"/>
        <pt x="536" y="412" on="1"/>
        <pt x="268" y="412" on="1"/>
        <pt x="268" y="587" on="1"/>
        <pt x="330" y="587" on="1"/>
        <pt x="330" y="672" on="1"/>
        <pt x="82" y="672" on="1"/>
        <pt x="82" y="587" on="1"/>
        <pt x="142" y="587" on="1"/>
        <pt x="142" y="301" on="1"/>
        <pt x="156" y="294" on="0"/>
      </contour>
      <contour>
        <pt x="602" y="61" on="1"/>
        <pt x="638" y="30" on="0"/>
        <pt x="725" y="30" on="0"/>
        <pt x="745" y="80" on="1"/>
        <pt x="738" y="76" on="0"/>
        <pt x="729" y="76" on="1"/>
        <pt x="659" y="76" on="0"/>
        <pt x="659" y="179" on="1"/>
        <pt x="659" y="263" on="0"/>
        <pt x="725" y="263" on="1"/>
        <pt x="725" y="288" on="1"/>
        <pt x="706" y="288" on="0"/>
        <pt x="686" y="285" on="0"/>
        <pt x="656" y="263" on="0"/>
        <pt x="644" y="241" on="1"/>
        <pt x="620" y="246" on="0"/>
        <pt x="599" y="276" on="1"/>
        <pt x="578" y="249" on="0"/>
        <pt x="554" y="241" on="1"/>
        <pt x="541" y="263" on="0"/>
        <pt x="511" y="285" on="0"/>
        <pt x="491" y="288" on="0"/>
        <pt x="473" y="288" on="1"/>
        <pt x="473" y="263" on="1"/>
        <pt x="539" y="263" on="0"/>
        <pt x="539" y="179" on="1"/>
        <pt x="539" y="103" on="0"/>
        <pt x="507" y="84" on="1"/>
        <pt x="492" y="76" on="0"/>
        <pt x="469" y="76" on="1"/>
        <pt x="453" y="80" on="1"/>
        <pt x="473" y="30" on="0"/>
        <pt x="560" y="30" on="0"/>
        <pt x="596" y="61" on="1"/>
      </contour>
      <contour>
        <pt x="208" y="61" on="1"/>
        <pt x="244" y="30" on="0"/>
        <pt x="331" y="30" on="0"/>
        <pt x="351" y="80" on="1"/>
        <pt x="344" y="76" on="0"/>
        <pt x="335" y="76" on="1"/>
        <pt x="265" y="76" on="0"/>
        <pt x="265" y="179" on="1"/>
        <pt x="265" y="263" on="0"/>
        <pt x="331" y="263" on="1"/>
        <pt x="331" y="288" on="1"/>
        <pt x="312" y="288" on="0"/>
        <pt x="292" y="285" on="0"/>
        <pt x="262" y="263" on="0"/>
        <pt x="250" y="241" on="1"/>
        <pt x="226" y="246" on="0"/>
        <pt x="205" y="276" on="1"/>
        <pt x="184" y="249" on="0"/>
        <pt x="160" y="241" on="1"/>
        <pt x="147" y="263" on="0"/>
        <pt x="117" y="285" on="0"/>
        <pt x="97" y="288" on="0"/>
        <pt x="79" y="288" on="1"/>
        <pt x="79" y="263" on="1"/>
        <pt x="145" y="263" on="0"/>
        <pt x="145" y="179" on="1"/>
        <pt x="145" y="103" on="0"/>
        <pt x="113" y="84" on="1"/>
        <pt x="98" y="76" on="0"/>
        <pt x="75" y="76" on="1"/>
        <pt x="59" y="80" on="1"/>
        <pt x="79" y="30" on="0"/>
        <pt x="166" y="30" on="0"/>
        <pt x="202" y="61" on="1"/>
      </contour>
    </TTGlyph>
    <TTGlyph name="I" xMin="28" yMin="-60" xMax="436" yMax="700">
      <contour>
        <pt x="410" y="499" on="1"/>
        <pt x="350" y="499" on="1"/>
        <pt x="350" y="312" on="1"/>
        <pt x="358" y="312" on="1"/>
        <pt x="408" y="252" on="1"/>
        <pt x="408" y="179" on="1"/>
        <pt x="369" y="179" on="0"/>
        <pt x="346" y="151" on="0"/>
        <pt x="346" y="120" on="1"/>
        <pt x="346" y="105" on="1"/>
        <pt x="353" y="105" on="0"/>
        <pt x="358" y="113" on="1"/>
        <pt x="386" y="95" on="1"/>
        <pt x="436" y="35" on="1"/>
        <pt x="430" y="-12" on="0"/>
        <pt x="374" y="-60" on="0"/>
        <pt x="295" y="-60" on="0"/>
        <pt x="257" y="-33" on="1"/>
        <pt x="219" y="-60" on="0"/>
        <pt x="138" y="-60" on="0"/>
        <pt x="34" y="36" on="0"/>
        <pt x="28" y="95" on="1"/>
        <pt x="56" y="113" on="1"/>
        <pt x="60" y="104" on="0"/>
        <pt x="75" y="104" on="1"/>
        <pt x="118" y="104" on="0"/>
        <pt x="118" y="179" on="1"/>
        <pt x="106" y="179" on="1"/>
        <pt x="56" y="239" on="1"/>
        <pt x="56" y="312" on="1"/>
        <pt x="97" y="312" on="0"/>
        <pt x="114" y="309" on="1"/>
        <pt x="114" y="499" on="1"/>
        <pt x="106" y="499" on="1"/>
        <pt x="56" y="559" on="1"/>
        <pt x="56" y="700" on="1"/>
        <pt x="360" y="700" on="1"/>
        <pt x="410" y="640" on="1"/>
      </contour>
      <contour>
        <pt x="170" y="279" on="1"/>
        <pt x="180" y="285" on="0"/>
        <pt x="194" y="303" on="1"/>
        <pt x="220" y="303" on="1"/>
        <pt x="233" y="285" on="0"/>
        <pt x="244" y="279" on="1"/>
        <pt x="254" y="293" on="0"/>
        <pt x="270" y="301" on="1"/>
        <pt x="270" y="587" on="1"/>
        <pt x="332" y="587" on="1"/>
        <pt x="332" y="672" on="1"/>
        <pt x="84" y="672" on="1"/>
        <pt x="84" y="587" on="1"/>
        <pt x="144" y="587" on="1"/>
        <pt x="144" y="301" on="1"/>
        <pt x="158" y="294" on="0"/>
      </contour>
      <contour>
        <pt x="210" y="61" on="1"/>
        <pt x="246" y="30" on="0"/>
        <pt x="333" y="30" on="0"/>
        <pt x="353" y="80" on="1"/>
        <pt x="346" y="76" on="0"/>
        <pt x="337" y="76" on="1"/>
        <pt x="267" y="76" on="0"/>
        <pt x="267" y="179" on="1"/>
        <pt x="267" y="263" on="0"/>
        <pt x="333" y="263" on="1"/>
        <pt x="333" y="288" on="1"/>
        <pt x="314" y="288" on="0"/>
        <pt x="294" y="285" on="0"/>
        <pt x="264" y="263" on="0"/>
        <pt x="252" y="241" on="1"/>
        <pt x="228" y="246" on="0"/>
        <pt x="207" y="276" on="1"/>
        <pt x="186" y="249" on="0"/>
        <pt x="162" y="241" on="1"/>
        <pt x="149" y="263" on="0"/>
        <pt x="119" y="285" on="0"/>
        <pt x="99" y="288" on="0"/>
        <pt x="81" y="288" on="1"/>
        <pt x="81" y="263" on="1"/>
        <pt x="147" y="263" on="0"/>
        <pt x="147" y="179" on="1"/>
        <pt x="147" y="103" on="0"/>
        <pt x="115" y="84" on="1"/>
        <pt x="100" y="76" on="0"/>
        <pt x="77" y="76" on="1"/>
        <pt x="61" y="80" on="1"/>
        <pt x="81" y="30" on="0"/>
        <pt x="168" y="30" on="0"/>
        <pt x="204" y="61" on="1"/>
      </contour>
    </TTGlyph>
    <TTGlyph name="Iacute" xMin="28" yMin="-60" xMax="436" yMax="943">
      <contour>
        <pt x="410" y="499" on="1"/>
        <pt x="350" y="499" on="1"/>
        <pt x="350" y="312" on="1"/>
        <pt x="358" y="312" on="1"/>
        <pt x="408" y="252" on="1"/>
        <pt x="408" y="179" on="1"/>
        <pt x="369" y="179" on="0"/>
        <pt x="346" y="151" on="0"/>
        <pt x="346" y="120" on="1"/>
        <pt x="346" y="105" on="1"/>
        <pt x="353" y="105" on="0"/>
        <pt x="358" y="113" on="1"/>
        <pt x="386" y="95" on="1"/>
        <pt x="436" y="35" on="1"/>
        <pt x="430" y="-12" on="0"/>
        <pt x="374" y="-60" on="0"/>
        <pt x="295" y="-60" on="0"/>
        <pt x="257" y="-33" on="1"/>
        <pt x="219" y="-60" on="0"/>
        <pt x="138" y="-60" on="0"/>
        <pt x="34" y="36" on="0"/>
        <pt x="28" y="95" on="1"/>
        <pt x="56" y="113" on="1"/>
        <pt x="60" y="104" on="0"/>
        <pt x="75" y="104" on="1"/>
        <pt x="118" y="104" on="0"/>
        <pt x="118" y="179" on="1"/>
        <pt x="106" y="179" on="1"/>
        <pt x="56" y="239" on="1"/>
        <pt x="56" y="312" on="1"/>
        <pt x="97" y="312" on="0"/>
        <pt x="114" y="309" on="1"/>
        <pt x="114" y="499" on="1"/>
        <pt x="106" y="499" on="1"/>
        <pt x="56" y="559" on="1"/>
        <pt x="56" y="700" on="1"/>
        <pt x="360" y="700" on="1"/>
        <pt x="410" y="640" on="1"/>
      </contour>
      <contour>
        <pt x="170" y="279" on="1"/>
        <pt x="180" y="285" on="0"/>
        <pt x="194" y="303" on="1"/>
        <pt x="220" y="303" on="1"/>
        <pt x="233" y="285" on="0"/>
        <pt x="244" y="279" on="1"/>
        <pt x="254" y="293" on="0"/>
        <pt x="270" y="301" on="1"/>
        <pt x="270" y="587" on="1"/>
        <pt x="332" y="587" on="1"/>
        <pt x="332" y="672" on="1"/>
        <pt x="84" y="672" on="1"/>
        <pt x="84" y="587" on="1"/>
        <pt x="144" y="587" on="1"/>
        <pt x="144" y="301" on="1"/>
        <pt x="158" y="294" on="0"/>
      </contour>
      <contour>
        <pt x="210" y="61" on="1"/>
        <pt x="246" y="30" on="0"/>
        <pt x="333" y="30" on="0"/>
        <pt x="353" y="80" on="1"/>
        <pt x="346" y="76" on="0"/>
        <pt x="337" y="76" on="1"/>
        <pt x="267" y="76" on="0"/>
        <pt x="267" y="179" on="1"/>
        <pt x="267" y="263" on="0"/>
        <pt x="333" y="263" on="1"/>
        <pt x="333" y="288" on="1"/>
        <pt x="314" y="288" on="0"/>
        <pt x="294" y="285" on="0"/>
        <pt x="264" y="263" on="0"/>
        <pt x="252" y="241" on="1"/>
        <pt x="228" y="246" on="0"/>
        <pt x="207" y="276" on="1"/>
        <pt x="186" y="249" on="0"/>
        <pt x="162" y="241" on="1"/>
        <pt x="149" y="263" on="0"/>
        <pt x="119" y="285" on="0"/>
        <pt x="99" y="288" on="0"/>
        <pt x="81" y="288" on="1"/>
        <pt x="81" y="263" on="1"/>
        <pt x="147" y="263" on="0"/>
        <pt x="147" y="179" on="1"/>
        <pt x="147" y="103" on="0"/>
        <pt x="115" y="84" on="1"/>
        <pt x="100" y="76" on="0"/>
        <pt x="77" y="76" on="1"/>
        <pt x="61" y="80" on="1"/>
        <pt x="81" y="30" on="0"/>
        <pt x="168" y="30" on="0"/>
        <pt x="204" y="61" on="1"/>
      </contour>
      <contour>
        <pt x="289" y="723" on="1"/>
        <pt x="171" y="723" on="1"/>
        <pt x="116" y="783" on="1"/>
        <pt x="181" y="943" on="1"/>
        <pt x="299" y="943" on="1"/>
        <pt x="349" y="883" on="1"/>
      </contour>
      <contour>
        <pt x="157" y="808" on="1"/>
        <pt x="218" y="808" on="1"/>
        <pt x="263" y="918" on="1"/>
        <pt x="201" y="918" on="1"/>
      </contour>
    </TTGlyph>
    <TTGlyph name="Icircumflex" xMin="26" yMin="-60" xMax="440" yMax="943">
      <contour>
        <pt x="410" y="499" on="1"/>
        <pt x="350" y="499" on="1"/>
        <pt x="350" y="312" on="1"/>
        <pt x="358" y="312" on="1"/>
        <pt x="408" y="252" on="1"/>
        <pt x="408" y="179" on="1"/>
        <pt x="369" y="179" on="0"/>
        <pt x="346" y="151" on="0"/>
        <pt x="346" y="120" on="1"/>
        <pt x="346" y="105" on="1"/>
        <pt x="353" y="105" on="0"/>
        <pt x="358" y="113" on="1"/>
        <pt x="386" y="95" on="1"/>
        <pt x="436" y="35" on="1"/>
        <pt x="430" y="-12" on="0"/>
        <pt x="374" y="-60" on="0"/>
        <pt x="295" y="-60" on="0"/>
        <pt x="257" y="-33" on="1"/>
        <pt x="219" y="-60" on="0"/>
        <pt x="138" y="-60" on="0"/>
        <pt x="34" y="36" on="0"/>
        <pt x="28" y="95" on="1"/>
        <pt x="56" y="113" on="1"/>
        <pt x="60" y="104" on="0"/>
        <pt x="75" y="104" on="1"/>
        <pt x="118" y="104" on="0"/>
        <pt x="118" y="179" on="1"/>
        <pt x="106" y="179" on="1"/>
        <pt x="56" y="239" on="1"/>
        <pt x="56" y="312" on="1"/>
        <pt x="97" y="312" on="0"/>
        <pt x="114" y="309" on="1"/>
        <pt x="114" y="499" on="1"/>
        <pt x="106" y="499" on="1"/>
        <pt x="56" y="559" on="1"/>
        <pt x="56" y="700" on="1"/>
        <pt x="73" y="700" on="1"/>
        <pt x="26" y="757" on="1"/>
        <pt x="146" y="943" on="1"/>
        <pt x="270" y="943" on="1"/>
        <pt x="320" y="883" on="1"/>
        <pt x="440" y="697" on="1"/>
        <pt x="362" y="697" on="1"/>
        <pt x="410" y="640" on="1"/>
      </contour>
      <contour>
        <pt x="170" y="279" on="1"/>
        <pt x="180" y="285" on="0"/>
        <pt x="194" y="303" on="1"/>
        <pt x="220" y="303" on="1"/>
        <pt x="233" y="285" on="0"/>
        <pt x="244" y="279" on="1"/>
        <pt x="254" y="293" on="0"/>
        <pt x="270" y="301" on="1"/>
        <pt x="270" y="587" on="1"/>
        <pt x="332" y="587" on="1"/>
        <pt x="332" y="672" on="1"/>
        <pt x="84" y="672" on="1"/>
        <pt x="84" y="587" on="1"/>
        <pt x="144" y="587" on="1"/>
        <pt x="144" y="301" on="1"/>
        <pt x="158" y="294" on="0"/>
      </contour>
      <contour>
        <pt x="210" y="61" on="1"/>
        <pt x="246" y="30" on="0"/>
        <pt x="333" y="30" on="0"/>
        <pt x="353" y="80" on="1"/>
        <pt x="346" y="76" on="0"/>
        <pt x="337" y="76" on="1"/>
        <pt x="267" y="76" on="0"/>
        <pt x="267" y="179" on="1"/>
        <pt x="267" y="263" on="0"/>
        <pt x="333" y="263" on="1"/>
        <pt x="333" y="288" on="1"/>
        <pt x="314" y="288" on="0"/>
        <pt x="294" y="285" on="0"/>
        <pt x="264" y="263" on="0"/>
        <pt x="252" y="241" on="1"/>
        <pt x="228" y="246" on="0"/>
        <pt x="207" y="276" on="1"/>
        <pt x="186" y="249" on="0"/>
        <pt x="162" y="241" on="1"/>
        <pt x="149" y="263" on="0"/>
        <pt x="119" y="285" on="0"/>
        <pt x="99" y="288" on="0"/>
        <pt x="81" y="288" on="1"/>
        <pt x="81" y="263" on="1"/>
        <pt x="147" y="263" on="0"/>
        <pt x="147" y="179" on="1"/>
        <pt x="147" y="103" on="0"/>
        <pt x="115" y="84" on="1"/>
        <pt x="100" y="76" on="0"/>
        <pt x="77" y="76" on="1"/>
        <pt x="61" y="80" on="1"/>
        <pt x="81" y="30" on="0"/>
        <pt x="168" y="30" on="0"/>
        <pt x="204" y="61" on="1"/>
      </contour>
      <contour>
        <pt x="167" y="916" on="1"/>
        <pt x="76" y="784" on="1"/>
        <pt x="118" y="784" on="1"/>
        <pt x="199" y="854" on="1"/>
        <pt x="217" y="854" on="1"/>
        <pt x="298" y="784" on="1"/>
        <pt x="340" y="784" on="1"/>
        <pt x="249" y="916" on="1"/>
      </contour>
      <contour>
        <pt x="258" y="767" on="1"/>
        <pt x="183" y="700" on="1"/>
        <pt x="332" y="700" on="1"/>
      </contour>
    </TTGlyph>
    <TTGlyph name="Idieresis" xMin="15" yMin="-60" xMax="447" yMax="943">
      <contour>
        <pt x="410" y="499" on="1"/>
        <pt x="350" y="499" on="1"/>
        <pt x="350" y="312" on="1"/>
        <pt x="358" y="312" on="1"/>
        <pt x="408" y="252" on="1"/>
        <pt x="408" y="179" on="1"/>
        <pt x="369" y="179" on="0"/>
        <pt x="346" y="151" on="0"/>
        <pt x="346" y="120" on="1"/>
        <pt x="346" y="105" on="1"/>
        <pt x="353" y="105" on="0"/>
        <pt x="358" y="113" on="1"/>
        <pt x="386" y="95" on="1"/>
        <pt x="436" y="35" on="1"/>
        <pt x="430" y="-12" on="0"/>
        <pt x="374" y="-60" on="0"/>
        <pt x="295" y="-60" on="0"/>
        <pt x="257" y="-33" on="1"/>
        <pt x="219" y="-60" on="0"/>
        <pt x="138" y="-60" on="0"/>
        <pt x="34" y="36" on="0"/>
        <pt x="28" y="95" on="1"/>
        <pt x="56" y="113" on="1"/>
        <pt x="60" y="104" on="0"/>
        <pt x="75" y="104" on="1"/>
        <pt x="118" y="104" on="0"/>
        <pt x="118" y="179" on="1"/>
        <pt x="106" y="179" on="1"/>
        <pt x="56" y="239" on="1"/>
        <pt x="56" y="312" on="1"/>
        <pt x="97" y="312" on="0"/>
        <pt x="114" y="309" on="1"/>
        <pt x="114" y="499" on="1"/>
        <pt x="106" y="499" on="1"/>
        <pt x="56" y="559" on="1"/>
        <pt x="56" y="700" on="1"/>
        <pt x="360" y="700" on="1"/>
        <pt x="410" y="640" on="1"/>
      </contour>
      <contour>
        <pt x="170" y="279" on="1"/>
        <pt x="180" y="285" on="0"/>
        <pt x="194" y="303" on="1"/>
        <pt x="220" y="303" on="1"/>
        <pt x="233" y="285" on="0"/>
        <pt x="244" y="279" on="1"/>
        <pt x="254" y="293" on="0"/>
        <pt x="270" y="301" on="1"/>
        <pt x="270" y="587" on="1"/>
        <pt x="332" y="587" on="1"/>
        <pt x="332" y="672" on="1"/>
        <pt x="84" y="672" on="1"/>
        <pt x="84" y="587" on="1"/>
        <pt x="144" y="587" on="1"/>
        <pt x="144" y="301" on="1"/>
        <pt x="158" y="294" on="0"/>
      </contour>
      <contour>
        <pt x="210" y="61" on="1"/>
        <pt x="246" y="30" on="0"/>
        <pt x="333" y="30" on="0"/>
        <pt x="353" y="80" on="1"/>
        <pt x="346" y="76" on="0"/>
        <pt x="337" y="76" on="1"/>
        <pt x="267" y="76" on="0"/>
        <pt x="267" y="179" on="1"/>
        <pt x="267" y="263" on="0"/>
        <pt x="333" y="263" on="1"/>
        <pt x="333" y="288" on="1"/>
        <pt x="314" y="288" on="0"/>
        <pt x="294" y="285" on="0"/>
        <pt x="264" y="263" on="0"/>
        <pt x="252" y="241" on="1"/>
        <pt x="228" y="246" on="0"/>
        <pt x="207" y="276" on="1"/>
        <pt x="186" y="249" on="0"/>
        <pt x="162" y="241" on="1"/>
        <pt x="149" y="263" on="0"/>
        <pt x="119" y="285" on="0"/>
        <pt x="99" y="288" on="0"/>
        <pt x="81" y="288" on="1"/>
        <pt x="81" y="263" on="1"/>
        <pt x="147" y="263" on="0"/>
        <pt x="147" y="179" on="1"/>
        <pt x="147" y="103" on="0"/>
        <pt x="115" y="84" on="1"/>
        <pt x="100" y="76" on="0"/>
        <pt x="77" y="76" on="1"/>
        <pt x="61" y="80" on="1"/>
        <pt x="81" y="30" on="0"/>
        <pt x="168" y="30" on="0"/>
        <pt x="204" y="61" on="1"/>
      </contour>
      <contour>
        <pt x="221" y="825" on="1"/>
        <pt x="221" y="783" on="1"/>
        <pt x="221" y="754" on="0"/>
        <pt x="169" y="725" on="0"/>
        <pt x="138" y="725" on="1"/>
        <pt x="93" y="725" on="0"/>
        <pt x="15" y="808" on="0"/>
        <pt x="15" y="843" on="1"/>
        <pt x="15" y="885" on="1"/>
        <pt x="15" y="914" on="0"/>
        <pt x="67" y="943" on="0"/>
        <pt x="98" y="943" on="1"/>
        <pt x="146" y="943" on="0"/>
        <pt x="221" y="872" on="0"/>
      </contour>
      <contour>
        <pt x="42" y="812" on="0"/>
        <pt x="154" y="812" on="0"/>
        <pt x="154" y="857" on="1"/>
        <pt x="154" y="871" on="1"/>
        <pt x="154" y="916" on="0"/>
        <pt x="42" y="916" on="0"/>
        <pt x="42" y="871" on="1"/>
        <pt x="42" y="857" on="1"/>
      </contour>
      <contour>
        <pt x="447" y="825" on="1"/>
        <pt x="447" y="783" on="1"/>
        <pt x="447" y="754" on="0"/>
        <pt x="395" y="725" on="0"/>
        <pt x="364" y="725" on="1"/>
        <pt x="319" y="725" on="0"/>
        <pt x="241" y="808" on="0"/>
        <pt x="241" y="843" on="1"/>
        <pt x="241" y="885" on="1"/>
        <pt x="241" y="914" on="0"/>
        <pt x="293" y="943" on="0"/>
        <pt x="324" y="943" on="1"/>
        <pt x="372" y="943" on="0"/>
        <pt x="447" y="872" on="0"/>
      </contour>
      <contour>
        <pt x="268" y="812" on="0"/>
        <pt x="380" y="812" on="0"/>
        <pt x="380" y="857" on="1"/>
        <pt x="380" y="871" on="1"/>
        <pt x="380" y="916" on="0"/>
        <pt x="268" y="916" on="0"/>
        <pt x="268" y="871" on="1"/>
        <pt x="268" y="857" on="1"/>
      </contour>
    </TTGlyph>
    <TTGlyph name="Igrave" xMin="28" yMin="-60" xMax="436" yMax="943">
      <contour>
        <pt x="410" y="499" on="1"/>
        <pt x="350" y="499" on="1"/>
        <pt x="350" y="312" on="1"/>
        <pt x="358" y="312" on="1"/>
        <pt x="408" y="252" on="1"/>
        <pt x="408" y="179" on="1"/>
        <pt x="369" y="179" on="0"/>
        <pt x="346" y="151" on="0"/>
        <pt x="346" y="120" on="1"/>
        <pt x="346" y="105" on="1"/>
        <pt x="353" y="105" on="0"/>
        <pt x="358" y="113" on="1"/>
        <pt x="386" y="95" on="1"/>
        <pt x="436" y="35" on="1"/>
        <pt x="430" y="-12" on="0"/>
        <pt x="374" y="-60" on="0"/>
        <pt x="295" y="-60" on="0"/>
        <pt x="257" y="-33" on="1"/>
        <pt x="219" y="-60" on="0"/>
        <pt x="138" y="-60" on="0"/>
        <pt x="34" y="36" on="0"/>
        <pt x="28" y="95" on="1"/>
        <pt x="56" y="113" on="1"/>
        <pt x="60" y="104" on="0"/>
        <pt x="75" y="104" on="1"/>
        <pt x="118" y="104" on="0"/>
        <pt x="118" y="179" on="1"/>
        <pt x="106" y="179" on="1"/>
        <pt x="56" y="239" on="1"/>
        <pt x="56" y="312" on="1"/>
        <pt x="97" y="312" on="0"/>
        <pt x="114" y="309" on="1"/>
        <pt x="114" y="499" on="1"/>
        <pt x="106" y="499" on="1"/>
        <pt x="56" y="559" on="1"/>
        <pt x="56" y="700" on="1"/>
        <pt x="360" y="700" on="1"/>
        <pt x="410" y="640" on="1"/>
      </contour>
      <contour>
        <pt x="170" y="279" on="1"/>
        <pt x="180" y="285" on="0"/>
        <pt x="194" y="303" on="1"/>
        <pt x="220" y="303" on="1"/>
        <pt x="233" y="285" on="0"/>
        <pt x="244" y="279" on="1"/>
        <pt x="254" y="293" on="0"/>
        <pt x="270" y="301" on="1"/>
        <pt x="270" y="587" on="1"/>
        <pt x="332" y="587" on="1"/>
        <pt x="332" y="672" on="1"/>
        <pt x="84" y="672" on="1"/>
        <pt x="84" y="587" on="1"/>
        <pt x="144" y="587" on="1"/>
        <pt x="144" y="301" on="1"/>
        <pt x="158" y="294" on="0"/>
      </contour>
      <contour>
        <pt x="210" y="61" on="1"/>
        <pt x="246" y="30" on="0"/>
        <pt x="333" y="30" on="0"/>
        <pt x="353" y="80" on="1"/>
        <pt x="346" y="76" on="0"/>
        <pt x="337" y="76" on="1"/>
        <pt x="267" y="76" on="0"/>
        <pt x="267" y="179" on="1"/>
        <pt x="267" y="263" on="0"/>
        <pt x="333" y="263" on="1"/>
        <pt x="333" y="288" on="1"/>
        <pt x="314" y="288" on="0"/>
        <pt x="294" y="285" on="0"/>
        <pt x="264" y="263" on="0"/>
        <pt x="252" y="241" on="1"/>
        <pt x="228" y="246" on="0"/>
        <pt x="207" y="276" on="1"/>
        <pt x="186" y="249" on="0"/>
        <pt x="162" y="241" on="1"/>
        <pt x="149" y="263" on="0"/>
        <pt x="119" y="285" on="0"/>
        <pt x="99" y="288" on="0"/>
        <pt x="81" y="288" on="1"/>
        <pt x="81" y="263" on="1"/>
        <pt x="147" y="263" on="0"/>
        <pt x="147" y="179" on="1"/>
        <pt x="147" y="103" on="0"/>
        <pt x="115" y="84" on="1"/>
        <pt x="100" y="76" on="0"/>
        <pt x="77" y="76" on="1"/>
        <pt x="61" y="80" on="1"/>
        <pt x="81" y="30" on="0"/>
        <pt x="168" y="30" on="0"/>
        <pt x="204" y="61" on="1"/>
      </contour>
      <contour>
        <pt x="329" y="723" on="1"/>
        <pt x="243" y="723" on="1"/>
        <pt x="193" y="783" on="1"/>
        <pt x="133" y="943" on="1"/>
        <pt x="269" y="943" on="1"/>
        <pt x="319" y="883" on="1"/>
      </contour>
      <contour>
        <pt x="214" y="809" on="1"/>
        <pt x="250" y="809" on="1"/>
        <pt x="240" y="918" on="1"/>
        <pt x="172" y="918" on="1"/>
      </contour>
    </TTGlyph>
    <TTGlyph name="J" xMin="0" yMin="-72" xMax="631" yMax="700">
      <contour>
        <pt x="335" y="499" on="1"/>
        <pt x="327" y="499" on="1"/>
        <pt x="277" y="559" on="1"/>
        <pt x="277" y="700" on="1"/>
        <pt x="581" y="700" on="1"/>
        <pt x="631" y="640" on="1"/>
        <pt x="631" y="499" on="1"/>
        <pt x="571" y="499" on="1"/>
        <pt x="571" y="312" on="1"/>
        <pt x="581" y="312" on="1"/>
        <pt x="631" y="252" on="1"/>
        <pt x="631" y="179" on="1"/>
        <pt x="593" y="179" on="0"/>
        <pt x="570" y="150" on="0"/>
        <pt x="570" y="121" on="1"/>
        <pt x="570" y="106" on="1"/>
        <pt x="570" y="55" on="0"/>
        <pt x="525" y="-19" on="0"/>
        <pt x="486" y="-38" on="1"/>
        <pt x="412" y="-72" on="0"/>
        <pt x="239" y="-72" on="0"/>
        <pt x="98" y="-15" on="0"/>
        <pt x="0" y="97" on="0"/>
        <pt x="0" y="166" on="1"/>
        <pt x="0" y="220" on="1"/>
        <pt x="110" y="220" on="1"/>
        <pt x="124" y="193" on="0"/>
        <pt x="134" y="187" on="1"/>
        <pt x="154" y="216" on="0"/>
        <pt x="198" y="219" on="1"/>
        <pt x="213" y="220" on="0"/>
        <pt x="246" y="220" on="1"/>
        <pt x="296" y="160" on="1"/>
        <pt x="296" y="108" on="1"/>
        <pt x="319" y="117" on="0"/>
        <pt x="331" y="138" on="1"/>
        <pt x="299" y="177" on="1"/>
        <pt x="299" y="246" on="1"/>
        <pt x="314" y="247" on="0"/>
        <pt x="335" y="251" on="1"/>
      </contour>
      <contour>
        <pt x="490" y="181" on="1"/>
        <pt x="490" y="262" on="0"/>
        <pt x="556" y="262" on="1"/>
        <pt x="556" y="286" on="1"/>
        <pt x="513" y="286" on="0"/>
        <pt x="493" y="263" on="1"/>
        <pt x="485" y="253" on="0"/>
        <pt x="478" y="241" on="1"/>
        <pt x="454" y="247" on="0"/>
        <pt x="432" y="271" on="1"/>
        <pt x="421" y="256" on="0"/>
        <pt x="362" y="227" on="0"/>
        <pt x="330" y="224" on="1"/>
        <pt x="330" y="203" on="1"/>
        <pt x="366" y="203" on="1"/>
        <pt x="366" y="174" on="1"/>
        <pt x="366" y="124" on="0"/>
        <pt x="303" y="73" on="0"/>
        <pt x="233" y="73" on="0"/>
        <pt x="186" y="104" on="0"/>
        <pt x="186" y="135" on="1"/>
        <pt x="186" y="151" on="0"/>
        <pt x="207" y="170" on="0"/>
        <pt x="221" y="170" on="1"/>
        <pt x="221" y="194" on="1"/>
        <pt x="203" y="194" on="0"/>
        <pt x="183" y="191" on="0"/>
        <pt x="152" y="170" on="0"/>
        <pt x="140" y="149" on="1"/>
        <pt x="114" y="156" on="0"/>
        <pt x="97" y="191" on="1"/>
        <pt x="28" y="191" on="1"/>
        <pt x="28" y="167" on="1"/>
        <pt x="28" y="113" on="0"/>
        <pt x="99" y="43" on="0"/>
        <pt x="199" y="17" on="0"/>
        <pt x="262" y="17" on="1"/>
        <pt x="359" y="17" on="0"/>
        <pt x="490" y="88" on="0"/>
        <pt x="490" y="167" on="1"/>
      </contour>
      <contour>
        <pt x="365" y="587" on="1"/>
        <pt x="365" y="261" on="1"/>
        <pt x="403" y="276" on="0"/>
        <pt x="428" y="303" on="1"/>
        <pt x="445" y="303" on="1"/>
        <pt x="459" y="285" on="0"/>
        <pt x="469" y="279" on="1"/>
        <pt x="478" y="289" on="1"/>
        <pt x="484" y="294" on="0"/>
        <pt x="491" y="299" on="1"/>
        <pt x="491" y="587" on="1"/>
        <pt x="553" y="587" on="1"/>
        <pt x="553" y="672" on="1"/>
        <pt x="305" y="672" on="1"/>
        <pt x="305" y="587" on="1"/>
      </contour>
    </TTGlyph>
    <TTGlyph name="K" xMin="20" yMin="-60" xMax="725" yMax="700">
      <contour>
        <pt x="411" y="179" on="1"/>
        <pt x="399" y="179" on="1"/>
        <pt x="360" y="179" on="0"/>
        <pt x="339" y="151" on="0"/>
        <pt x="339" y="120" on="1"/>
        <pt x="339" y="105" on="1"/>
        <pt x="345" y="108" on="0"/>
        <pt x="349" y="113" on="1"/>
        <pt x="427" y="35" on="1"/>
        <pt x="421" y="-12" on="0"/>
        <pt x="365" y="-60" on="0"/>
        <pt x="289" y="-60" on="0"/>
        <pt x="249" y="-33" on="1"/>
        <pt x="209" y="-60" on="0"/>
        <pt x="171" y="-60" on="1"/>
        <pt x="117" y="-60" on="0"/>
        <pt x="27" y="41" on="0"/>
        <pt x="20" y="95" on="1"/>
        <pt x="48" y="113" on="1"/>
        <pt x="53" y="104" on="0"/>
        <pt x="87" y="104" on="0"/>
        <pt x="106" y="131" on="0"/>
        <pt x="109" y="157" on="0"/>
        <pt x="109" y="179" on="1"/>
        <pt x="98" y="179" on="1"/>
        <pt x="48" y="239" on="1"/>
        <pt x="48" y="312" on="1"/>
        <pt x="89" y="312" on="0"/>
        <pt x="106" y="309" on="1"/>
        <pt x="106" y="499" on="1"/>
        <pt x="98" y="499" on="1"/>
        <pt x="48" y="559" on="1"/>
        <pt x="48" y="700" on="1"/>
        <pt x="332" y="700" on="1"/>
        <pt x="382" y="640" on="1"/>
        <pt x="382" y="518" on="1"/>
        <pt x="407" y="547" on="1"/>
        <pt x="391" y="559" on="1"/>
        <pt x="391" y="700" on="1"/>
        <pt x="651" y="700" on="1"/>
        <pt x="701" y="640" on="1"/>
        <pt x="701" y="499" on="1"/>
        <pt x="649" y="499" on="1"/>
        <pt x="499" y="324" on="1"/>
        <pt x="522" y="299" on="1"/>
        <pt x="577" y="286" on="0"/>
        <pt x="637" y="183" on="0"/>
        <pt x="637" y="119" on="1"/>
        <pt x="637" y="105" on="1"/>
        <pt x="644" y="108" on="0"/>
        <pt x="648" y="113" on="1"/>
        <pt x="675" y="95" on="1"/>
        <pt x="725" y="35" on="1"/>
        <pt x="720" y="-15" on="0"/>
        <pt x="656" y="-60" on="0"/>
        <pt x="520" y="-60" on="0"/>
        <pt x="411" y="57" on="0"/>
        <pt x="411" y="148" on="1"/>
      </contour>
      <contour>
        <pt x="162" y="279" on="1"/>
        <pt x="172" y="285" on="0"/>
        <pt x="186" y="303" on="1"/>
        <pt x="212" y="303" on="1"/>
        <pt x="225" y="285" on="0"/>
        <pt x="237" y="279" on="1"/>
        <pt x="259" y="308" on="0"/>
        <pt x="300" y="311" on="1"/>
        <pt x="315" y="312" on="0"/>
        <pt x="384" y="312" on="0"/>
        <pt x="400" y="311" on="1"/>
        <pt x="443" y="308" on="0"/>
        <pt x="465" y="279" on="1"/>
        <pt x="474" y="283" on="0"/>
        <pt x="486" y="298" on="1"/>
        <pt x="408" y="379" on="1"/>
        <pt x="585" y="587" on="1"/>
        <pt x="623" y="587" on="1"/>
        <pt x="623" y="672" on="1"/>
        <pt x="418" y="672" on="1"/>
        <pt x="418" y="587" on="1"/>
        <pt x="477" y="587" on="1"/>
        <pt x="299" y="381" on="1"/>
        <pt x="262" y="381" on="1"/>
        <pt x="262" y="587" on="1"/>
        <pt x="304" y="587" on="1"/>
        <pt x="304" y="672" on="1"/>
        <pt x="76" y="672" on="1"/>
        <pt x="76" y="587" on="1"/>
        <pt x="136" y="587" on="1"/>
        <pt x="136" y="301" on="1"/>
        <pt x="151" y="293" on="0"/>
      </contour>
      <contour>
        <pt x="324" y="288" on="1"/>
        <pt x="306" y="288" on="0"/>
        <pt x="287" y="285" on="0"/>
        <pt x="257" y="263" on="0"/>
        <pt x="245" y="241" on="1"/>
        <pt x="220" y="246" on="0"/>
        <pt x="199" y="276" on="1"/>
        <pt x="178" y="249" on="0"/>
        <pt x="153" y="241" on="1"/>
        <pt x="141" y="263" on="0"/>
        <pt x="111" y="285" on="0"/>
        <pt x="92" y="288" on="0"/>
        <pt x="75" y="288" on="1"/>
        <pt x="75" y="263" on="1"/>
        <pt x="139" y="263" on="0"/>
        <pt x="139" y="179" on="1"/>
        <pt x="139" y="148" on="0"/>
        <pt x="132" y="109" on="0"/>
        <pt x="100" y="76" on="0"/>
        <pt x="70" y="76" on="1"/>
        <pt x="55" y="80" on="1"/>
        <pt x="75" y="30" on="0"/>
        <pt x="161" y="30" on="0"/>
        <pt x="196" y="61" on="1"/>
        <pt x="202" y="61" on="1"/>
        <pt x="237" y="30" on="0"/>
        <pt x="322" y="30" on="0"/>
        <pt x="344" y="80" on="1"/>
        <pt x="339" y="76" on="0"/>
        <pt x="305" y="76" on="0"/>
        <pt x="276" y="93" on="0"/>
        <pt x="270" y="109" on="1"/>
        <pt x="260" y="136" on="0"/>
        <pt x="260" y="179" on="1"/>
        <pt x="260" y="263" on="0"/>
        <pt x="324" y="263" on="1"/>
        <pt x="376" y="263" on="1"/>
        <pt x="441" y="263" on="0"/>
        <pt x="441" y="179" on="1"/>
        <pt x="441" y="153" on="1"/>
        <pt x="441" y="30" on="0"/>
        <pt x="545" y="30" on="1"/>
        <pt x="598" y="30" on="0"/>
        <pt x="619" y="48" on="1"/>
        <pt x="639" y="64" on="0"/>
        <pt x="642" y="80" on="1"/>
        <pt x="636" y="76" on="0"/>
        <pt x="627" y="76" on="1"/>
        <pt x="586" y="76" on="0"/>
        <pt x="560" y="132" on="0"/>
        <pt x="560" y="183" on="1"/>
        <pt x="560" y="257" on="0"/>
        <pt x="501" y="276" on="1"/>
        <pt x="482" y="249" on="0"/>
        <pt x="457" y="241" on="1"/>
        <pt x="444" y="263" on="0"/>
        <pt x="414" y="285" on="0"/>
        <pt x="394" y="288" on="0"/>
        <pt x="376" y="288" on="1"/>
      </contour>
    </TTGlyph>
    <TTGlyph name="L" xMin="21" yMin="-60" xMax="633" yMax="700">
      <contour>
        <pt x="404" y="499" on="1"/>
        <pt x="344" y="499" on="1"/>
        <pt x="344" y="312" on="1"/>
        <pt x="351" y="312" on="1"/>
        <pt x="401" y="252" on="1"/>
        <pt x="401" y="179" on="1"/>
        <pt x="385" y="178" on="0"/>
        <pt x="365" y="175" on="0"/>
        <pt x="343" y="157" on="0"/>
        <pt x="343" y="140" on="1"/>
        <pt x="343" y="136" on="1"/>
        <pt x="357" y="131" on="0"/>
        <pt x="409" y="131" on="0"/>
        <pt x="455" y="163" on="0"/>
        <pt x="455" y="192" on="1"/>
        <pt x="455" y="197" on="0"/>
        <pt x="449" y="221" on="1"/>
        <pt x="449" y="253" on="1"/>
        <pt x="565" y="253" on="1"/>
        <pt x="615" y="193" on="1"/>
        <pt x="615" y="13" on="1"/>
        <pt x="615" y="-22" on="0"/>
        <pt x="633" y="-33" on="1"/>
        <pt x="615" y="-60" on="1"/>
        <pt x="589" y="-60" on="0"/>
        <pt x="532" y="-34" on="0"/>
        <pt x="516" y="-19" on="1"/>
        <pt x="499" y="-34" on="0"/>
        <pt x="418" y="-60" on="0"/>
        <pt x="382" y="-60" on="1"/>
        <pt x="309" y="-60" on="0"/>
        <pt x="263" y="-21" on="1"/>
        <pt x="222" y="-60" on="0"/>
        <pt x="117" y="-60" on="0"/>
        <pt x="28" y="41" on="0"/>
        <pt x="21" y="95" on="1"/>
        <pt x="49" y="113" on="1"/>
        <pt x="54" y="105" on="0"/>
        <pt x="69" y="105" on="1"/>
        <pt x="109" y="105" on="0"/>
        <pt x="109" y="179" on="1"/>
        <pt x="99" y="179" on="1"/>
        <pt x="49" y="239" on="1"/>
        <pt x="49" y="312" on="1"/>
        <pt x="91" y="312" on="0"/>
        <pt x="108" y="309" on="1"/>
        <pt x="108" y="499" on="1"/>
        <pt x="100" y="499" on="1"/>
        <pt x="50" y="559" on="1"/>
        <pt x="50" y="700" on="1"/>
        <pt x="354" y="700" on="1"/>
        <pt x="404" y="640" on="1"/>
      </contour>
      <contour>
        <pt x="482" y="188" on="1"/>
        <pt x="482" y="148" on="0"/>
        <pt x="421" y="102" on="0"/>
        <pt x="333" y="102" on="0"/>
        <pt x="264" y="153" on="0"/>
        <pt x="264" y="205" on="1"/>
        <pt x="264" y="223" on="0"/>
        <pt x="293" y="262" on="0"/>
        <pt x="325" y="262" on="1"/>
        <pt x="325" y="286" on="1"/>
        <pt x="307" y="286" on="0"/>
        <pt x="288" y="283" on="0"/>
        <pt x="258" y="262" on="0"/>
        <pt x="246" y="241" on="1"/>
        <pt x="222" y="246" on="0"/>
        <pt x="200" y="275" on="1"/>
        <pt x="182" y="249" on="0"/>
        <pt x="155" y="241" on="1"/>
        <pt x="142" y="262" on="0"/>
        <pt x="112" y="283" on="0"/>
        <pt x="93" y="286" on="0"/>
        <pt x="75" y="286" on="1"/>
        <pt x="75" y="262" on="1"/>
        <pt x="109" y="262" on="0"/>
        <pt x="140" y="215" on="0"/>
        <pt x="140" y="131" on="0"/>
        <pt x="113" y="77" on="0"/>
        <pt x="70" y="77" on="1"/>
        <pt x="56" y="79" on="1"/>
        <pt x="74" y="28" on="0"/>
        <pt x="164" y="28" on="0"/>
        <pt x="207" y="73" on="1"/>
        <pt x="216" y="73" on="1"/>
        <pt x="220" y="69" on="1"/>
        <pt x="268" y="29" on="0"/>
        <pt x="405" y="29" on="0"/>
        <pt x="466" y="76" on="1"/>
        <pt x="475" y="67" on="0"/>
        <pt x="531" y="34" on="0"/>
        <pt x="547" y="31" on="1"/>
        <pt x="538" y="41" on="0"/>
        <pt x="538" y="83" on="1"/>
        <pt x="538" y="223" on="1"/>
        <pt x="477" y="223" on="1"/>
        <pt x="482" y="206" on="0"/>
      </contour>
      <contour>
        <pt x="163" y="279" on="1"/>
        <pt x="173" y="285" on="0"/>
        <pt x="187" y="303" on="1"/>
        <pt x="214" y="303" on="1"/>
        <pt x="227" y="285" on="0"/>
        <pt x="237" y="279" on="1"/>
        <pt x="248" y="293" on="0"/>
        <pt x="264" y="301" on="1"/>
        <pt x="264" y="587" on="1"/>
        <pt x="326" y="587" on="1"/>
        <pt x="326" y="672" on="1"/>
        <pt x="78" y="672" on="1"/>
        <pt x="78" y="587" on="1"/>
        <pt x="138" y="587" on="1"/>
        <pt x="138" y="300" on="1"/>
        <pt x="151" y="293" on="0"/>
      </contour>
    </TTGlyph>
    <TTGlyph name="M" xMin="15" yMin="-60" xMax="900" yMax="700">
      <contour>
        <pt x="337" y="312" on="1"/>
        <pt x="345" y="312" on="1"/>
        <pt x="395" y="252" on="1"/>
        <pt x="395" y="179" on="1"/>
        <pt x="356" y="179" on="0"/>
        <pt x="333" y="151" on="0"/>
        <pt x="333" y="120" on="1"/>
        <pt x="333" y="105" on="1"/>
        <pt x="340" y="105" on="0"/>
        <pt x="345" y="113" on="1"/>
        <pt x="373" y="95" on="1"/>
        <pt x="423" y="35" on="1"/>
        <pt x="417" y="-12" on="0"/>
        <pt x="361" y="-60" on="0"/>
        <pt x="282" y="-60" on="0"/>
        <pt x="244" y="-33" on="1"/>
        <pt x="206" y="-60" on="0"/>
        <pt x="125" y="-60" on="0"/>
        <pt x="21" y="36" on="0"/>
        <pt x="15" y="95" on="1"/>
        <pt x="43" y="113" on="1"/>
        <pt x="47" y="104" on="0"/>
        <pt x="62" y="104" on="1"/>
        <pt x="105" y="104" on="0"/>
        <pt x="105" y="179" on="1"/>
        <pt x="93" y="179" on="1"/>
        <pt x="43" y="239" on="1"/>
        <pt x="43" y="312" on="1"/>
        <pt x="84" y="312" on="0"/>
        <pt x="101" y="309" on="1"/>
        <pt x="101" y="499" on="1"/>
        <pt x="93" y="499" on="1"/>
        <pt x="43" y="559" on="1"/>
        <pt x="43" y="700" on="1"/>
        <pt x="282" y="700" on="1"/>
        <pt x="443" y="505" on="1"/>
        <pt x="606" y="700" on="1"/>
        <pt x="824" y="700" on="1"/>
        <pt x="874" y="640" on="1"/>
        <pt x="874" y="499" on="1"/>
        <pt x="814" y="499" on="1"/>
        <pt x="814" y="312" on="1"/>
        <pt x="822" y="312" on="1"/>
        <pt x="872" y="252" on="1"/>
        <pt x="872" y="179" on="1"/>
        <pt x="833" y="179" on="0"/>
        <pt x="810" y="151" on="0"/>
        <pt x="810" y="120" on="1"/>
        <pt x="810" y="105" on="1"/>
        <pt x="817" y="105" on="0"/>
        <pt x="822" y="113" on="1"/>
        <pt x="850" y="95" on="1"/>
        <pt x="900" y="35" on="1"/>
        <pt x="894" y="-12" on="0"/>
        <pt x="838" y="-60" on="0"/>
        <pt x="759" y="-60" on="0"/>
        <pt x="721" y="-33" on="1"/>
        <pt x="683" y="-60" on="0"/>
        <pt x="602" y="-60" on="0"/>
        <pt x="498" y="36" on="0"/>
        <pt x="492" y="95" on="1"/>
        <pt x="520" y="113" on="1"/>
        <pt x="524" y="104" on="0"/>
        <pt x="539" y="104" on="1"/>
        <pt x="582" y="104" on="0"/>
        <pt x="582" y="179" on="1"/>
        <pt x="570" y="179" on="1"/>
        <pt x="520" y="239" on="1"/>
        <pt x="520" y="256" on="1"/>
        <pt x="494" y="224" on="1"/>
        <pt x="471" y="224" on="1"/>
        <pt x="421" y="283" on="1"/>
        <pt x="337" y="389" on="1"/>
      </contour>
      <contour>
        <pt x="634" y="279" on="1"/>
        <pt x="644" y="285" on="0"/>
        <pt x="658" y="303" on="1"/>
        <pt x="684" y="303" on="1"/>
        <pt x="697" y="285" on="0"/>
        <pt x="708" y="279" on="1"/>
        <pt x="718" y="293" on="0"/>
        <pt x="734" y="301" on="1"/>
        <pt x="734" y="587" on="1"/>
        <pt x="796" y="587" on="1"/>
        <pt x="796" y="672" on="1"/>
        <pt x="620" y="672" on="1"/>
        <pt x="444" y="465" on="1"/>
        <pt x="421" y="465" on="1"/>
        <pt x="246" y="672" on="1"/>
        <pt x="71" y="672" on="1"/>
        <pt x="71" y="587" on="1"/>
        <pt x="131" y="587" on="1"/>
        <pt x="131" y="301" on="1"/>
        <pt x="145" y="294" on="0"/>
        <pt x="157" y="279" on="1"/>
        <pt x="167" y="285" on="0"/>
        <pt x="181" y="303" on="1"/>
        <pt x="207" y="303" on="1"/>
        <pt x="220" y="285" on="0"/>
        <pt x="231" y="279" on="1"/>
        <pt x="242" y="294" on="0"/>
        <pt x="260" y="302" on="1"/>
        <pt x="260" y="492" on="1"/>
        <pt x="287" y="492" on="1"/>
        <pt x="432" y="311" on="1"/>
        <pt x="578" y="492" on="1"/>
        <pt x="605" y="492" on="1"/>
        <pt x="605" y="302" on="1"/>
        <pt x="621" y="295" on="0"/>
      </contour>
      <contour>
        <pt x="197" y="61" on="1"/>
        <pt x="233" y="30" on="0"/>
        <pt x="320" y="30" on="0"/>
        <pt x="340" y="80" on="1"/>
        <pt x="333" y="76" on="0"/>
        <pt x="324" y="76" on="1"/>
        <pt x="254" y="76" on="0"/>
        <pt x="254" y="179" on="1"/>
        <pt x="254" y="263" on="0"/>
        <pt x="320" y="263" on="1"/>
        <pt x="320" y="288" on="1"/>
        <pt x="301" y="288" on="0"/>
        <pt x="281" y="285" on="0"/>
        <pt x="251" y="263" on="0"/>
        <pt x="239" y="241" on="1"/>
        <pt x="215" y="246" on="0"/>
        <pt x="194" y="276" on="1"/>
        <pt x="173" y="249" on="0"/>
        <pt x="149" y="241" on="1"/>
        <pt x="136" y="263" on="0"/>
        <pt x="106" y="285" on="0"/>
        <pt x="86" y="288" on="0"/>
        <pt x="68" y="288" on="1"/>
        <pt x="68" y="263" on="1"/>
        <pt x="134" y="263" on="0"/>
        <pt x="134" y="179" on="1"/>
        <pt x="134" y="103" on="0"/>
        <pt x="102" y="84" on="1"/>
        <pt x="87" y="76" on="0"/>
        <pt x="64" y="76" on="1"/>
        <pt x="48" y="80" on="1"/>
        <pt x="68" y="30" on="0"/>
        <pt x="155" y="30" on="0"/>
        <pt x="191" y="61" on="1"/>
      </contour>
      <contour>
        <pt x="674" y="61" on="1"/>
        <pt x="710" y="30" on="0"/>
        <pt x="797" y="30" on="0"/>
        <pt x="817" y="80" on="1"/>
        <pt x="810" y="76" on="0"/>
        <pt x="801" y="76" on="1"/>
        <pt x="731" y="76" on="0"/>
        <pt x="731" y="179" on="1"/>
        <pt x="731" y="263" on="0"/>
        <pt x="797" y="263" on="1"/>
        <pt x="797" y="288" on="1"/>
        <pt x="778" y="288" on="0"/>
        <pt x="758" y="285" on="0"/>
        <pt x="728" y="263" on="0"/>
        <pt x="716" y="241" on="1"/>
        <pt x="692" y="246" on="0"/>
        <pt x="671" y="276" on="1"/>
        <pt x="650" y="249" on="0"/>
        <pt x="626" y="241" on="1"/>
        <pt x="599" y="287" on="0"/>
        <pt x="554" y="287" on="1"/>
        <pt x="545" y="287" on="1"/>
        <pt x="545" y="263" on="1"/>
        <pt x="611" y="263" on="0"/>
        <pt x="611" y="179" on="1"/>
        <pt x="611" y="103" on="0"/>
        <pt x="579" y="84" on="1"/>
        <pt x="564" y="76" on="0"/>
        <pt x="541" y="76" on="1"/>
        <pt x="525" y="80" on="1"/>
        <pt x="545" y="30" on="0"/>
        <pt x="632" y="30" on="0"/>
        <pt x="668" y="61" on="1"/>
      </contour>
    </TTGlyph>
    <TTGlyph name="N" xMin="15" yMin="-60" xMax="819" yMax="700">
      <contour>
        <pt x="624" y="-30" on="1"/>
        <pt x="611" y="-36" on="0"/>
        <pt x="607" y="-60" on="1"/>
        <pt x="561" y="-60" on="0"/>
        <pt x="505" y="-12" on="1"/>
        <pt x="478" y="11" on="0"/>
        <pt x="441" y="96" on="0"/>
        <pt x="441" y="148" on="1"/>
        <pt x="441" y="179" on="1"/>
        <pt x="429" y="179" on="1"/>
        <pt x="395" y="220" on="1"/>
        <pt x="395" y="179" on="1"/>
        <pt x="356" y="179" on="0"/>
        <pt x="333" y="151" on="0"/>
        <pt x="333" y="120" on="1"/>
        <pt x="333" y="105" on="1"/>
        <pt x="340" y="105" on="0"/>
        <pt x="345" y="113" on="1"/>
        <pt x="373" y="95" on="1"/>
        <pt x="423" y="35" on="1"/>
        <pt x="417" y="-12" on="0"/>
        <pt x="361" y="-60" on="0"/>
        <pt x="282" y="-60" on="0"/>
        <pt x="244" y="-33" on="1"/>
        <pt x="206" y="-60" on="0"/>
        <pt x="125" y="-60" on="0"/>
        <pt x="21" y="36" on="0"/>
        <pt x="15" y="95" on="1"/>
        <pt x="43" y="113" on="1"/>
        <pt x="47" y="104" on="0"/>
        <pt x="62" y="104" on="1"/>
        <pt x="105" y="104" on="0"/>
        <pt x="105" y="179" on="1"/>
        <pt x="93" y="179" on="1"/>
        <pt x="43" y="239" on="1"/>
        <pt x="43" y="312" on="1"/>
        <pt x="83" y="312" on="0"/>
        <pt x="99" y="310" on="1"/>
        <pt x="99" y="499" on="1"/>
        <pt x="91" y="499" on="1"/>
        <pt x="41" y="559" on="1"/>
        <pt x="41" y="700" on="1"/>
        <pt x="275" y="700" on="1"/>
        <pt x="499" y="433" on="1"/>
        <pt x="499" y="499" on="1"/>
        <pt x="488" y="499" on="1"/>
        <pt x="438" y="559" on="1"/>
        <pt x="438" y="700" on="1"/>
        <pt x="742" y="700" on="1"/>
        <pt x="792" y="640" on="1"/>
        <pt x="792" y="499" on="1"/>
        <pt x="732" y="499" on="1"/>
        <pt x="732" y="312" on="1"/>
        <pt x="741" y="312" on="1"/>
        <pt x="791" y="252" on="1"/>
        <pt x="791" y="179" on="1"/>
        <pt x="752" y="179" on="0"/>
        <pt x="730" y="151" on="0"/>
        <pt x="730" y="120" on="1"/>
        <pt x="730" y="105" on="1"/>
        <pt x="737" y="107" on="0"/>
        <pt x="741" y="113" on="1"/>
        <pt x="819" y="35" on="1"/>
        <pt x="813" y="-12" on="0"/>
        <pt x="756" y="-60" on="0"/>
        <pt x="696" y="-60" on="0"/>
        <pt x="640" y="-43" on="0"/>
      </contour>
      <contour>
        <pt x="157" y="279" on="1"/>
        <pt x="167" y="285" on="0"/>
        <pt x="181" y="303" on="1"/>
        <pt x="207" y="303" on="1"/>
        <pt x="220" y="285" on="0"/>
        <pt x="231" y="279" on="1"/>
        <pt x="242" y="293" on="0"/>
        <pt x="258" y="301" on="1"/>
        <pt x="258" y="492" on="1"/>
        <pt x="286" y="492" on="1"/>
        <pt x="432" y="310" on="1"/>
        <pt x="473" y="305" on="0"/>
        <pt x="494" y="279" on="1"/>
        <pt x="504" y="285" on="0"/>
        <pt x="518" y="303" on="1"/>
        <pt x="601" y="303" on="1"/>
        <pt x="614" y="285" on="0"/>
        <pt x="626" y="279" on="1"/>
        <pt x="639" y="293" on="0"/>
        <pt x="652" y="300" on="1"/>
        <pt x="652" y="587" on="1"/>
        <pt x="714" y="587" on="1"/>
        <pt x="714" y="672" on="1"/>
        <pt x="466" y="672" on="1"/>
        <pt x="466" y="587" on="1"/>
        <pt x="526" y="587" on="1"/>
        <pt x="526" y="377" on="1"/>
        <pt x="492" y="377" on="1"/>
        <pt x="244" y="672" on="1"/>
        <pt x="69" y="672" on="1"/>
        <pt x="69" y="587" on="1"/>
        <pt x="129" y="587" on="1"/>
        <pt x="129" y="302" on="1"/>
        <pt x="145" y="294" on="0"/>
      </contour>
      <contour>
        <pt x="667" y="30" on="1"/>
        <pt x="716" y="30" on="0"/>
        <pt x="735" y="80" on="1"/>
        <pt x="729" y="76" on="0"/>
        <pt x="720" y="76" on="1"/>
        <pt x="690" y="76" on="0"/>
        <pt x="657" y="109" on="0"/>
        <pt x="650" y="148" on="0"/>
        <pt x="650" y="179" on="1"/>
        <pt x="650" y="263" on="0"/>
        <pt x="715" y="263" on="1"/>
        <pt x="715" y="288" on="1"/>
        <pt x="697" y="288" on="0"/>
        <pt x="678" y="285" on="0"/>
        <pt x="647" y="263" on="0"/>
        <pt x="634" y="241" on="1"/>
        <pt x="610" y="246" on="0"/>
        <pt x="589" y="276" on="1"/>
        <pt x="530" y="276" on="1"/>
        <pt x="509" y="248" on="0"/>
        <pt x="485" y="241" on="1"/>
        <pt x="472" y="263" on="0"/>
        <pt x="442" y="285" on="0"/>
        <pt x="423" y="288" on="0"/>
        <pt x="405" y="288" on="1"/>
        <pt x="405" y="263" on="1"/>
        <pt x="469" y="263" on="0"/>
        <pt x="469" y="179" on="1"/>
        <pt x="469" y="153" on="1"/>
        <pt x="469" y="75" on="0"/>
        <pt x="520" y="42" on="1"/>
        <pt x="530" y="36" on="0"/>
        <pt x="538" y="34" on="1"/>
        <pt x="546" y="62" on="0"/>
        <pt x="571" y="62" on="1"/>
        <pt x="588" y="48" on="0"/>
        <pt x="648" y="30" on="0"/>
      </contour>
      <contour>
        <pt x="197" y="61" on="1"/>
        <pt x="233" y="30" on="0"/>
        <pt x="320" y="30" on="0"/>
        <pt x="340" y="80" on="1"/>
        <pt x="333" y="76" on="0"/>
        <pt x="324" y="76" on="1"/>
        <pt x="254" y="76" on="0"/>
        <pt x="254" y="179" on="1"/>
        <pt x="254" y="263" on="0"/>
        <pt x="320" y="263" on="1"/>
        <pt x="320" y="288" on="1"/>
        <pt x="301" y="288" on="0"/>
        <pt x="281" y="285" on="0"/>
        <pt x="251" y="263" on="0"/>
        <pt x="239" y="241" on="1"/>
        <pt x="215" y="246" on="0"/>
        <pt x="194" y="276" on="1"/>
        <pt x="173" y="249" on="0"/>
        <pt x="149" y="241" on="1"/>
        <pt x="136" y="263" on="0"/>
        <pt x="106" y="285" on="0"/>
        <pt x="86" y="288" on="0"/>
        <pt x="68" y="288" on="1"/>
        <pt x="68" y="263" on="1"/>
        <pt x="134" y="263" on="0"/>
        <pt x="134" y="179" on="1"/>
        <pt x="134" y="103" on="0"/>
        <pt x="102" y="84" on="1"/>
        <pt x="87" y="76" on="0"/>
        <pt x="64" y="76" on="1"/>
        <pt x="48" y="80" on="1"/>
        <pt x="68" y="30" on="0"/>
        <pt x="155" y="30" on="0"/>
        <pt x="191" y="61" on="1"/>
      </contour>
      <contour>
        <pt x="335" y="312" on="1"/>
        <pt x="345" y="312" on="1"/>
        <pt x="379" y="271" on="1"/>
        <pt x="379" y="312" on="1"/>
        <pt x="393" y="312" on="1"/>
        <pt x="335" y="385" on="1"/>
      </contour>
    </TTGlyph>
    <TTGlyph name="Ntilde" xMin="15" yMin="-60" xMax="819" yMax="944">
      <contour>
        <pt x="624" y="-30" on="1"/>
        <pt x="611" y="-36" on="0"/>
        <pt x="607" y="-60" on="1"/>
        <pt x="561" y="-60" on="0"/>
        <pt x="505" y="-12" on="1"/>
        <pt x="478" y="11" on="0"/>
        <pt x="441" y="96" on="0"/>
        <pt x="441" y="148" on="1"/>
        <pt x="441" y="179" on="1"/>
        <pt x="429" y="179" on="1"/>
        <pt x="395" y="220" on="1"/>
        <pt x="395" y="179" on="1"/>
        <pt x="356" y="179" on="0"/>
        <pt x="333" y="151" on="0"/>
        <pt x="333" y="120" on="1"/>
        <pt x="333" y="105" on="1"/>
        <pt x="340" y="105" on="0"/>
        <pt x="345" y="113" on="1"/>
        <pt x="373" y="95" on="1"/>
        <pt x="423" y="35" on="1"/>
        <pt x="417" y="-12" on="0"/>
        <pt x="361" y="-60" on="0"/>
        <pt x="282" y="-60" on="0"/>
        <pt x="244" y="-33" on="1"/>
        <pt x="206" y="-60" on="0"/>
        <pt x="125" y="-60" on="0"/>
        <pt x="21" y="36" on="0"/>
        <pt x="15" y="95" on="1"/>
        <pt x="43" y="113" on="1"/>
        <pt x="47" y="104" on="0"/>
        <pt x="62" y="104" on="1"/>
        <pt x="105" y="104" on="0"/>
        <pt x="105" y="179" on="1"/>
        <pt x="93" y="179" on="1"/>
        <pt x="43" y="239" on="1"/>
        <pt x="43" y="312" on="1"/>
        <pt x="83" y="312" on="0"/>
        <pt x="99" y="310" on="1"/>
        <pt x="99" y="499" on="1"/>
        <pt x="91" y="499" on="1"/>
        <pt x="41" y="559" on="1"/>
        <pt x="41" y="700" on="1"/>
        <pt x="268" y="700" on="1"/>
        <pt x="221" y="766" on="1"/>
        <pt x="221" y="900" on="1"/>
        <pt x="274" y="944" on="0"/>
        <pt x="320" y="944" on="1"/>
        <pt x="344" y="944" on="0"/>
        <pt x="418" y="900" on="0"/>
        <pt x="444" y="900" on="1"/>
        <pt x="486" y="900" on="0"/>
        <pt x="543" y="933" on="1"/>
        <pt x="562" y="944" on="1"/>
        <pt x="612" y="884" on="1"/>
        <pt x="612" y="740" on="1"/>
        <pt x="570" y="711" on="0"/>
        <pt x="529" y="700" on="1"/>
        <pt x="742" y="700" on="1"/>
        <pt x="792" y="640" on="1"/>
        <pt x="792" y="499" on="1"/>
        <pt x="732" y="499" on="1"/>
        <pt x="732" y="312" on="1"/>
        <pt x="741" y="312" on="1"/>
        <pt x="791" y="252" on="1"/>
        <pt x="791" y="179" on="1"/>
        <pt x="752" y="179" on="0"/>
        <pt x="730" y="151" on="0"/>
        <pt x="730" y="120" on="1"/>
        <pt x="730" y="105" on="1"/>
        <pt x="737" y="107" on="0"/>
        <pt x="741" y="113" on="1"/>
        <pt x="819" y="35" on="1"/>
        <pt x="813" y="-12" on="0"/>
        <pt x="756" y="-60" on="0"/>
        <pt x="696" y="-60" on="0"/>
        <pt x="640" y="-43" on="0"/>
      </contour>
      <contour>
        <pt x="157" y="279" on="1"/>
        <pt x="167" y="285" on="0"/>
        <pt x="181" y="303" on="1"/>
        <pt x="207" y="303" on="1"/>
        <pt x="220" y="285" on="0"/>
        <pt x="231" y="279" on="1"/>
        <pt x="242" y="293" on="0"/>
        <pt x="258" y="301" on="1"/>
        <pt x="258" y="492" on="1"/>
        <pt x="286" y="492" on="1"/>
        <pt x="432" y="310" on="1"/>
        <pt x="473" y="305" on="0"/>
        <pt x="494" y="279" on="1"/>
        <pt x="504" y="285" on="0"/>
        <pt x="518" y="303" on="1"/>
        <pt x="601" y="303" on="1"/>
        <pt x="614" y="285" on="0"/>
        <pt x="626" y="279" on="1"/>
        <pt x="639" y="293" on="0"/>
        <pt x="652" y="300" on="1"/>
        <pt x="652" y="587" on="1"/>
        <pt x="714" y="587" on="1"/>
        <pt x="714" y="672" on="1"/>
        <pt x="466" y="672" on="1"/>
        <pt x="466" y="587" on="1"/>
        <pt x="526" y="587" on="1"/>
        <pt x="526" y="377" on="1"/>
        <pt x="492" y="377" on="1"/>
        <pt x="244" y="672" on="1"/>
        <pt x="69" y="672" on="1"/>
        <pt x="69" y="587" on="1"/>
        <pt x="129" y="587" on="1"/>
        <pt x="129" y="302" on="1"/>
        <pt x="145" y="294" on="0"/>
      </contour>
      <contour>
        <pt x="667" y="30" on="1"/>
        <pt x="716" y="30" on="0"/>
        <pt x="735" y="80" on="1"/>
        <pt x="729" y="76" on="0"/>
        <pt x="720" y="76" on="1"/>
        <pt x="690" y="76" on="0"/>
        <pt x="657" y="109" on="0"/>
        <pt x="650" y="148" on="0"/>
        <pt x="650" y="179" on="1"/>
        <pt x="650" y="263" on="0"/>
        <pt x="715" y="263" on="1"/>
        <pt x="715" y="288" on="1"/>
        <pt x="697" y="288" on="0"/>
        <pt x="678" y="285" on="0"/>
        <pt x="647" y="263" on="0"/>
        <pt x="634" y="241" on="1"/>
        <pt x="610" y="246" on="0"/>
        <pt x="589" y="276" on="1"/>
        <pt x="530" y="276" on="1"/>
        <pt x="509" y="248" on="0"/>
        <pt x="485" y="241" on="1"/>
        <pt x="472" y="263" on="0"/>
        <pt x="442" y="285" on="0"/>
        <pt x="423" y="288" on="0"/>
        <pt x="405" y="288" on="1"/>
        <pt x="405" y="263" on="1"/>
        <pt x="469" y="263" on="0"/>
        <pt x="469" y="179" on="1"/>
        <pt x="469" y="153" on="1"/>
        <pt x="469" y="75" on="0"/>
        <pt x="520" y="42" on="1"/>
        <pt x="530" y="36" on="0"/>
        <pt x="538" y="34" on="1"/>
        <pt x="546" y="62" on="0"/>
        <pt x="571" y="62" on="1"/>
        <pt x="588" y="48" on="0"/>
        <pt x="648" y="30" on="0"/>
      </contour>
      <contour>
        <pt x="197" y="61" on="1"/>
        <pt x="233" y="30" on="0"/>
        <pt x="320" y="30" on="0"/>
        <pt x="340" y="80" on="1"/>
        <pt x="333" y="76" on="0"/>
        <pt x="324" y="76" on="1"/>
        <pt x="254" y="76" on="0"/>
        <pt x="254" y="179" on="1"/>
        <pt x="254" y="263" on="0"/>
        <pt x="320" y="263" on="1"/>
        <pt x="320" y="288" on="1"/>
        <pt x="301" y="288" on="0"/>
        <pt x="281" y="285" on="0"/>
        <pt x="251" y="263" on="0"/>
        <pt x="239" y="241" on="1"/>
        <pt x="215" y="246" on="0"/>
        <pt x="194" y="276" on="1"/>
        <pt x="173" y="249" on="0"/>
        <pt x="149" y="241" on="1"/>
        <pt x="136" y="263" on="0"/>
        <pt x="106" y="285" on="0"/>
        <pt x="86" y="288" on="0"/>
        <pt x="68" y="288" on="1"/>
        <pt x="68" y="263" on="1"/>
        <pt x="134" y="263" on="0"/>
        <pt x="134" y="179" on="1"/>
        <pt x="134" y="103" on="0"/>
        <pt x="102" y="84" on="1"/>
        <pt x="87" y="76" on="0"/>
        <pt x="64" y="76" on="1"/>
        <pt x="48" y="80" on="1"/>
        <pt x="68" y="30" on="0"/>
        <pt x="155" y="30" on="0"/>
        <pt x="191" y="61" on="1"/>
      </contour>
      <contour>
        <pt x="246" y="800" on="1"/>
        <pt x="289" y="828" on="0"/>
        <pt x="337" y="828" on="0"/>
        <pt x="415" y="784" on="0"/>
        <pt x="486" y="784" on="0"/>
        <pt x="537" y="813" on="1"/>
        <pt x="537" y="902" on="1"/>
        <pt x="486" y="872" on="0"/>
        <pt x="418" y="872" on="0"/>
        <pt x="344" y="916" on="0"/>
        <pt x="283" y="916" on="0"/>
        <pt x="246" y="888" on="1"/>
      </contour>
      <contour>
        <pt x="438" y="700" on="1"/>
        <pt x="468" y="700" on="1"/>
        <pt x="448" y="705" on="0"/>
        <pt x="387" y="740" on="0"/>
        <pt x="370" y="740" on="1"/>
        <pt x="332" y="740" on="0"/>
        <pt x="275" y="699" on="1"/>
        <pt x="499" y="433" on="1"/>
        <pt x="499" y="499" on="1"/>
        <pt x="488" y="499" on="1"/>
        <pt x="438" y="559" on="1"/>
      </contour>
      <contour>
        <pt x="335" y="312" on="1"/>
        <pt x="345" y="312" on="1"/>
        <pt x="379" y="271" on="1"/>
        <pt x="379" y="312" on="1"/>
        <pt x="393" y="312" on="1"/>
        <pt x="335" y="385" on="1"/>
      </contour>
    </TTGlyph>
    <TTGlyph name="O" xMin="11" yMin="-72" xMax="737" yMax="712">
      <contour>
        <pt x="399" y="-72" on="1"/>
        <pt x="255" y="-72" on="0"/>
        <pt x="71" y="65" on="0"/>
        <pt x="71" y="168" on="1"/>
        <pt x="71" y="179" on="1"/>
        <pt x="61" y="179" on="1"/>
        <pt x="11" y="239" on="1"/>
        <pt x="11" y="312" on="1"/>
        <pt x="55" y="312" on="0"/>
        <pt x="72" y="309" on="1"/>
        <pt x="72" y="531" on="1"/>
        <pt x="72" y="583" on="0"/>
        <pt x="123" y="658" on="0"/>
        <pt x="166" y="677" on="1"/>
        <pt x="245" y="712" on="0"/>
        <pt x="349" y="712" on="1"/>
        <pt x="495" y="712" on="0"/>
        <pt x="676" y="579" on="0"/>
        <pt x="676" y="471" on="1"/>
        <pt x="676" y="312" on="1"/>
        <pt x="687" y="312" on="1"/>
        <pt x="737" y="252" on="1"/>
        <pt x="737" y="179" on="1"/>
        <pt x="699" y="179" on="0"/>
        <pt x="677" y="151" on="0"/>
        <pt x="677" y="121" on="1"/>
        <pt x="677" y="108" on="1"/>
        <pt x="677" y="56" on="0"/>
        <pt x="626" y="-18" on="0"/>
        <pt x="582" y="-37" on="1"/>
        <pt x="502" y="-72" on="0"/>
      </contour>
      <contour>
        <pt x="124" y="279" on="1"/>
        <pt x="136" y="286" on="0"/>
        <pt x="149" y="303" on="1"/>
        <pt x="174" y="303" on="1"/>
        <pt x="187" y="285" on="0"/>
        <pt x="198" y="279" on="1"/>
        <pt x="216" y="300" on="0"/>
        <pt x="239" y="306" on="1"/>
        <pt x="239" y="503" on="1"/>
        <pt x="239" y="554" on="0"/>
        <pt x="301" y="611" on="0"/>
        <pt x="399" y="611" on="0"/>
        <pt x="459" y="555" on="0"/>
        <pt x="459" y="503" on="1"/>
        <pt x="459" y="306" on="1"/>
        <pt x="482" y="300" on="0"/>
        <pt x="500" y="279" on="1"/>
        <pt x="510" y="285" on="0"/>
        <pt x="524" y="303" on="1"/>
        <pt x="549" y="303" on="1"/>
        <pt x="562" y="285" on="0"/>
        <pt x="574" y="279" on="1"/>
        <pt x="584" y="292" on="0"/>
        <pt x="597" y="299" on="1"/>
        <pt x="597" y="529" on="1"/>
        <pt x="597" y="571" on="0"/>
        <pt x="553" y="633" on="0"/>
        <pt x="479" y="667" on="0"/>
        <pt x="395" y="683" on="0"/>
        <pt x="303" y="683" on="0"/>
        <pt x="220" y="667" on="0"/>
        <pt x="145" y="633" on="0"/>
        <pt x="101" y="571" on="0"/>
        <pt x="101" y="529" on="1"/>
        <pt x="101" y="299" on="1"/>
        <pt x="115" y="290" on="0"/>
      </contour>
      <contour>
        <pt x="286" y="18" on="0"/>
        <pt x="412" y="18" on="0"/>
        <pt x="518" y="44" on="0"/>
        <pt x="597" y="115" on="0"/>
        <pt x="597" y="169" on="1"/>
        <pt x="597" y="179" on="1"/>
        <pt x="597" y="262" on="0"/>
        <pt x="662" y="262" on="1"/>
        <pt x="662" y="286" on="1"/>
        <pt x="644" y="286" on="0"/>
        <pt x="625" y="283" on="0"/>
        <pt x="594" y="262" on="0"/>
        <pt x="581" y="241" on="1"/>
        <pt x="559" y="246" on="0"/>
        <pt x="537" y="275" on="1"/>
        <pt x="519" y="249" on="0"/>
        <pt x="491" y="241" on="1"/>
        <pt x="479" y="262" on="0"/>
        <pt x="449" y="283" on="0"/>
        <pt x="429" y="286" on="0"/>
        <pt x="411" y="286" on="1"/>
        <pt x="411" y="262" on="1"/>
        <pt x="444" y="262" on="0"/>
        <pt x="472" y="224" on="0"/>
        <pt x="472" y="205" on="1"/>
        <pt x="472" y="151" on="0"/>
        <pt x="402" y="90" on="0"/>
        <pt x="296" y="90" on="0"/>
        <pt x="226" y="151" on="0"/>
        <pt x="226" y="205" on="1"/>
        <pt x="226" y="224" on="0"/>
        <pt x="254" y="262" on="0"/>
        <pt x="287" y="262" on="1"/>
        <pt x="287" y="286" on="1"/>
        <pt x="269" y="286" on="0"/>
        <pt x="249" y="283" on="0"/>
        <pt x="219" y="262" on="0"/>
        <pt x="207" y="241" on="1"/>
        <pt x="181" y="246" on="0"/>
        <pt x="161" y="275" on="1"/>
        <pt x="141" y="249" on="0"/>
        <pt x="117" y="241" on="1"/>
        <pt x="104" y="262" on="0"/>
        <pt x="73" y="283" on="0"/>
        <pt x="54" y="286" on="0"/>
        <pt x="36" y="286" on="1"/>
        <pt x="36" y="262" on="1"/>
        <pt x="101" y="262" on="0"/>
        <pt x="101" y="179" on="1"/>
        <pt x="101" y="169" on="1"/>
        <pt x="101" y="115" on="0"/>
        <pt x="180" y="44" on="0"/>
      </contour>
      <contour>
        <pt x="318" y="442" on="1"/>
        <pt x="318" y="307" on="1"/>
        <pt x="364" y="252" on="1"/>
        <pt x="364" y="179" on="1"/>
        <pt x="347" y="178" on="0"/>
        <pt x="327" y="175" on="0"/>
        <pt x="304" y="157" on="0"/>
        <pt x="304" y="140" on="1"/>
        <pt x="304" y="119" on="0"/>
        <pt x="384" y="119" on="0"/>
        <pt x="433" y="152" on="0"/>
        <pt x="441" y="179" on="1"/>
        <pt x="434" y="179" on="1"/>
        <pt x="384" y="239" on="1"/>
        <pt x="384" y="312" on="1"/>
        <pt x="416" y="312" on="0"/>
        <pt x="430" y="311" on="1"/>
        <pt x="430" y="502" on="1"/>
        <pt x="430" y="510" on="0"/>
        <pt x="408" y="521" on="0"/>
        <pt x="399" y="521" on="1"/>
        <pt x="362" y="521" on="0"/>
        <pt x="318" y="480" on="0"/>
      </contour>
    </TTGlyph>
    <TTGlyph name="Oacute" xMin="11" yMin="-72" xMax="737" yMax="943">
      <contour>
        <pt x="399" y="-72" on="1"/>
        <pt x="255" y="-72" on="0"/>
        <pt x="71" y="65" on="0"/>
        <pt x="71" y="168" on="1"/>
        <pt x="71" y="179" on="1"/>
        <pt x="61" y="179" on="1"/>
        <pt x="11" y="239" on="1"/>
        <pt x="11" y="312" on="1"/>
        <pt x="55" y="312" on="0"/>
        <pt x="72" y="309" on="1"/>
        <pt x="72" y="531" on="1"/>
        <pt x="72" y="583" on="0"/>
        <pt x="123" y="658" on="0"/>
        <pt x="166" y="677" on="1"/>
        <pt x="245" y="712" on="0"/>
        <pt x="349" y="712" on="1"/>
        <pt x="495" y="712" on="0"/>
        <pt x="676" y="579" on="0"/>
        <pt x="676" y="471" on="1"/>
        <pt x="676" y="312" on="1"/>
        <pt x="687" y="312" on="1"/>
        <pt x="737" y="252" on="1"/>
        <pt x="737" y="179" on="1"/>
        <pt x="699" y="179" on="0"/>
        <pt x="677" y="151" on="0"/>
        <pt x="677" y="121" on="1"/>
        <pt x="677" y="108" on="1"/>
        <pt x="677" y="56" on="0"/>
        <pt x="626" y="-18" on="0"/>
        <pt x="582" y="-37" on="1"/>
        <pt x="502" y="-72" on="0"/>
      </contour>
      <contour>
        <pt x="124" y="279" on="1"/>
        <pt x="136" y="286" on="0"/>
        <pt x="149" y="303" on="1"/>
        <pt x="174" y="303" on="1"/>
        <pt x="187" y="285" on="0"/>
        <pt x="198" y="279" on="1"/>
        <pt x="216" y="300" on="0"/>
        <pt x="239" y="306" on="1"/>
        <pt x="239" y="503" on="1"/>
        <pt x="239" y="554" on="0"/>
        <pt x="301" y="611" on="0"/>
        <pt x="399" y="611" on="0"/>
        <pt x="459" y="555" on="0"/>
        <pt x="459" y="503" on="1"/>
        <pt x="459" y="306" on="1"/>
        <pt x="482" y="300" on="0"/>
        <pt x="500" y="279" on="1"/>
        <pt x="510" y="285" on="0"/>
        <pt x="524" y="303" on="1"/>
        <pt x="549" y="303" on="1"/>
        <pt x="562" y="285" on="0"/>
        <pt x="574" y="279" on="1"/>
        <pt x="584" y="292" on="0"/>
        <pt x="597" y="299" on="1"/>
        <pt x="597" y="529" on="1"/>
        <pt x="597" y="571" on="0"/>
        <pt x="553" y="633" on="0"/>
        <pt x="479" y="667" on="0"/>
        <pt x="395" y="683" on="0"/>
        <pt x="303" y="683" on="0"/>
        <pt x="220" y="667" on="0"/>
        <pt x="145" y="633" on="0"/>
        <pt x="101" y="571" on="0"/>
        <pt x="101" y="529" on="1"/>
        <pt x="101" y="299" on="1"/>
        <pt x="115" y="290" on="0"/>
      </contour>
      <contour>
        <pt x="286" y="18" on="0"/>
        <pt x="412" y="18" on="0"/>
        <pt x="518" y="44" on="0"/>
        <pt x="597" y="115" on="0"/>
        <pt x="597" y="169" on="1"/>
        <pt x="597" y="179" on="1"/>
        <pt x="597" y="262" on="0"/>
        <pt x="662" y="262" on="1"/>
        <pt x="662" y="286" on="1"/>
        <pt x="644" y="286" on="0"/>
        <pt x="625" y="283" on="0"/>
        <pt x="594" y="262" on="0"/>
        <pt x="581" y="241" on="1"/>
        <pt x="559" y="246" on="0"/>
        <pt x="537" y="275" on="1"/>
        <pt x="519" y="249" on="0"/>
        <pt x="491" y="241" on="1"/>
        <pt x="479" y="262" on="0"/>
        <pt x="449" y="283" on="0"/>
        <pt x="429" y="286" on="0"/>
        <pt x="411" y="286" on="1"/>
        <pt x="411" y="262" on="1"/>
        <pt x="444" y="262" on="0"/>
        <pt x="472" y="224" on="0"/>
        <pt x="472" y="205" on="1"/>
        <pt x="472" y="151" on="0"/>
        <pt x="402" y="90" on="0"/>
        <pt x="296" y="90" on="0"/>
        <pt x="226" y="151" on="0"/>
        <pt x="226" y="205" on="1"/>
        <pt x="226" y="224" on="0"/>
        <pt x="254" y="262" on="0"/>
        <pt x="287" y="262" on="1"/>
        <pt x="287" y="286" on="1"/>
        <pt x="269" y="286" on="0"/>
        <pt x="249" y="283" on="0"/>
        <pt x="219" y="262" on="0"/>
        <pt x="207" y="241" on="1"/>
        <pt x="181" y="246" on="0"/>
        <pt x="161" y="275" on="1"/>
        <pt x="141" y="249" on="0"/>
        <pt x="117" y="241" on="1"/>
        <pt x="104" y="262" on="0"/>
        <pt x="73" y="283" on="0"/>
        <pt x="54" y="286" on="0"/>
        <pt x="36" y="286" on="1"/>
        <pt x="36" y="262" on="1"/>
        <pt x="101" y="262" on="0"/>
        <pt x="101" y="179" on="1"/>
        <pt x="101" y="169" on="1"/>
        <pt x="101" y="115" on="0"/>
        <pt x="180" y="44" on="0"/>
      </contour>
      <contour>
        <pt x="318" y="442" on="1"/>
        <pt x="318" y="307" on="1"/>
        <pt x="364" y="252" on="1"/>
        <pt x="364" y="179" on="1"/>
        <pt x="347" y="178" on="0"/>
        <pt x="327" y="175" on="0"/>
        <pt x="304" y="157" on="0"/>
        <pt x="304" y="140" on="1"/>
        <pt x="304" y="119" on="0"/>
        <pt x="384" y="119" on="0"/>
        <pt x="433" y="152" on="0"/>
        <pt x="441" y="179" on="1"/>
        <pt x="434" y="179" on="1"/>
        <pt x="384" y="239" on="1"/>
        <pt x="384" y="312" on="1"/>
        <pt x="416" y="312" on="0"/>
        <pt x="430" y="311" on="1"/>
        <pt x="430" y="502" on="1"/>
        <pt x="430" y="510" on="0"/>
        <pt x="408" y="521" on="0"/>
        <pt x="399" y="521" on="1"/>
        <pt x="362" y="521" on="0"/>
        <pt x="318" y="480" on="0"/>
      </contour>
      <contour>
        <pt x="433" y="723" on="1"/>
        <pt x="315" y="723" on="1"/>
        <pt x="260" y="783" on="1"/>
        <pt x="325" y="943" on="1"/>
        <pt x="443" y="943" on="1"/>
        <pt x="493" y="883" on="1"/>
      </contour>
      <contour>
        <pt x="301" y="808" on="1"/>
        <pt x="362" y="808" on="1"/>
        <pt x="407" y="918" on="1"/>
        <pt x="345" y="918" on="1"/>
      </contour>
    </TTGlyph>
</ttFont>
